<?xml version="1.0" standalone="no"?>
<!DOCTYPE svg PUBLIC "-//W3C//DTD SVG 1.1//EN" "http://www.w3.org/Graphics/SVG/1.1/DTD/svg11.dtd" >
<svg>
<metadata>
Created by FontForge 20090622 at Mon Sep  5 15:42:47 2016
 By deploy user
Copyright (C) 2002, 2007 Hoefler &#38; Frere-Jones. http://www.typography.com
</metadata>
<defs>
<font id="ChronicleDisplay-Semi" horiz-adv-x="558" >
  <font-face 
    font-family="Chronicle Display Semi"
    font-weight="375"
    font-stretch="normal"
    units-per-em="1000"
    panose-1="0 0 0 0 0 0 0 0 0 0"
    ascent="800"
    descent="-200"
    x-height="461"
    cap-height="697"
    bbox="-84 -292 1149 1133"
    underline-thickness="50"
    underline-position="-50"
    unicode-range="U+0020-U+FB04"
  />
<missing-glyph horiz-adv-x="500" 
d="M0 -200v1000h500v-1000h-500zM71 750l179 -390l179 390h-358zM50 -76l172 376l-172 376v-752zM450 676l-172 -376l172 -376v752zM250 240l-179 -390h358z" />
    <glyph glyph-name="f_f" unicode="ff" horiz-adv-x="616" 
d="M309 721q98 0 134 -49l1 1q50 50 128 50q62 0 95.5 -23.5t33.5 -57.5q0 -27 -15.5 -43.5t-41.5 -16.5t-43.5 15t-17.5 46q0 25 16 48q-14 14 -37 14q-24 0 -41 -17q-28 -28 -28 -130v-101h128v-31h-128v-376q0 -22 19.5 -29t75.5 -9v-12h-263v12q36 1 49.5 8.5t13.5 29.5
v376h-181v-376q0 -22 14 -29.5t53 -8.5v-12h-243v12q43 1 57 8.5t14 29.5v375h-86v13l86 22v39q0 112 56 168q53 54 151 54zM388 498q0 41 5 66q-49 8 -49 59q0 28 21 51q-19 29 -58 29q-40 0 -67 -25q-33 -33 -33 -117v-104h181v41z" />
    <glyph glyph-name="fi" unicode="fi" horiz-adv-x="584" 
d="M31 0v12q43 1 57 8.5t14 29.5v375h-86v13l86 22v34q0 117 54 173q56 56 159 56q89 0 134.5 -34t45.5 -78q0 -28 -16.5 -45.5t-42.5 -17.5q-27 0 -45 15t-18 45q0 33 29 53q-10 18 -33 31t-53 13q-48 0 -76 -26q-33 -33 -33 -129v-93h151l136 6v-413q0 -23 14 -30t59 -8
v-12h-240v12q34 1 48 8.5t14 29.5v376h-182v-376q0 -22 14 -29.5t53 -8.5v-12h-243z" />
    <glyph glyph-name="fl" unicode="fl" horiz-adv-x="588" 
d="M392 426h-185v-376q0 -22 14 -29.5t53 -8.5v-12h-243v12q43 1 57 8.5t14 29.5v375h-86v13l86 22v38q0 113 54 169q55 55 152 55q58 0 95 -16l94 13v-669q0 -23 13.5 -30t57.5 -8v-12h-239v12q35 1 49 8.5t14 29.5v376zM392 565q-49 7 -49 57q0 30 24 52q-20 30 -59 30
q-43 0 -69 -26q-32 -32 -32 -118v-103h185v108z" />
    <glyph glyph-name="f_f_i" unicode="ffi" horiz-adv-x="870" 
d="M309 721q102 0 136 -52q57 54 156 54q89 0 134.5 -34t45.5 -78q0 -28 -16.5 -45.5t-44.5 -17.5q-24 0 -42 15t-18 44q0 34 28 54q-10 18 -33 31t-53 13q-48 0 -76 -26q-33 -33 -33 -129v-93h151l136 6v-412q0 -23 14 -30.5t60 -8.5v-12h-241v12q35 1 48.5 8.5t13.5 30.5
v375h-182v-375q0 -23 14 -30.5t53 -8.5v-12h-235v12q36 1 49.5 8.5t13.5 30.5v375h-181v-375q0 -23 14 -30.5t53 -8.5v-12h-243v12q43 1 57 8.5t14 30.5v374h-86v13l86 22v39q0 112 56 168q53 54 151 54zM388 457v37q0 37 5 70q-51 5 -51 59q0 30 23 51q-19 29 -58 29
q-40 0 -67 -25q-33 -33 -33 -117v-104h181z" />
    <glyph glyph-name="f_f_l" unicode="ffl" horiz-adv-x="874" 
d="M325 0v12q36 1 49.5 8.5t13.5 30.5v375h-181v-375q0 -23 14 -30.5t53 -8.5v-12h-243v12q43 1 57 8.5t14 30.5v374h-86v13l86 22v39q0 112 56 168q53 54 151 54q102 0 136 -52q54 53 149 53q62 0 95 -16l94 13v-668q0 -23 13.5 -30.5t57.5 -8.5v-12h-238v12q35 1 48.5 9
t13.5 30v375h-185v-375q0 -23 14 -30.5t53 -8.5v-12h-235zM678 457v108q-49 7 -49 57q0 31 25 52q-22 30 -60 30q-44 0 -68 -26q-33 -33 -33 -118v-103h185zM388 498q0 33 5 66q-49 8 -49 59q0 28 21 51q-19 29 -58 29q-40 0 -67 -25q-33 -33 -33 -117v-104h181v41z" />
    <glyph glyph-name="f_b" unicode="fb" horiz-adv-x="866" 
d="M392 565q-49 7 -49 57q0 30 24 52q-20 30 -59 30q-43 0 -69 -26q-32 -32 -32 -118v-103h185v108zM602 11q58 0 87 61.5t29 167.5q0 84 -32.5 136.5t-89.5 52.5q-55 0 -99 -48v-291q15 -38 43.5 -58.5t61.5 -20.5zM302 0h-271v12q43 1 57 8.5t14 30.5v374h-86v13l86 22v38
q0 115 54 169q55 55 152 55q62 0 95 -16l94 13v-318q65 68 151 68q85 0 134.5 -63t49.5 -161q0 -107 -59 -180t-156 -73q-89 0 -160 47l-53 -54h-15l3 91v350h-185v-375q0 -23 19.5 -30t75.5 -9v-12z" />
    <glyph glyph-name="f_h" unicode="fh" horiz-adv-x="868" 
d="M392 565q-49 7 -49 57q0 30 24 52q-20 30 -59 30q-43 0 -69 -26q-32 -32 -32 -118v-103h185v108zM568 0h-239v12q35 1 49 8.5t14 29.5v376h-185v-376q0 -22 14 -29.5t53 -8.5v-12h-243v12q43 1 57 8.5t14 29.5v375h-86v13l86 22v38q0 113 54 169q55 55 152 55
q58 0 95 -16l94 13v-364q69 111 171 111q60 0 91.5 -35.5t31.5 -104.5v-276q0 -23 14 -30t58 -8v-12h-237v12q36 1 48 8.5t12 29.5v255q0 56 -19 83t-62 27q-64 0 -108 -84v-281q0 -23 13.5 -30t57.5 -8v-12z" />
    <glyph glyph-name="f_j" unicode="fj" horiz-adv-x="574" 
d="M302 0h-271v12q43 1 57 8.5t14 30.5v374h-86v13l86 22v34q0 117 54 173q56 56 159 56q89 0 134.5 -34t45.5 -78q0 -28 -16.5 -45.5t-42.5 -17.5q-27 0 -45 15t-18 45q0 33 29 53q-10 18 -33 31t-53 13q-48 0 -76 -26q-33 -33 -33 -129v-93h151l136 6v-453
q0 -67 -10.5 -104.5t-38.5 -65.5q-40 -41 -117 -41q-56 0 -89 21t-33 55q0 26 17 43t42 17q26 0 42 -16.5t16 -42.5q0 -30 -23 -48q13 -11 34 -11q55 0 55 102v507h-182v-375q0 -23 19.5 -30t75.5 -9v-12z" />
    <glyph glyph-name="f_k" unicode="fk" horiz-adv-x="838" 
d="M392 565q-49 7 -49 57q0 30 24 52q-20 30 -59 30q-43 0 -69 -26q-32 -32 -32 -118v-103h185v108zM568 0h-239v12q35 1 49 8.5t14 29.5v376h-185v-376q0 -22 14 -29.5t53 -8.5v-12h-243v12q43 1 57 8.5t14 29.5v375h-86v13l86 22v38q0 113 54 169q55 55 152 55
q58 0 95 -16l94 13v-508l146 151q65 69 -34 87v12h212v-12q-43 -9 -76 -29.5t-82 -67.5l-54 -54l150 -212q32 -46 48.5 -58t51.5 -16v-12h-238v12q38 4 44 18t-13 40l-111 161l-44 -45v-136q0 -23 13.5 -30t57.5 -8v-12z" />
    <glyph glyph-name="f_f_b" unicode="ffb" horiz-adv-x="1152" 
d="M588 0h-263v12q36 1 49.5 8.5t13.5 30.5v375h-181v-375q0 -23 14 -30.5t53 -8.5v-12h-243v12q43 1 57 8.5t14 30.5v374h-86v13l86 22v39q0 112 56 168q53 54 151 54q102 0 136 -52q54 53 149 53q62 0 95 -16l94 13v-318q65 68 151 68q85 0 134.5 -63t49.5 -161
q0 -107 -59 -180t-156 -73q-89 0 -160 47l-53 -54h-15l3 91v350h-185v-375q0 -23 19.5 -30t75.5 -9v-12zM889 11q57 0 86 61.5t29 167.5q0 84 -32.5 136.5t-89.5 52.5q-55 0 -99 -48v-291q15 -38 43.5 -58.5t62.5 -20.5zM678 457v108q-49 7 -49 57q0 31 25 52q-22 30 -60 30
q-44 0 -68 -26q-33 -33 -33 -118v-103h185zM388 498q0 33 5 66q-49 8 -49 59q0 28 21 51q-19 29 -58 29q-40 0 -67 -25q-33 -33 -33 -117v-104h181v41z" />
    <glyph glyph-name="f_f_h" unicode="ffh" horiz-adv-x="1154" 
d="M325 0v12q36 1 49.5 8.5t13.5 30.5v375h-181v-375q0 -23 14 -30.5t53 -8.5v-12h-243v12q43 1 57 8.5t14 30.5v374h-86v13l86 22v39q0 112 56 168q53 54 151 54q102 0 136 -52q54 53 149 53q62 0 95 -16l94 13v-364q69 111 171 111q60 0 91.5 -35.5t31.5 -104.5v-275
q0 -23 14 -30.5t58 -8.5v-12h-236v12q35 1 47 8.5t12 30.5v254q0 56 -19 83t-62 27q-64 0 -108 -84v-280q0 -23 13.5 -30.5t57.5 -8.5v-12h-238v12q35 1 48.5 9t13.5 30v375h-185v-375q0 -23 14 -30.5t53 -8.5v-12h-235zM678 457v108q-49 7 -49 57q0 31 25 52q-22 30 -60 30
q-44 0 -68 -26q-33 -33 -33 -118v-103h185zM388 498q0 33 5 66q-49 8 -49 59q0 28 21 51q-19 29 -58 29q-40 0 -67 -25q-33 -33 -33 -117v-104h181v41z" />
    <glyph glyph-name="f_f_j" unicode="ffj" horiz-adv-x="860" 
d="M588 0h-263v12q36 1 49.5 8.5t13.5 30.5v375h-181v-375q0 -23 14 -30.5t53 -8.5v-12h-243v12q43 1 57 8.5t14 30.5v374h-86v13l86 22v39q0 112 56 168q53 54 151 54q102 0 136 -52q57 54 156 54q89 0 134.5 -34t45.5 -78q0 -28 -16.5 -45.5t-44.5 -17.5q-24 0 -42 15
t-18 44q0 34 28 54q-10 18 -33 31t-53 13q-48 0 -76 -26q-33 -33 -33 -129v-93h151l136 6v-453q0 -67 -10.5 -104.5t-38.5 -65.5q-40 -41 -117 -41q-56 0 -89 21t-33 55q0 26 17 43t42 17q26 0 42 -16.5t16 -42.5q0 -30 -23 -48q13 -11 34 -11q55 0 55 102v507h-182v-375
q0 -23 19.5 -30t75.5 -9v-12zM388 494q0 37 5 70q-51 5 -51 59q0 30 23 51q-19 29 -58 29q-40 0 -67 -25q-33 -33 -33 -117v-104h181v37z" />
    <glyph glyph-name="f_f_k" unicode="ffk" horiz-adv-x="1124" 
d="M325 0v12q36 1 49.5 8.5t13.5 30.5v375h-181v-375q0 -23 14 -30.5t53 -8.5v-12h-243v12q43 1 57 8.5t14 30.5v374h-86v13l86 22v39q0 112 56 168q53 54 151 54q102 0 136 -52q54 53 149 53q62 0 95 -16l94 13v-508l146 151q65 69 -34 87v12h212v-12q-42 -8 -75 -28.5
t-82 -68.5l-55 -54l150 -212q32 -46 48.5 -58t51.5 -16v-12h-238v12q38 4 44 18t-13 40l-111 161l-44 -45v-135q0 -23 13.5 -30.5t57.5 -8.5v-12h-238v12q35 1 48.5 9t13.5 30v375h-185v-375q0 -23 14 -30.5t53 -8.5v-12h-235zM678 457v108q-49 7 -49 57q0 31 25 52
q-22 30 -60 30q-44 0 -68 -26q-33 -33 -33 -118v-103h185zM388 498q0 33 5 66q-49 8 -49 59q0 28 21 51q-19 29 -58 29q-40 0 -67 -25q-33 -33 -33 -117v-104h181v41z" />
    <glyph glyph-name=".notdef" horiz-adv-x="500" 
d="M0 -200v1000h500v-1000h-500zM71 750l179 -390l179 390h-358zM50 -76l172 376l-172 376v-752zM450 676l-172 -376l172 -376v752zM250 240l-179 -390h358z" />
    <glyph glyph-name=".null" horiz-adv-x="0" 
 />
    <glyph glyph-name="nonmarkingreturn" horiz-adv-x="333" 
 />
    <glyph glyph-name="space" unicode=" " horiz-adv-x="187" 
 />
    <glyph glyph-name="exclam" unicode="!" horiz-adv-x="280" 
d="M132 194q-7 102 -31 255.5t-24 194.5q0 81 63 81q30 0 47 -21t17 -60q0 -41 -24.5 -195t-31.5 -255h-16zM140 -16q-29 0 -48.5 19.5t-19.5 46.5q0 28 20 47.5t48 19.5t48 -19.5t20 -46.5q0 -28 -20 -47.5t-48 -19.5z" />
    <glyph glyph-name="quotedbl" unicode="&#x22;" horiz-adv-x="434" 
d="M264 430l-14 5l20 114q21 104 28 121q16 34 49 34q24 0 38.5 -16t14.5 -37q0 -11 -5 -24q-10 -27 -65 -104zM81 430l-13 5l20 114q22 108 28 121q15 34 48 34q24 0 39 -16t15 -37q0 -11 -5 -24q-13 -29 -66 -104z" />
    <glyph glyph-name="numbersign" unicode="#" horiz-adv-x="705" 
d="M321 705l-44 -223h210l45 223h26l-44 -223h157v-21h-161l-50 -251h168v-21h-172l-46 -231h-26l46 231h-211l-46 -231h-26l46 231h-155v21h159l49 251h-164v21h168l45 223h26zM273 461l-50 -251h211l49 251h-210z" />
    <glyph glyph-name="dollar" unicode="$" horiz-adv-x="565" 
d="M274 -64v83q-95 2 -159 41t-64 97q0 26 18 47t51 21q28 0 45.5 -18.5t17.5 -44.5q0 -43 -46 -64q15 -22 53.5 -39t83.5 -20v246l-17 6q-45 15 -70 26t-56.5 31t-46 48.5t-14.5 67.5q0 76 61 124.5t146 53.5v73h26v-72q85 -2 142.5 -38.5t57.5 -88.5q0 -26 -16 -45
t-43 -19q-31 0 -47.5 17.5t-16.5 43.5q0 17 11 33.5t27 23.5q-41 49 -115 53v-230l27 -9q31 -10 45.5 -15.5t41 -17.5t40 -23.5t29.5 -29t22.5 -40.5t6.5 -51q0 -74 -55 -129t-160 -59v-83h-26zM424 149q0 47 -27 73.5t-97 52.5v-236q62 3 93 32.5t31 77.5zM167 514
q0 -40 25.5 -64.5t84.5 -46.5v219q-50 -3 -80 -30.5t-30 -77.5z" />
    <glyph glyph-name="percent" unicode="%" horiz-adv-x="814" 
d="M591 10q42 0 78.5 40t55.5 92.5t19 98.5q0 97 -68 97q-43 0 -78.5 -40t-53 -95.5t-17.5 -107.5q0 -42 17.5 -63.5t46.5 -21.5zM580 -14q-66 0 -102.5 40t-36.5 108q0 88 65.5 163.5t148.5 75.5q53 0 83.5 -34.5t30.5 -96.5q0 -45 -20.5 -102.5t-66 -105.5t-102.5 -48z
M353 544q0 18 -3 33q-53 17 -99 55q-51 -20 -83 -92t-32 -142q0 -42 17.5 -63.5t46.5 -21.5q42 0 78.5 39.5t55.5 92.5t19 99zM265 676q72 0 100 -63q41 -18 90 -18q92 0 184 96h27l-480 -717h-45l455 650l-3 3q-66 -61 -165 -61q-24 0 -51 5q1 -8 1 -26q0 -33 -12.5 -75.5
t-35 -83.5t-60 -69t-81.5 -28q-65 0 -102 40t-37 108q0 87 66 163t149 76z" />
    <glyph glyph-name="ampersand" unicode="&#x26;" horiz-adv-x="763" 
d="M334 387q46 35 63 70t17 88q0 51 -22 79t-63 28q-39 0 -63.5 -28t-24.5 -73q0 -69 93 -164zM247 335q-46 -29 -67 -66.5t-21 -92.5q0 -61 39 -98.5t101 -37.5q76 0 136 72q-31 53 -83 114.5t-105 108.5zM500 200q35 78 77 122t84 44q37 0 57 -20t20 -53q0 -27 -17.5 -45
t-44.5 -18q-24 0 -41 16.5t-17 39.5q0 14 6 23l-3 3q-57 -26 -108 -127q44 -77 77.5 -108t70.5 -31q29 0 67 29l8 -9q-80 -83 -147 -83q-48 0 -78.5 25.5t-65.5 87.5q-80 -113 -204 -113q-90 0 -140.5 49.5t-50.5 123.5q0 129 184 192q-42 44 -61.5 78t-19.5 75q0 74 50 120
t136 46q74 0 118.5 -37.5t44.5 -92.5q0 -50 -35.5 -88t-115.5 -76q101 -89 149 -173z" />
    <glyph glyph-name="quotesingle" unicode="'" horiz-adv-x="252" 
d="M81 430l-13 5l20 114q22 108 28 121q15 34 48 34q24 0 39 -16t15 -37q0 -11 -5 -24q-13 -29 -66 -104z" />
    <glyph glyph-name="parenleft" unicode="(" horiz-adv-x="383" 
d="M406 -166q-62 25 -118.5 65t-106 97t-79 135.5t-29.5 167.5t29.5 167.5t79 135.5t106 97t118.5 65l6 -12q-74 -43 -122 -97t-78 -143.5t-30 -212.5t30 -212.5t78 -143.5t122 -97z" />
    <glyph glyph-name="parenright" unicode=")" horiz-adv-x="383" 
d="M-24 -166l-6 12q75 43 123 97t78 143.5t30 212.5t-30 212.5t-78 143.5t-123 97l6 12q62 -25 118.5 -65t106 -97t79 -135.5t29.5 -167.5t-29.5 -167.5t-79 -135.5t-106 -97t-118.5 -65z" />
    <glyph glyph-name="asterisk" unicode="*" horiz-adv-x="423" 
d="M266 386q-35 -11 -49 33q-5 16 -5 122l-9 3q-65 -88 -76 -96q-36 -25 -57 3q-21 30 14 56q22 15 115 42v10q-103 34 -114 42q-17 12 -21 27.5t6 28.5q22 29 57 2q11 -8 76 -96l9 3q0 106 5 123q14 42 49 32q33 -9 20 -55q-6 -22 -69 -102l6 -6q3 1 54 16.5t64 15.5
q45 0 45 -36t-45 -36q-10 0 -33.5 6.5t-51.5 15.5t-33 10l-6 -6q63 -85 69 -104q13 -42 -20 -54z" />
    <glyph glyph-name="plus" unicode="+" horiz-adv-x="556" 
d="M54 315v22h212v211h26v-211h210v-22h-210v-214h-26v214h-212z" />
    <glyph glyph-name="comma" unicode="," horiz-adv-x="233" 
d="M29 -151l-7 12q51 25 82 63.5t35 71.5l-4 2q-13 -8 -29 -8q-24 0 -41.5 17t-17.5 43q0 27 18.5 47t45.5 20q36 0 56.5 -23.5t20.5 -62.5q0 -121 -159 -182z" />
    <glyph glyph-name="hyphen" unicode="-" horiz-adv-x="366" 
d="M55 239v41h256v-41h-256z" />
    <glyph glyph-name="period" unicode="." horiz-adv-x="233" 
d="M117 -16q-29 0 -49 19.5t-20 46.5q0 28 20 47.5t49 19.5q28 0 47.5 -19.5t19.5 -46.5q0 -28 -19.5 -47.5t-47.5 -19.5z" />
    <glyph glyph-name="slash" unicode="/" horiz-adv-x="457" 
d="M8 -215l212 480l208 481h30l-212 -481l-208 -480h-30z" />
    <glyph glyph-name="zero" unicode="0" horiz-adv-x="613" 
d="M306 -14q-117 0 -192 98t-75 245q0 145 77.5 246t190.5 101q117 0 192 -98.5t75 -244.5q0 -145 -77.5 -246t-190.5 -101zM311 4q74 0 104 75.5t30 251.5q0 173 -34 250t-109 77q-74 0 -104.5 -75.5t-30.5 -251.5q0 -174 34 -250.5t110 -76.5z" />
    <glyph glyph-name="one" unicode="1" horiz-adv-x="425" 
d="M37 0v13q71 1 98.5 15t27.5 48v481q0 46 -24 62.5t-104 18.5v12l240 20v-594q0 -35 27 -48.5t99 -14.5v-13h-364z" />
    <glyph glyph-name="two" unicode="2" horiz-adv-x="560" 
d="M51 0v70l156 129q101 81 139 145t38 152q0 162 -122 162q-36 0 -71 -17.5t-50 -45.5q57 -24 57 -76q0 -31 -18.5 -53t-51.5 -22t-53.5 22t-20.5 55q0 68 66 111.5t155 43.5q109 0 169 -51t60 -130q0 -65 -51 -125t-182 -156l-151 -115v-5h259q55 0 77 19.5t45 86.5l13 -1
l-3 -199h-460z" />
    <glyph glyph-name="three" unicode="3" horiz-adv-x="557" 
d="M260 -14q-93 0 -158.5 37.5t-65.5 96.5q0 32 20.5 54.5t52.5 22.5q31 0 48.5 -21t17.5 -49q0 -45 -46 -70q14 -21 50.5 -37t81.5 -16q70 0 103 41.5t33 127.5q0 80 -41.5 117.5t-136.5 37.5h-29v22h18q97 0 134.5 39.5t37.5 125.5q0 74 -30.5 108.5t-93.5 34.5
q-33 0 -64.5 -14.5t-48.5 -36.5q20 -7 35 -25.5t15 -43.5q0 -28 -17.5 -49t-48.5 -21t-50.5 20t-19.5 51q0 59 62 98t152 39q110 0 170 -44t60 -114q0 -59 -52 -106.5t-160 -69.5v-3q109 -4 169 -46.5t60 -116.5q0 -84 -68 -137t-190 -53z" />
    <glyph glyph-name="four" unicode="4" horiz-adv-x="581" 
d="M565 206h-141v-132q0 -32 22 -46t71 -15v-13h-302v13q97 2 97 61v132h-290v46l332 410h70v-389h141v-67zM308 565l-233 -292h237v292h-4z" />
    <glyph glyph-name="five" unicode="5" horiz-adv-x="549" 
d="M262 -14q-87 0 -151.5 36t-64.5 97q0 32 20 54.5t53 22.5q31 0 48 -19.5t17 -46.5q0 -25 -16 -45.5t-35 -29.5q15 -20 48 -35.5t73 -15.5q73 0 104 49t31 149q0 175 -136 175q-74 0 -146 -50l-19 9l12 326h391l-14 -100h-357l-8 -210q74 49 163 49q119 0 177.5 -54
t58.5 -143q0 -88 -68.5 -153t-180.5 -65z" />
    <glyph glyph-name="six" unicode="6" horiz-adv-x="572" 
d="M296 -14q-112 0 -182.5 77t-70.5 199q0 168 107 273q62 62 139.5 96t200.5 48v-12q-147 -36 -228.5 -115.5t-99.5 -220.5l4 -1q19 48 66.5 76t103.5 28q89 0 145 -55.5t56 -144.5q0 -105 -66 -176.5t-175 -71.5zM301 3q62 0 89 54t27 161q0 98 -26.5 144.5t-82.5 46.5
q-60 0 -102.5 -52t-42.5 -154q0 -96 38 -148t100 -52z" />
    <glyph glyph-name="seven" unicode="7" horiz-adv-x="523" 
d="M102 -10v7l347 572h-279q-46 0 -65.5 -22.5t-40.5 -96.5h-12l7 212h451v-11l-173 -380l-124 -281h-111z" />
    <glyph glyph-name="eight" unicode="8" 
d="M41 155q0 52 41 96t111 71q-133 62 -133 169q0 79 65 132t155 53q93 0 156.5 -43.5t63.5 -110.5q0 -95 -144 -156q84 -34 124.5 -78.5t40.5 -108.5q0 -81 -72.5 -137t-162.5 -56q-113 0 -179 47t-66 122zM245 301q-18 6 -26 10q-80 -52 -80 -150q0 -72 37.5 -114.5
t102.5 -42.5q137 0 137 133q0 56 -41 93.5t-130 70.5zM161 532q0 -54 39.5 -89t123.5 -65l12 -5q66 46 66 141q0 65 -33 104t-92 39q-54 0 -85 -31t-31 -94z" />
    <glyph glyph-name="nine" unicode="9" horiz-adv-x="572" 
d="M83 -18v12q143 34 226 115t101 222l-4 1q-18 -48 -63 -76t-97 -28q-90 0 -150.5 57.5t-60.5 150.5q0 99 69.5 169.5t179.5 70.5q113 0 179 -76.5t66 -202.5q0 -164 -106 -270q-63 -63 -140.5 -97t-199.5 -48zM275 253q52 0 93.5 55t41.5 150q0 96 -35 148.5t-94 52.5
q-126 0 -126 -212q0 -194 120 -194z" />
    <glyph glyph-name="colon" unicode=":" horiz-adv-x="239" 
d="M120 274q-29 0 -48.5 19t-19.5 47t19.5 47.5t48.5 19.5q28 0 47.5 -19.5t19.5 -46.5q0 -28 -19.5 -47.5t-47.5 -19.5zM120 -16q-29 0 -48.5 19.5t-19.5 46.5q0 28 19.5 47.5t48.5 19.5q28 0 47.5 -19.5t19.5 -46.5q0 -28 -19.5 -47.5t-47.5 -19.5z" />
    <glyph glyph-name="semicolon" unicode=";" horiz-adv-x="239" 
d="M120 274q-29 0 -48.5 19t-19.5 47t19.5 47.5t48.5 19.5q28 0 47.5 -19.5t19.5 -46.5q0 -28 -19.5 -47.5t-47.5 -19.5zM32 -151l-7 12q51 25 82 63.5t35 71.5l-4 2q-13 -8 -29 -8q-24 0 -41 17t-17 43q0 28 18 47.5t45 19.5q36 0 56.5 -23.5t20.5 -62.5q0 -121 -159 -182z
" />
    <glyph glyph-name="less" unicode="&#x3c;" horiz-adv-x="555" 
d="M84 313v24l388 213v-30l-358 -195l358 -194v-30z" />
    <glyph glyph-name="equal" unicode="=" horiz-adv-x="556" 
d="M59 215v22h438v-22h-438zM59 413v22h438v-22h-438z" />
    <glyph glyph-name="greater" unicode="&#x3e;" horiz-adv-x="555" 
d="M472 314l-388 -213v30l357 195l-357 194v30l388 -212v-24z" />
    <glyph glyph-name="question" unicode="?" horiz-adv-x="481" 
d="M192 194v159q89 24 121 68.5t32 125.5q0 159 -130 159q-38 0 -69.5 -16.5t-46.5 -41.5q59 -17 59 -73q0 -29 -18 -50.5t-51 -21.5t-54 22t-21 55q0 63 62.5 103.5t153.5 40.5q106 0 168.5 -51.5t62.5 -125.5q0 -153 -242 -207v-146h-27zM207 -16q-29 0 -48.5 19.5
t-19.5 46.5q0 28 20 47.5t49 19.5q28 0 47.5 -19.5t19.5 -46.5q0 -28 -20 -47.5t-48 -19.5z" />
    <glyph glyph-name="at" unicode="@" horiz-adv-x="909" 
d="M469 -146q-179 0 -293.5 112t-114.5 295q0 184 120 303.5t307 119.5q150 0 255 -96.5t105 -241.5q0 -134 -69 -210t-159 -76q-63 0 -91.5 21.5t-33.5 61.5h-3q-58 -74 -125 -74q-54 0 -86 37t-32 101q0 97 72 184t160 87q62 0 87 -55h3l15 47l90 9l-48 -141l-41 -146
q-16 -52 -2 -80.5t54 -28.5q69 0 128 73.5t59 188.5q0 135 -98 227.5t-245 92.5q-175 0 -287.5 -115.5t-112.5 -283.5q0 -171 106.5 -281.5t284.5 -110.5q136 0 249 82l11 -14q-120 -88 -265 -88zM407 109q47 0 88 69l63 212q-15 65 -64 65q-40 0 -77 -44.5t-56.5 -102
t-19.5 -103.5q0 -45 17 -70.5t49 -25.5z" />
    <glyph glyph-name="A" unicode="A" horiz-adv-x="686" 
d="M471 95l-60 172h-236l-34 -87q-33 -89 -19.5 -122.5t82.5 -44.5v-13h-234v13q50 14 81.5 49.5t62.5 115.5l213 539h42l224 -608q19 -53 40 -70.5t77 -25.5v-13h-328v13q69 4 86.5 21.5t2.5 60.5zM182 287h222l-104 295h-4z" />
    <glyph glyph-name="B" unicode="B" horiz-adv-x="686" 
d="M33 0v13q62 2 85.5 17.5t23.5 48.5v540q0 32 -23.5 48t-85.5 18v12h314q144 0 207.5 -47t63.5 -120q0 -61 -49.5 -105.5t-152.5 -53.5v-4q113 -4 171.5 -48.5t58.5 -120.5q0 -84 -69 -141t-221 -57h-323zM259 377h89q80 0 114 38t34 112q0 72 -33 111.5t-119 39.5h-85
v-301zM259 19h101q92 0 126.5 41.5t34.5 135.5q0 74 -41 118t-129 44h-92v-339z" />
    <glyph glyph-name="C" unicode="C" horiz-adv-x="712" 
d="M386 -17q-154 0 -248 97t-94 258q0 164 105.5 270t259.5 106q100 0 180 -41l44 47h10v-243h-13q-42 109 -99 163.5t-135 54.5q-96 0 -158 -88t-62 -258q0 -163 72.5 -245.5t173.5 -82.5q82 0 143 45.5t96 122.5l17 -9q-37 -85 -109 -141t-183 -56z" />
    <glyph glyph-name="D" unicode="D" horiz-adv-x="767" 
d="M33 0v13q62 2 85.5 17.5t23.5 48.5v540q0 32 -23.5 48t-85.5 18v12h313q180 0 278.5 -93.5t98.5 -242.5q0 -71 -21.5 -134.5t-64.5 -115t-115 -81.5t-164 -30h-325zM259 19h67q151 0 208 71t57 263q0 97 -16 160.5t-50 99.5t-80.5 50.5t-115.5 14.5h-70v-659z" />
    <glyph glyph-name="E" unicode="E" horiz-adv-x="696" 
d="M33 0v13q62 2 85.5 17.5t23.5 48.5v540q0 32 -23.5 48t-85.5 18v12h580l3 -225l-14 -2q-47 115 -92.5 161.5t-130.5 46.5h-120v-307h54q64 0 99 30t55 107h13v-293h-13q-20 77 -55 107t-99 30h-54v-333h118q100 0 152.5 49t101.5 171l14 -1l-5 -238h-607z" />
    <glyph glyph-name="F" unicode="F" horiz-adv-x="658" 
d="M33 0v13q62 2 85.5 17.5t23.5 48.5v540q0 32 -23.5 47.5t-85.5 17.5v13h577l8 -230l-13 -1q-48 118 -97.5 165t-138.5 47h-110v-316h54q64 0 98 29t54 106h13v-291h-13q-20 78 -54 107t-98 29h-54v-263q0 -33 23 -48.5t88 -17.5v-13h-337z" />
    <glyph glyph-name="G" unicode="G" horiz-adv-x="751" 
d="M407 -17q-97 0 -178 40.5t-133 125t-52 198.5q0 159 108.5 263t255.5 104q101 0 181 -41l45 47h11v-231h-14q-85 206 -232 206q-94 0 -158 -85t-64 -261q0 -175 67 -261t163 -86q86 0 136 42v189q0 33 -24.5 51t-86.5 20v13h303v-13q-47 -2 -62.5 -17t-15.5 -54v-184
q-104 -66 -250 -66z" />
    <glyph glyph-name="H" unicode="H" horiz-adv-x="830" 
d="M33 0v13q63 2 86 17.5t23 47.5v541q0 33 -23.5 48.5t-85.5 17.5v12h328v-12q-61 -2 -81.5 -17t-20.5 -49v-247h311v247q0 34 -20 49t-80 17v12h326v-12q-62 -2 -85.5 -17.5t-23.5 -48.5v-541q0 -32 23 -47.5t86 -17.5v-13h-326v13q60 2 80 16.5t20 48.5v273h-311v-273
q0 -34 20 -48.5t82 -16.5v-13h-328z" />
    <glyph glyph-name="I" unicode="I" horiz-adv-x="420" 
d="M40 0v13q65 2 88.5 17.5t23.5 48.5v540q0 32 -23.5 48t-88.5 18v12h340v-12q-65 -2 -88.5 -18t-23.5 -48v-540q0 -33 23.5 -48.5t88.5 -17.5v-13h-340z" />
    <glyph glyph-name="J" unicode="J" horiz-adv-x="565" 
d="M223 -17q-92 0 -142 37t-50 92q0 36 21 60t53 24q31 0 51 -20.5t20 -50.5q0 -31 -20.5 -54t-57.5 -27q40 -37 103 -37t90.5 41t27.5 131v440q0 32 -25 48t-90 18v12h339v-12q-62 -2 -85 -18t-23 -48v-413q0 -107 -53.5 -165t-158.5 -58z" />
    <glyph glyph-name="K" unicode="K" horiz-adv-x="756" 
d="M256 316l237 241q31 32 41 58t-8 45t-67 25v12h275v-12q-61 -12 -108.5 -43.5t-126.5 -111.5l-102 -100l213 -296q53 -71 78.5 -92t76.5 -29v-13h-312v13q56 5 65 24.5t-22 65.5l-175 248l-65 -64v-209q0 -34 19 -48.5t77 -16.5v-13h-322v13q63 2 86 17.5t23 47.5v541
q0 33 -23.5 48.5t-85.5 17.5v12h328v-12q-61 -2 -81.5 -17t-20.5 -49v-303z" />
    <glyph glyph-name="L" unicode="L" horiz-adv-x="633" 
d="M30 0v13q62 2 85.5 17.5t23.5 48.5v540q0 32 -23.5 48t-85.5 18v12h329v-12q-64 -2 -83.5 -17t-19.5 -49v-600h78q104 0 158.5 44.5t105.5 171.5l14 -1l-10 -234h-572z" />
    <glyph glyph-name="M" unicode="M" horiz-adv-x="976" 
d="M33 0v13q69 11 95 45t26 109v406q0 49 -30 80t-91 32v12h251l218 -539h4l206 539h230v-12q-62 -2 -85.5 -18t-23.5 -48v-540q0 -32 23.5 -48t85.5 -18v-13h-326v13q61 2 81 17t20 49v551h-5l-242 -631h-23l-263 633h-5v-465q0 -76 26 -110t100 -44v-13h-272z" />
    <glyph glyph-name="N" unicode="N" horiz-adv-x="795" 
d="M635 -15l-455 599h-1v-417q0 -76 26.5 -110t101.5 -44v-13h-274v13q69 11 95.5 45t26.5 109v402q0 50 -30.5 81.5t-91.5 34.5v12h213l397 -528h1v362q0 74 -30 109t-104 45v12h275v-12q-69 -12 -93 -45t-24 -109v-546h-33z" />
    <glyph glyph-name="O" unicode="O" horiz-adv-x="766" 
d="M383 -17q-143 0 -241 101t-98 263q0 161 100 264t239 103q142 0 240 -101t98 -263q0 -161 -100 -264t-238 -103zM387 2q99 0 150.5 80t51.5 266t-55 266.5t-156 80.5q-98 0 -149.5 -79.5t-51.5 -266.5t55 -267t155 -80z" />
    <glyph glyph-name="P" unicode="P" horiz-adv-x="653" 
d="M33 0v13q62 2 85.5 17.5t23.5 48.5v540q0 32 -23.5 48t-85.5 18v12h297q289 0 289 -192q0 -86 -69.5 -142t-224.5 -56h-66v-228q0 -34 24 -49t92 -17v-13h-342zM259 326h67q97 0 131.5 43.5t34.5 136.5q0 83 -35.5 127.5t-126.5 44.5h-71v-352z" />
    <glyph glyph-name="Q" unicode="Q" horiz-adv-x="766" 
d="M387 4q99 0 150.5 79.5t51.5 265.5t-55 266t-156 80q-99 0 -150 -79.5t-51 -265.5q0 -187 54.5 -266.5t155.5 -79.5zM424 -13q33 -12 66 -40.5t54 -55.5t47.5 -48t51.5 -21q27 0 27 26q0 12 -26 34.5t-26 45.5t15.5 39.5t40.5 16.5q27 0 44.5 -20.5t17.5 -49.5
q0 -54 -44 -89.5t-113 -35.5q-38 0 -72.5 16t-59.5 38.5t-47.5 45t-46 38.5t-46.5 16q-59 0 -139 -76l-11 12q84 90 164 111q-121 21 -199 117.5t-78 240.5q0 160 100 263t239 103q142 0 240 -100.5t98 -262.5q0 -148 -86 -248t-211 -116z" />
    <glyph glyph-name="R" unicode="R" horiz-adv-x="714" 
d="M259 360h84q95 0 128.5 38.5t33.5 124.5q0 76 -39.5 115.5t-135.5 39.5h-71v-318zM259 341v-262q0 -34 22 -49t83 -17v-13h-331v13q62 2 85.5 17.5t23.5 48.5v540q0 32 -23.5 48t-85.5 18v12h315q146 0 215 -46.5t69 -122.5q0 -144 -212 -176v-3q103 -3 144 -45t53 -127
l7 -57q10 -66 30.5 -83.5t85.5 -18.5v-12q-47 -11 -103 -11q-77 0 -103.5 27.5t-34.5 99.5l-10 92q-8 77 -38 102t-116 25h-76z" />
    <glyph glyph-name="S" unicode="S" horiz-adv-x="580" 
d="M55 -18v250h14q49 -109 106 -167.5t132 -58.5q69 0 108 38.5t39 90.5q0 62 -41.5 96.5t-142.5 69.5l-43.5 15.5t-39.5 16t-40.5 20t-30.5 23.5t-28 32t-15 39t-7 50q0 97 66.5 155.5t169.5 58.5q78 0 150 -34l36 40h12v-223h-14q-82 198 -200 198q-54 0 -92 -33t-38 -90
q0 -60 42 -92t138 -64q38 -13 58 -20.5t51 -25t47 -35.5t28.5 -48.5t12.5 -67.5q0 -43 -13.5 -82.5t-40.5 -73.5t-74.5 -54t-109.5 -20q-89 0 -168 45l-60 -49h-12z" />
    <glyph glyph-name="T" unicode="T" horiz-adv-x="700" 
d="M174 0v13q65 2 92 18t27 48v599h-39q-105 0 -201 -199l-14 1l6 217h613l6 -217l-14 -1q-98 199 -202 199h-39v-599q0 -32 27 -48t92 -18v-13h-354z" />
    <glyph glyph-name="U" unicode="U" horiz-adv-x="790" 
d="M403 -17q-131 0 -201.5 56t-70.5 164v416q0 32 -23.5 48t-85.5 18v12h327v-12q-61 -2 -81 -17t-20 -49v-404q0 -198 203 -198q82 0 128 46q56 56 56 162v306q0 74 -29.5 109t-104.5 45v12h276v-12q-69 -12 -93 -45t-24 -109v-314q0 -109 -64 -171.5t-193 -62.5z" />
    <glyph glyph-name="V" unicode="V" horiz-adv-x="707" 
d="M341 -18l-231 600q-21 55 -42.5 74.5t-76.5 28.5v12h327v-12q-69 -4 -86.5 -22.5t-1.5 -62.5l176 -472h5l159 417q26 65 11 96t-82 44v12h233v-12q-52 -11 -81 -44.5t-64 -120.5l-211 -538h-35z" />
    <glyph glyph-name="W" unicode="W" horiz-adv-x="1030" 
d="M513 518l-21 65q-19 59 -40 78t-72 24v12h305v-12q-62 -4 -77.5 -21t0.5 -63l146 -449h4l123 390q22 71 5.5 101t-80.5 42v12h237v-12q-55 -10 -85 -45t-57 -118l-172 -540h-35l-169 504l-182 -504h-35l-194 601q-17 54 -39 73.5t-78 28.5v12h310v-12q-58 -4 -73 -24
t0 -60l137 -451h4z" />
    <glyph glyph-name="X" unicode="X" horiz-adv-x="710" 
d="M388 406l107 151q39 54 26.5 87.5t-74.5 40.5v12h254v-12q-57 -9 -93 -37.5t-97 -111.5l-110 -150l190 -289q28 -41 52.5 -57.5t83.5 -26.5v-13h-329v13q66 4 78.5 25t-15.5 60l-133 215l-123 -174q-38 -54 -25.5 -87t73.5 -39v-13h-255v13q58 8 93.5 35t97.5 112
l125 172l-175 267q-28 44 -52.5 60t-85.5 26v12h330v-12q-62 -3 -75.5 -26.5t13.5 -62.5z" />
    <glyph glyph-name="Y" unicode="Y" horiz-adv-x="677" 
d="M386 333l130 228q37 60 27.5 85.5t-77.5 38.5v12h231v-12q-52 -9 -85 -37t-76 -102l-137 -235v-232q0 -33 23.5 -48.5t88.5 -17.5v-13h-340v13q66 2 89 17.5t23 48.5v212l-176 311q-23 39 -46 56t-68 27v12h322v-12q-71 -4 -86 -25.5t11 -61.5z" />
    <glyph glyph-name="Z" unicode="Z" horiz-adv-x="650" 
d="M35 0l-1 11l435 666h-184q-54 0 -102.5 -45.5t-108.5 -152.5l-13 2l17 216h533l1 -11l-435 -666h213q56 0 98.5 44.5t111.5 162.5l14 -2l-14 -225h-565z" />
    <glyph glyph-name="bracketleft" unicode="[" horiz-adv-x="367" 
d="M99 -165v929h291v-21h-197v-887h197v-21h-291z" />
    <glyph glyph-name="backslash" unicode="\" horiz-adv-x="457" 
d="M418 -215l-208 480l-212 481h30l208 -481l212 -480h-30z" />
    <glyph glyph-name="bracketright" unicode="]" horiz-adv-x="367" 
d="M-23 -165v21h197v887h-197v21h291v-929h-291z" />
    <glyph glyph-name="asciicircum" unicode="^" horiz-adv-x="355" 
d="M23 535l149 227h17l144 -227h-24l-131 135l-131 -135h-24z" />
    <glyph glyph-name="underscore" unicode="_" horiz-adv-x="440" 
d="M-2 0v31h444v-31h-444z" />
    <glyph glyph-name="grave" unicode="`" horiz-adv-x="238" 
d="M166 528l-93 89q-51 51 -51 76q0 19 13.5 31.5t33.5 12.5q22 0 35 -18t28 -64l47 -127h-13z" />
    <glyph glyph-name="a" unicode="a" horiz-adv-x="491" 
d="M168 -6q-63 0 -95.5 32.5t-32.5 78.5q0 68 60 101q44 24 127.5 40.5t86.5 17.5v72q0 57 -19 84t-62 27q-54 0 -83 -29q27 -25 27 -54q0 -27 -15.5 -43t-44.5 -16q-26 0 -42 17t-16 42q0 45 51 73.5t135 28.5q173 0 173 -147v-233q0 -39 16 -50.5t60 4.5l4 -10
q-54 -34 -96 -34q-41 0 -59.5 18t-23.5 59h-4q-68 -79 -147 -79zM226 40q48 0 88 56v149q-97 -19 -129.5 -45t-32.5 -78q0 -38 18.5 -60t55.5 -22z" />
    <glyph glyph-name="b" unicode="b" horiz-adv-x="541" 
d="M64 -15l3 91v572q0 27 -15 38.5t-65 12.5v12l185 6v-316q66 68 151 68t134.5 -63t49.5 -161q0 -107 -58.5 -180t-155.5 -73q-90 0 -160 47l-54 -54h-15zM278 11q58 0 86.5 61.5t28.5 167.5q0 84 -32.5 136.5t-89.5 52.5q-54 0 -99 -48v-291q15 -38 43.5 -58.5t62.5 -20.5
z" />
    <glyph glyph-name="c" unicode="c" horiz-adv-x="464" 
d="M251 -8q-99 0 -159 64t-60 166q0 109 69 178t172 69q80 0 124.5 -34t44.5 -74q0 -28 -15.5 -46t-41.5 -18q-30 0 -47 16.5t-17 42.5q0 42 32 59q-28 36 -77 36q-57 0 -93.5 -57t-36.5 -154q0 -91 39.5 -149.5t114.5 -58.5q76 0 140 79l11 -8q-76 -111 -200 -111z" />
    <glyph glyph-name="d" unicode="d" horiz-adv-x="545" 
d="M230 -8q-91 0 -144.5 65.5t-53.5 166.5q0 104 64.5 174.5t165.5 70.5q56 0 102 -24v203q0 27 -15 38.5t-65 12.5v12l185 6v-666q0 -20 15.5 -30t56.5 -11v-10l-175 -4v55q-57 -59 -136 -59zM279 34q50 0 85 38v327q-36 51 -96 51q-57 0 -89.5 -60t-32.5 -161
q0 -86 35 -140.5t98 -54.5z" />
    <glyph glyph-name="e" unicode="e" horiz-adv-x="484" 
d="M258 -8q-100 0 -163 64.5t-63 168.5q0 105 66.5 174.5t159.5 69.5q98 0 149.5 -60.5t45.5 -152.5h-307v-23v-2q0 -90 40.5 -144.5t116.5 -54.5q44 0 75.5 20.5t65.5 64.5l11 -8q-72 -117 -197 -117zM251 450q-93 0 -104 -176h194q16 176 -90 176z" />
    <glyph glyph-name="f" unicode="f" horiz-adv-x="329" 
d="M31 0v12q43 1 57 8.5t14 29.5v375h-86v13l86 22v38q0 119 56 175q50 50 128 50q62 0 95.5 -23.5t33.5 -57.5q0 -27 -15 -43.5t-42 -16.5q-26 0 -43.5 15.5t-17.5 48.5q0 22 16 45q-16 14 -37 14q-24 0 -41 -17q-28 -28 -28 -130v-101h127v-31h-127v-376q0 -22 19.5 -29
t75.5 -9v-12h-271z" />
    <glyph glyph-name="g" unicode="g" horiz-adv-x="470" 
d="M248 -184q65 0 109 30t44 78q0 66 -131 66h-102q-71 -22 -71 -77q0 -44 37.5 -70.5t113.5 -26.5zM239 175q42 0 60 33t18 104q0 64 -22 100t-65 36q-42 0 -60 -32.5t-18 -103.5q0 -137 87 -137zM235 466q47 0 91 -19q41 82 101 82q27 0 42.5 -14.5t15.5 -36.5
q0 -18 -12 -30.5t-31 -12.5q-18 0 -31.5 14t-13.5 37q-32 -6 -55 -47q82 -43 82 -125q0 -70 -56 -113t-133 -43q-32 0 -66 8q-58 -19 -58 -48q0 -36 96 -36h78q92 0 137.5 -29t45.5 -93q0 -66 -66 -113.5t-180 -47.5q-92 0 -147.5 28.5t-55.5 72.5q0 35 31.5 60.5t88.5 33.5
v2q-87 23 -87 87q0 25 24 50t68 41q-99 40 -99 136q0 69 56.5 112.5t133.5 43.5z" />
    <glyph glyph-name="h" unicode="h" 
d="M10 0v12q43 1 57 8t14 30v598q0 27 -15 38.5t-65 12.5v12l185 6v-362q70 111 172 111q60 0 91.5 -35.5t31.5 -104.5v-276q0 -23 14 -30t58 -8v-12h-237v12q36 1 48 8.5t12 29.5v255q0 56 -19 83t-63 27q-62 0 -108 -84v-281q0 -22 12.5 -29.5t47.5 -8.5v-12h-236z" />
    <glyph glyph-name="i" unicode="i" horiz-adv-x="292" 
d="M146 549q-29 0 -47 17.5t-18 47.5q0 31 18 50t47 19q30 0 48 -18t18 -48t-18 -49t-48 -19zM26 0v12q44 1 58.5 8.5t14.5 29.5v344q0 24 -16 36.5t-57 13.5v12l178 7v-413q0 -23 13.5 -30t59.5 -8v-12h-251z" />
    <glyph glyph-name="j" unicode="j" horiz-adv-x="283" 
d="M146 549q-29 0 -47 17.5t-18 47.5q0 31 18 50t47 19q30 0 48 -18t18 -48t-18 -49t-48 -19zM38 -201q-56 0 -89 21t-33 55q0 26 17 43t42 17q26 0 42 -16t16 -42q0 -31 -23 -49q13 -11 34 -11q55 0 55 103v474q0 25 -17.5 37t-63.5 13v12l186 7v-453q0 -67 -10.5 -104.5
t-38.5 -65.5q-40 -41 -117 -41z" />
    <glyph glyph-name="k" unicode="k" horiz-adv-x="528" 
d="M186 186v-136q0 -22 11.5 -29.5t41.5 -8.5v-12h-229v12q43 1 57 8t14 30v598q0 27 -15 38.5t-65 12.5v12l185 6v-506l147 151q65 69 -34 87v12h212v-12q-43 -9 -76 -29.5t-82 -67.5l-54 -54l150 -212q32 -46 48.5 -58t50.5 -16v-12h-237v12q38 4 44 18t-13 40l-111 161z
" />
    <glyph glyph-name="l" unicode="l" horiz-adv-x="291" 
d="M23 0v12q44 1 58 8.5t14 29.5v598q0 27 -15 38.5t-65 12.5v12l185 6v-667q0 -23 14 -30t57 -8v-12h-248z" />
    <glyph glyph-name="m" unicode="m" horiz-adv-x="845" 
d="M320 0v12q35 1 46.5 8.5t11.5 29.5v255q0 55 -18.5 82.5t-60.5 27.5q-58 0 -102 -84v-281q0 -23 10 -30t43 -8v-12h-229v12q43 1 57 8.5t14 29.5v344q0 24 -15.5 36.5t-55.5 13.5v12l174 7v-108q68 111 167 111q50 0 80.5 -26.5t37.5 -77.5q33 49 77 76.5t91 27.5
q58 0 89.5 -36t31.5 -104v-276q0 -23 14 -30t57 -8v-12h-230v12q34 1 44 8t10 30v255q0 56 -18 83t-60 27q-25 0 -53.5 -20t-49.5 -55v-6v-284q0 -22 12.5 -29.5t51.5 -8.5v-12h-227z" />
    <glyph glyph-name="n" unicode="n" horiz-adv-x="567" 
d="M21 0v12q43 1 57 8.5t14 29.5v344q0 24 -15.5 36.5t-55.5 13.5v12l174 7v-108q70 111 173 111q60 0 91.5 -35.5t31.5 -104.5v-276q0 -23 14 -30t57 -8v-12h-236v12q35 1 47.5 8.5t12.5 29.5v257q0 56 -18.5 82t-62.5 26q-64 0 -108 -84v-281q0 -22 12.5 -29.5t46.5 -8.5
v-12h-235z" />
    <glyph glyph-name="o" unicode="o" horiz-adv-x="531" 
d="M266 -8q-102 0 -168 65.5t-66 171.5q0 105 68 172.5t166 67.5q100 0 166.5 -65.5t66.5 -170.5t-68 -173t-165 -68zM270 11q57 0 84.5 52.5t27.5 167.5q0 219 -121 219q-57 0 -85 -52t-28 -167q0 -220 122 -220z" />
    <glyph glyph-name="p" unicode="p" horiz-adv-x="546" 
d="M5 -191v12q44 1 57.5 8t13.5 30v535q0 24 -15.5 36.5t-55.5 13.5v12l174 7v-66q72 72 152 72q85 0 133.5 -64.5t48.5 -167.5q0 -106 -58 -175.5t-154 -69.5q-65 0 -120 29v-162q0 -23 18.5 -30t76.5 -8v-12h-271zM284 11q116 0 116 220q0 85 -31 141t-88 56
q-52 0 -100 -50v-291q29 -76 103 -76z" />
    <glyph glyph-name="q" unicode="q" horiz-adv-x="543" 
d="M276 -191v11q53 2 72.5 9.5t19.5 26.5v198q-69 -62 -146 -62q-87 0 -138 63.5t-51 160.5q0 105 61.5 179t160.5 74q79 0 153 -49l53 53h15l-3 -91v-526q0 -19 14.5 -27t57.5 -9v-11h-269zM273 34q46 0 95 41v293q-32 82 -98 82q-61 0 -92 -62.5t-31 -166.5
q0 -82 33.5 -134.5t92.5 -52.5z" />
    <glyph glyph-name="r" unicode="r" horiz-adv-x="414" 
d="M21 0v12q43 1 57 8.5t14 29.5v344q0 24 -15.5 36.5t-55.5 13.5v12l174 7v-101q57 105 135 105q39 0 59.5 -21t20.5 -52q0 -29 -17 -47t-44 -18q-28 0 -45.5 17.5t-17.5 44.5q0 15 6 31q-50 -6 -95 -83v-289q0 -22 17.5 -29t69.5 -9v-12h-263z" />
    <glyph glyph-name="s" unicode="s" horiz-adv-x="417" 
d="M38 -8v166h14q49 -85 85 -116t89 -31q40 0 63 23t23 54q0 35 -27 56.5t-100 42.5q-79 22 -112 51.5t-33 83.5q0 65 46 106t123 41q61 0 113 -31l25 31h11v-149h-14q-47 76 -76 103t-72 27q-35 0 -58 -21.5t-23 -55.5q0 -31 28 -50t89 -35q80 -22 115.5 -53.5t35.5 -88.5
q0 -66 -45 -110t-124 -44q-29 0 -69.5 10.5t-62.5 25.5l-33 -36h-11z" />
    <glyph glyph-name="t" unicode="t" horiz-adv-x="351" 
d="M216 -10q-120 0 -120 133v302h-93v13l93 22v127l105 38v-168h142v-31h-142v-312q0 -45 13.5 -64t44.5 -19q47 0 84 67l12 -8q-49 -100 -139 -100z" />
    <glyph glyph-name="u" unicode="u" 
d="M209 -7q-60 0 -93.5 35.5t-33.5 104.5v265q0 24 -16 36t-57 13v12l178 4v-308q0 -56 18.5 -83.5t62.5 -27.5q63 0 105 82v272q0 24 -15.5 35.5t-56.5 12.5v12l177 5v-414q0 -20 15 -28.5t57 -9.5v-11h-175v102q-65 -109 -166 -109z" />
    <glyph glyph-name="v" unicode="v" horiz-adv-x="490" 
d="M227 -7l-154 381q-16 39 -33.5 55t-53.5 20v12h247v-12q-59 -5 -59 -35q0 -10 6 -28l107 -281h4l91 230q17 44 17 62q0 23 -17 35t-55 17v12h182v-12q-57 -8 -89 -86l-155 -370h-38z" />
    <glyph glyph-name="w" unicode="w" horiz-adv-x="743" 
d="M376 327l-17 47q-14 39 -31 55t-49 20v12h239v-12q-62 -6 -62 -41q0 -8 5 -23l94 -276h4l73 223q16 48 16 65q0 24 -16 35.5t-51 16.5v12h182v-12q-67 -9 -94 -86l-131 -370h-41l-111 305l-125 -305h-39l-148 381q-15 39 -33 55t-54 20v12h245v-12q-61 -6 -61 -40
q0 -9 5 -24l104 -278h4z" />
    <glyph glyph-name="x" unicode="x" horiz-adv-x="509" 
d="M281 274l57 74q66 85 -22 101v12h193v-12q-43 -7 -71 -26.5t-67 -67.5l-78 -97l119 -164q34 -47 52.5 -61.5t50.5 -20.5v-12h-239v12q46 6 52 20.5t-18 46.5l-81 119l-69 -88q-35 -45 -27 -67.5t59 -30.5v-12h-195v12q37 7 64 26t65 65l91 111l-112 154q-34 47 -53 61.5
t-55 19.5v12h239v-12q-43 -6 -47.5 -21t18.5 -45z" />
    <glyph glyph-name="y" unicode="y" horiz-adv-x="492" 
d="M248 -11l-175 385q-18 40 -36 55.5t-54 19.5v12h248v-12q-43 -4 -54 -19.5t3 -43.5l118 -279l89 228q23 60 11.5 83t-66.5 31v12h181v-12q-55 -8 -89 -86l-164 -400q-38 -92 -75.5 -128t-82.5 -36q-35 0 -56.5 20.5t-21.5 50.5q0 25 15 43t42 18q23 0 39.5 -17.5
t16.5 -42.5q0 -31 -22 -50q34 4 63.5 37t63.5 117z" />
    <glyph glyph-name="z" unicode="z" horiz-adv-x="470" 
d="M31 0l-2 13l297 428h-102q-42 0 -76 -30t-82 -113l-15 2l14 161h378l2 -14l-296 -427h113q44 0 78.5 32.5t84.5 117.5l14 -2l-14 -168h-394z" />
    <glyph glyph-name="braceleft" unicode="{" horiz-adv-x="408" 
d="M424 -159q-117 0 -182.5 50t-65.5 142q0 27 9 76.5t9 64.5q0 61 -36.5 91t-131.5 36v16q96 7 132 35t36 88q0 15 -9 62.5t-9 73.5q0 91 64.5 137.5t183.5 50.5v-13q-85 -7 -112 -46.5t-27 -119.5q0 -13 2.5 -51.5t2.5 -62.5q0 -77 -43 -112t-161 -48v-5
q114 -10 159 -47.5t45 -115.5q0 -24 -2.5 -65t-2.5 -54q0 -81 27 -122t112 -47v-14z" />
    <glyph glyph-name="bar" unicode="|" horiz-adv-x="306" 
d="M140 -215v961h26v-961h-26z" />
    <glyph glyph-name="braceright" unicode="}" horiz-adv-x="408" 
d="M-15 -159v14q85 6 112 47t27 122q0 13 -2.5 54t-2.5 65q0 78 45 115.5t159 47.5v5q-119 13 -161.5 48t-42.5 112q0 24 2.5 62.5t2.5 51.5q0 80 -27 119.5t-112 46.5v13q119 -4 183.5 -50.5t64.5 -137.5q0 -26 -9 -73.5t-9 -62.5q0 -60 35.5 -88t131.5 -35v-16
q-95 -6 -131 -36t-36 -91q0 -15 9 -64.5t9 -76.5q0 -92 -65.5 -142t-182.5 -50z" />
    <glyph glyph-name="asciitilde" unicode="~" horiz-adv-x="397" 
d="M45 276q9 68 31.5 98.5t65.5 30.5q25 0 77.5 -26t69.5 -26q31 0 47 60h19q-9 -67 -32.5 -98t-64.5 -31q-25 0 -77.5 26t-69.5 26q-32 0 -47 -60h-19z" />
    <glyph glyph-name="uni00A0" unicode="&#xa0;" horiz-adv-x="187" 
 />
    <glyph glyph-name="exclamdown" unicode="&#xa1;" horiz-adv-x="280" 
d="M138 592q-28 0 -47.5 19t-19.5 47q0 27 20 47t48 20q29 0 48.5 -19.5t19.5 -46.5q0 -28 -20 -47.5t-49 -19.5zM138 -16q-63 0 -63 81q0 41 24.5 195t31.5 255h15q7 -101 31.5 -255t24.5 -195q0 -81 -64 -81z" />
    <glyph glyph-name="cent" unicode="&#xa2;" horiz-adv-x="532" 
d="M281 -86v78q-101 4 -159 68t-58 165q0 99 62 166.5t155 76.5v69h26v-68q81 -1 130.5 -37.5t49.5 -79.5q0 -28 -15.5 -47t-41.5 -19q-30 0 -46 16.5t-16 42.5q0 39 32 59q-10 19 -35 33t-57 14h-1v-417q16 -2 25 -2q79 0 145 82l11 -8q-71 -107 -181 -113v-79h-26z
M178 243q0 -77 26 -131t77 -72v408q-47 -13 -75 -65t-28 -140z" />
    <glyph glyph-name="sterling" unicode="&#xa3;" horiz-adv-x="607" 
d="M460 351v-21h-158q13 -36 13 -70q0 -79 -83 -140q10 -2 55 -13.5t80 -17t74 -5.5q52 0 80.5 25t36.5 90l17 -1q0 -96 -42 -154.5t-113 -58.5q-84 0 -205 111q-38 -111 -110 -111q-27 0 -43.5 16.5t-16.5 39.5q0 36 36 61t95 25q16 0 32 -3q11 23 11 61q0 26 -8 54.5
t-14.5 43t-22.5 47.5h-115v21h105q-31 66 -31 117q0 96 66.5 152t169.5 56q75 0 127 -38t52 -95q0 -31 -17.5 -52t-45.5 -21q-32 0 -51.5 18.5t-19.5 52.5q0 44 47 69q-37 48 -102 48q-52 0 -84.5 -32.5t-32.5 -99.5q0 -24 6 -50t11.5 -41.5t18.5 -44.5t17 -39h165z" />
    <glyph glyph-name="yen" unicode="&#xa5;" horiz-adv-x="689" 
d="M81 309v21h179l-137 237q-22 37 -45.5 54.5t-67.5 27.5v13h317v-13q-36 -2 -56.5 -8.5t-25.5 -18.5t-2 -25.5t13 -33.5l131 -240l104 186q38 67 28 96t-74 44v13h227v-13q-43 -8 -78 -38.5t-70 -92.5l-106 -188h180v-21h-192l-9 -17v-58h201v-21h-201v-132
q0 -33 23 -49.5t89 -18.5v-13h-338v13q66 2 89 18.5t23 49.5v132h-202v21h202v57l-11 18h-191z" />
    <glyph glyph-name="brokenbar" unicode="&#xa6;" horiz-adv-x="306" 
d="M166 337h-26v409h26v-409zM140 194h26v-409h-26v409z" />
    <glyph glyph-name="section" unicode="&#xa7;" 
d="M71 241q0 48 33.5 86t95.5 56v1q-57 25 -85.5 56t-28.5 76q0 72 58 116t147 44q72 0 126 -31.5t54 -77.5q0 -29 -16 -46.5t-42 -17.5q-28 0 -44.5 17t-16.5 41q0 41 38 57q-27 38 -105 38q-54 0 -89 -25t-35 -68q0 -34 36.5 -58t130.5 -59q87 -32 124 -63t37 -87
q0 -100 -116 -140v-1q57 -24 81 -54t24 -79q0 -76 -54 -120.5t-149 -44.5q-86 0 -148 31t-62 87q0 30 16.5 50t47.5 20q29 0 45.5 -17.5t16.5 -43.5q0 -42 -43 -64q15 -19 51 -31t83 -12q58 0 92.5 27t34.5 67q0 37 -34 62.5t-132 58.5q-91 32 -131.5 63t-40.5 86zM345 167
q78 25 78 74q0 34 -31 58.5t-109 52.5q-36 11 -57 21q-85 -24 -85 -81q0 -36 33 -57t130 -54z" />
    <glyph glyph-name="dieresis" unicode="&#xa8;" horiz-adv-x="351" 
d="M268 533q-27 0 -44.5 18t-17.5 45t17.5 46t44.5 19t44.5 -19t17.5 -46t-17.5 -45t-44.5 -18zM83 533q-27 0 -44.5 18t-17.5 45t17.5 46t44.5 19t44 -19t17 -46t-17 -45t-44 -18z" />
    <glyph glyph-name="copyright" unicode="&#xa9;" horiz-adv-x="834" 
d="M417 -34q-162 0 -272.5 110t-110.5 273q0 161 110.5 271.5t272.5 110.5t272.5 -110.5t110.5 -271.5q0 -163 -110.5 -273t-272.5 -110zM417 -17q154 0 258.5 106.5t104.5 259.5t-104.5 259t-258.5 106t-258.5 -106t-104.5 -259t104.5 -259.5t258.5 -106.5zM422 149
q-89 0 -141 51.5t-52 144.5q0 95 59 152.5t146 57.5q59 0 100 -27l21 28h12v-146h-15q-26 67 -55.5 98t-70.5 31q-49 0 -80 -48t-31 -134q0 -87 36.5 -134t89.5 -47q87 0 126 92l15 -7q-47 -112 -160 -112z" />
    <glyph glyph-name="ordfeminine" unicode="&#xaa;" horiz-adv-x="440" 
d="M150 333q-48 0 -74.5 25t-26.5 61q0 55 46 79q33 18 97 30t67 13v58q0 41 -13.5 59.5t-45.5 18.5q-43 0 -61 -18q20 -20 20 -42t-12.5 -35t-35.5 -13q-19 0 -32 14t-13 33q0 34 39 55.5t107 21.5q134 0 134 -112v-175q0 -58 57 -34l4 -10q-43 -27 -76 -27t-48 13.5
t-19 44.5h-3q-53 -60 -111 -60zM197 373q37 0 62 38v113q-70 -13 -93.5 -32t-23.5 -59q0 -60 55 -60z" />
    <glyph glyph-name="guillemotleft" unicode="&#xab;" horiz-adv-x="506" 
d="M447 28l-188 170q-20 19 -20 27t20 26l188 170l12 -9l-129 -187l129 -189zM244 28l-187 170q-21 19 -21 27q0 9 21 26l187 170l12 -9l-129 -187l129 -189z" />
    <glyph glyph-name="registered" unicode="&#xae;" horiz-adv-x="385" 
d="M191 423q-65 0 -109 44t-44 111t43.5 110t109.5 43q68 0 111.5 -43t43.5 -110t-44 -111t-111 -44zM191 435q62 0 101 40.5t39 102.5q0 61 -39 101t-101 40t-100 -39.5t-38 -101.5t38 -102.5t100 -40.5zM175 587h16q20 0 28 8.5t8 28.5q0 17 -8.5 24.5t-30.5 7.5h-13v-69z
M175 579v-59q0 -13 24 -13v-7h-80v7q24 0 24 13v125q0 11 -24 11v8h73q70 0 70 -39q0 -33 -46 -40v-2q22 -2 30.5 -10t10.5 -25l2 -22q1 -19 25 -19v-7q-12 -2 -21 -2q-22 0 -29 6.5t-8 24.5l-1 18q-1 32 -35 32h-15z" />
    <glyph glyph-name="macron" unicode="&#xaf;" horiz-adv-x="321" 
d="M18 558v43h285v-43h-285z" />
    <glyph glyph-name="degree" unicode="&#xb0;" horiz-adv-x="382" 
d="M192 430q-67 0 -108 40t-41 102q0 61 42.5 102.5t105.5 41.5q66 0 106.5 -39.5t40.5 -101.5t-41.5 -103.5t-104.5 -41.5zM193 449q78 0 78 124q0 61 -22 92.5t-61 31.5q-77 0 -77 -123q0 -61 22 -93t60 -32z" />
    <glyph glyph-name="plusminus" unicode="&#xb1;" horiz-adv-x="530" 
d="M59 314v22h194v193h26v-193h192v-22h-192v-196h-26v196h-194zM59 0v22h412v-22h-412z" />
    <glyph glyph-name="acute" unicode="&#xb4;" horiz-adv-x="238" 
d="M50 528l47 127q15 46 28 64t35 18q20 0 33.5 -12.5t13.5 -31.5q0 -24 -52 -76l-92 -89h-13z" />
    <glyph glyph-name="paragraph" unicode="&#xb6;" horiz-adv-x="673" 
d="M371 -100v281q-140 3 -228.5 67t-88.5 174q0 107 84 173.5t231 66.5h265v-12q-73 -4 -95 -15t-22 -42v-693h-26v742h-93v-742h-27z" />
    <glyph glyph-name="periodcentered" unicode="&#xb7;" horiz-adv-x="233" 
d="M117 258q-29 0 -49 19.5t-20 47.5q0 27 20 47t49 20q28 0 47.5 -19.5t19.5 -47.5q0 -27 -19.5 -47t-47.5 -20z" />
    <glyph glyph-name="cedilla" unicode="&#xb8;" horiz-adv-x="282" 
d="M112 -251q-61 0 -103 30l10 16q38 -24 78 -24q57 0 57 55q0 26 -21 41t-55 15q-20 0 -37 -5l-6 9l122 111h26l-72 -68l2 -3q57 -1 86 -26t29 -61q0 -39 -32.5 -64.5t-83.5 -25.5z" />
    <glyph glyph-name="ordmasculine" unicode="&#xba;" horiz-adv-x="450" 
d="M226 333q-81 0 -131.5 48.5t-50.5 129.5q0 80 51.5 131t130.5 51q80 0 130 -49t50 -130q0 -80 -51.5 -130.5t-128.5 -50.5zM229 349q43 0 62.5 39.5t19.5 124.5q0 163 -89 163q-44 0 -63 -38.5t-19 -124.5q0 -164 89 -164z" />
    <glyph glyph-name="guillemotright" unicode="&#xbb;" horiz-adv-x="506" 
d="M261 28l-12 9l130 187l-130 189l12 8l188 -170q20 -19 20 -27t-20 -26zM59 28l-12 9l129 187l-129 189l12 8l187 -170q21 -19 21 -27t-21 -26z" />
    <glyph glyph-name="questiondown" unicode="&#xbf;" horiz-adv-x="481" 
d="M273 591q-28 0 -48 19.5t-20 46.5q0 28 20 47.5t48 19.5q29 0 48.5 -19.5t19.5 -46.5q0 -28 -20 -47.5t-48 -19.5zM250 -16q-106 0 -168.5 51.5t-62.5 125.5q0 153 243 207v146h27v-159q-89 -24 -121 -68t-32 -126q0 -159 129 -159q39 0 70.5 16.5t46.5 41.5
q-60 16 -60 73q0 29 18.5 50.5t51.5 21.5q32 0 53 -22t21 -55q0 -63 -62 -103.5t-154 -40.5z" />
    <glyph glyph-name="Agrave" unicode="&#xc0;" horiz-adv-x="686" 
d="M471 95l-60 172h-236l-34 -87q-33 -89 -19.5 -122.5t82.5 -44.5v-13h-234v13q50 14 81.5 49.5t62.5 115.5l213 539h42l224 -608q19 -53 40 -70.5t77 -25.5v-13h-328v13q69 4 86.5 21.5t2.5 60.5zM182 287h222l-104 295h-4zM377 768l-93 89q-51 51 -51 76q0 19 13.5 31.5
t33.5 12.5q22 0 35 -18t28 -64l47 -127h-13z" />
    <glyph glyph-name="Aacute" unicode="&#xc1;" horiz-adv-x="686" 
d="M471 95l-60 172h-236l-34 -87q-33 -89 -19.5 -122.5t82.5 -44.5v-13h-234v13q50 14 81.5 49.5t62.5 115.5l213 539h42l224 -608q19 -53 40 -70.5t77 -25.5v-13h-328v13q69 4 86.5 21.5t2.5 60.5zM182 287h222l-104 295h-4zM311 768l47 127q15 46 28 64t35 18
q20 0 33.5 -12.5t13.5 -31.5q0 -24 -52 -76l-92 -89h-13z" />
    <glyph glyph-name="Acircumflex" unicode="&#xc2;" horiz-adv-x="686" 
d="M471 95l-60 172h-236l-34 -87q-33 -89 -19.5 -122.5t82.5 -44.5v-13h-234v13q50 14 81.5 49.5t62.5 115.5l213 539h42l224 -608q19 -53 40 -70.5t77 -25.5v-13h-328v13q69 4 86.5 21.5t2.5 60.5zM182 287h222l-104 295h-4zM206 765l136 192h13l127 -192h-16l-121 93
l-123 -93h-16z" />
    <glyph glyph-name="Atilde" unicode="&#xc3;" horiz-adv-x="686" 
d="M471 95l-60 172h-236l-34 -87q-33 -89 -19.5 -122.5t82.5 -44.5v-13h-234v13q50 14 81.5 49.5t62.5 115.5l213 539h42l224 -608q19 -53 40 -70.5t77 -25.5v-13h-328v13q69 4 86.5 21.5t2.5 60.5zM182 287h222l-104 295h-4zM185 766q8 67 31 98t65 31q25 0 81 -25t73 -25
q34 0 50 60h16q-9 -66 -32 -97.5t-64 -31.5q-25 0 -81 25t-73 25q-34 0 -50 -60h-16z" />
    <glyph glyph-name="Adieresis" unicode="&#xc4;" horiz-adv-x="686" 
d="M471 95l-60 172h-236l-34 -87q-33 -89 -19.5 -122.5t82.5 -44.5v-13h-234v13q50 14 81.5 49.5t62.5 115.5l213 539h42l224 -608q19 -53 40 -70.5t77 -25.5v-13h-328v13q69 4 86.5 21.5t2.5 60.5zM182 287h222l-104 295h-4zM437 773q-27 0 -44.5 18t-17.5 45t17.5 46
t44.5 19t44.5 -19t17.5 -46t-17.5 -45t-44.5 -18zM252 773q-27 0 -44.5 18t-17.5 45t17.5 46t44.5 19t44 -19t17 -46t-17 -45t-44 -18z" />
    <glyph glyph-name="Aring" unicode="&#xc5;" horiz-adv-x="686" 
d="M346 713q55 0 55 89q0 88 -56 88q-55 0 -55 -88q0 -42 14.5 -65.5t41.5 -23.5zM175 267l-34 -87q-33 -89 -19.5 -122.5t82.5 -44.5v-13h-234v13q50 14 81.5 49.5t62.5 115.5l206 522q-40 7 -63.5 35t-23.5 67q0 44 31 74t82 30t81.5 -29.5t30.5 -74.5q0 -37 -22.5 -65.5
t-60.5 -35.5l218 -592q19 -53 40 -70.5t77 -25.5v-13h-328v13q69 4 86.5 21.5t2.5 60.5l-60 172h-236zM404 287l-104 295h-4l-114 -295h222z" />
    <glyph glyph-name="AE" unicode="&#xc6;" horiz-adv-x="1038" 
d="M240 280l-77 -121q-39 -61 -39 -93q0 -40 66 -53v-13h-232v13q95 23 186 164l272 422q14 23 14 38q0 35 -109 48v12h634l3 -225l-14 -2q-47 115 -92.5 161.5t-130.5 46.5h-120v-307h54q64 0 98.5 29.5t54.5 107.5h13v-293h-13q-20 78 -54.5 107.5t-98.5 29.5h-54v-333
h118q100 0 152.5 49t101.5 171l14 -1l-5 -238h-607v13q62 2 85.5 17.5t23.5 48.5v201h-244zM484 300v360h-4l-228 -360h232z" />
    <glyph glyph-name="Ccedilla" unicode="&#xc7;" horiz-adv-x="712" 
d="M386 -17q-154 0 -248 97t-94 258q0 164 105.5 270t259.5 106q100 0 180 -41l44 47h10v-243h-13q-42 109 -99 163.5t-135 54.5q-96 0 -158 -88t-62 -258q0 -163 72.5 -245.5t173.5 -82.5q82 0 143 45.5t96 122.5l17 -9q-35 -79 -100 -133.5t-164 -62.5l-58 -55l2 -3
q57 -1 86 -26t29 -61q0 -39 -32.5 -64.5t-83.5 -25.5q-61 0 -103 30l10 16q38 -24 78 -24q57 0 57 55q0 26 -21 41t-55 15q-19 0 -37 -5l-6 9z" />
    <glyph glyph-name="Egrave" unicode="&#xc8;" horiz-adv-x="696" 
d="M33 0v13q62 2 85.5 17.5t23.5 48.5v540q0 32 -23.5 48t-85.5 18v12h580l3 -225l-14 -2q-47 115 -92.5 161.5t-130.5 46.5h-120v-307h54q64 0 99 30t55 107h13v-293h-13q-20 77 -55 107t-99 30h-54v-333h118q100 0 152.5 49t101.5 171l14 -1l-5 -238h-607zM393 768l-93 89
q-51 51 -51 76q0 19 13.5 31.5t33.5 12.5q22 0 35 -18t28 -64l47 -127h-13z" />
    <glyph glyph-name="Eacute" unicode="&#xc9;" horiz-adv-x="696" 
d="M328 768l47 127q15 46 28 64t35 18q20 0 33.5 -12.5t13.5 -31.5q0 -24 -52 -76l-92 -89h-13zM33 0v13q62 2 85.5 17.5t23.5 48.5v540q0 32 -23.5 48t-85.5 18v12h580l3 -225l-14 -2q-47 115 -92.5 161.5t-130.5 46.5h-120v-307h54q64 0 99 30t55 107h13v-293h-13
q-20 77 -55 107t-99 30h-54v-333h118q100 0 152.5 49t101.5 171l14 -1l-5 -238h-607z" />
    <glyph glyph-name="Ecircumflex" unicode="&#xca;" horiz-adv-x="696" 
d="M204 768l136 192h13l127 -192h-16l-121 93l-123 -93h-16zM33 0v13q62 2 85.5 17.5t23.5 48.5v540q0 32 -23.5 48t-85.5 18v12h580l3 -225l-14 -2q-47 115 -92.5 161.5t-130.5 46.5h-120v-307h54q64 0 99 30t55 107h13v-293h-13q-20 77 -55 107t-99 30h-54v-333h118
q100 0 152.5 49t101.5 171l14 -1l-5 -238h-607z" />
    <glyph glyph-name="Edieresis" unicode="&#xcb;" horiz-adv-x="696" 
d="M449 773q-27 0 -44.5 18t-17.5 45t17.5 46t44.5 19t44.5 -19t17.5 -46t-17.5 -45t-44.5 -18zM264 773q-27 0 -44.5 18t-17.5 45t17.5 46t44.5 19t44 -19t17 -46t-17 -45t-44 -18zM33 0v13q62 2 85.5 17.5t23.5 48.5v540q0 32 -23.5 48t-85.5 18v12h580l3 -225l-14 -2
q-47 115 -92.5 161.5t-130.5 46.5h-120v-307h54q64 0 99 30t55 107h13v-293h-13q-20 77 -55 107t-99 30h-54v-333h118q100 0 152.5 49t101.5 171l14 -1l-5 -238h-607z" />
    <glyph glyph-name="Igrave" unicode="&#xcc;" horiz-adv-x="420" 
d="M40 0v13q65 2 88.5 17.5t23.5 48.5v540q0 32 -23.5 48t-88.5 18v12h340v-12q-65 -2 -88.5 -18t-23.5 -48v-540q0 -33 23.5 -48.5t88.5 -17.5v-13h-340zM251 768l-93 89q-51 51 -51 76q0 19 13.5 31.5t33.5 12.5q22 0 35 -18t28 -64l47 -127h-13z" />
    <glyph glyph-name="Iacute" unicode="&#xcd;" horiz-adv-x="420" 
d="M40 0v13q65 2 88.5 17.5t23.5 48.5v540q0 32 -23.5 48t-88.5 18v12h340v-12q-65 -2 -88.5 -18t-23.5 -48v-540q0 -33 23.5 -48.5t88.5 -17.5v-13h-340zM179 768l47 127q15 46 28 64t35 18q20 0 33.5 -12.5t13.5 -31.5q0 -24 -52 -76l-92 -89h-13z" />
    <glyph glyph-name="Icircumflex" unicode="&#xce;" horiz-adv-x="420" 
d="M40 0v13q65 2 88.5 17.5t23.5 48.5v540q0 32 -23.5 48t-88.5 18v12h340v-12q-65 -2 -88.5 -18t-23.5 -48v-540q0 -33 23.5 -48.5t88.5 -17.5v-13h-340zM72 768l136 192h13l127 -192h-16l-121 93l-123 -93h-16z" />
    <glyph glyph-name="Idieresis" unicode="&#xcf;" horiz-adv-x="420" 
d="M40 0v13q65 2 88.5 17.5t23.5 48.5v540q0 32 -23.5 48t-88.5 18v12h340v-12q-65 -2 -88.5 -18t-23.5 -48v-540q0 -33 23.5 -48.5t88.5 -17.5v-13h-340zM304 773q-27 0 -44.5 18t-17.5 45t17.5 46t44.5 19t44.5 -19t17.5 -46t-17.5 -45t-44.5 -18zM119 773q-27 0 -44.5 18
t-17.5 45t17.5 46t44.5 19t44 -19t17 -46t-17 -45t-44 -18z" />
    <glyph glyph-name="Eth" unicode="&#xd0;" horiz-adv-x="767" 
d="M33 0v13q62 2 85.5 17.5t23.5 48.5v271h-103v26h103v243q0 32 -23.5 48t-85.5 18v12h313q180 0 278.5 -93.5t98.5 -242.5q0 -71 -21.5 -134.5t-64.5 -115t-115 -81.5t-164 -30h-325zM259 19h67q151 0 208 71t57 263q0 97 -16 160.5t-50 99.5t-80.5 50.5t-115.5 14.5h-70
v-302h137v-26h-137v-331z" />
    <glyph glyph-name="Ntilde" unicode="&#xd1;" horiz-adv-x="795" 
d="M635 -15l-455 599h-1v-417q0 -76 26.5 -110t101.5 -44v-13h-274v13q69 11 95.5 45t26.5 109v402q0 50 -30.5 81.5t-91.5 34.5v12h213l397 -528h1v362q0 74 -30 109t-104 45v12h275v-12q-69 -12 -93 -45t-24 -109v-546h-33zM267 766q8 67 31 98t65 31q25 0 81 -25t73 -25
q34 0 50 60h16q-9 -66 -32 -97.5t-64 -31.5q-25 0 -81 25t-73 25q-34 0 -50 -60h-16z" />
    <glyph glyph-name="Ograve" unicode="&#xd2;" horiz-adv-x="766" 
d="M383 -17q-143 0 -241 101t-98 263q0 161 100 264t239 103q142 0 240 -101t98 -263q0 -161 -100 -264t-238 -103zM387 2q99 0 150.5 80t51.5 266t-55 266.5t-156 80.5q-98 0 -149.5 -79.5t-51.5 -266.5t55 -267t155 -80zM413 768l-93 89q-51 51 -51 76q0 19 13.5 31.5
t33.5 12.5q22 0 35 -18t28 -64l47 -127h-13z" />
    <glyph glyph-name="Oacute" unicode="&#xd3;" horiz-adv-x="766" 
d="M348 768l47 127q15 46 28 64t35 18q20 0 33.5 -12.5t13.5 -31.5q0 -24 -52 -76l-92 -89h-13zM383 -17q-143 0 -241 101t-98 263q0 161 100 264t239 103q142 0 240 -101t98 -263q0 -161 -100 -264t-238 -103zM387 2q99 0 150.5 80t51.5 266t-55 266.5t-156 80.5
q-98 0 -149.5 -79.5t-51.5 -266.5t55 -267t155 -80z" />
    <glyph glyph-name="Ocircumflex" unicode="&#xd4;" horiz-adv-x="766" 
d="M245 768l136 192h13l127 -192h-16l-121 93l-123 -93h-16zM383 -17q-143 0 -241 101t-98 263q0 161 100 264t239 103q142 0 240 -101t98 -263q0 -161 -100 -264t-238 -103zM387 2q99 0 150.5 80t51.5 266t-55 266.5t-156 80.5q-98 0 -149.5 -79.5t-51.5 -266.5t55 -267
t155 -80z" />
    <glyph glyph-name="Otilde" unicode="&#xd5;" horiz-adv-x="766" 
d="M383 -17q-143 0 -241 101t-98 263q0 161 100 264t239 103q142 0 240 -101t98 -263q0 -161 -100 -264t-238 -103zM387 2q99 0 150.5 80t51.5 266t-55 266.5t-156 80.5q-98 0 -149.5 -79.5t-51.5 -266.5t55 -267t155 -80zM238 766q8 67 31 98t65 31q25 0 81 -25t73 -25
q34 0 50 60h16q-9 -66 -32 -97.5t-64 -31.5q-25 0 -81 25t-73 25q-34 0 -50 -60h-16z" />
    <glyph glyph-name="Odieresis" unicode="&#xd6;" horiz-adv-x="766" 
d="M475 773q-27 0 -44.5 18t-17.5 45t17.5 46t44.5 19t44.5 -19t17.5 -46t-17.5 -45t-44.5 -18zM290 773q-27 0 -44.5 18t-17.5 45t17.5 46t44.5 19t44 -19t17 -46t-17 -45t-44 -18zM383 -17q-143 0 -241 101t-98 263q0 161 100 264t239 103q142 0 240 -101t98 -263
q0 -161 -100 -264t-238 -103zM387 2q99 0 150.5 80t51.5 266t-55 266.5t-156 80.5q-98 0 -149.5 -79.5t-51.5 -266.5t55 -267t155 -80z" />
    <glyph glyph-name="multiply" unicode="&#xd7;" horiz-adv-x="556" 
d="M456 519l17 -17l-178 -178l178 -178l-17 -17l-178 178l-178 -178l-17 17l178 178l-178 178l17 17l178 -178z" />
    <glyph glyph-name="Oslash" unicode="&#xd8;" horiz-adv-x="766" 
d="M383 -17q-127 0 -217 78l-78 -97h-34l93 115q-103 101 -103 268q0 161 100 264t239 103q124 0 216 -78l79 97h34l-94 -116q103 -103 103 -267q0 -161 -100 -264t-238 -103zM387 2q99 0 150.5 80t51.5 266q0 125 -26 203l-350 -433q50 -116 174 -116zM378 695
q-98 0 -149.5 -79.5t-51.5 -266.5q0 -123 25 -203l350 432q-50 117 -174 117z" />
    <glyph glyph-name="Ugrave" unicode="&#xd9;" horiz-adv-x="790" 
d="M403 -17q-131 0 -201.5 56t-70.5 164v416q0 32 -23.5 48t-85.5 18v12h327v-12q-61 -2 -81 -17t-20 -49v-404q0 -198 203 -198q82 0 128 46q56 56 56 162v306q0 74 -29.5 109t-104.5 45v12h276v-12q-69 -12 -93 -45t-24 -109v-314q0 -109 -64 -171.5t-193 -62.5zM443 768
l-93 89q-51 51 -51 76q0 19 13.5 31.5t33.5 12.5q22 0 35 -18t28 -64l47 -127h-13z" />
    <glyph glyph-name="Uacute" unicode="&#xda;" horiz-adv-x="790" 
d="M390 768l47 127q15 46 28 64t35 18q20 0 33.5 -12.5t13.5 -31.5q0 -24 -52 -76l-92 -89h-13zM403 -17q-131 0 -201.5 56t-70.5 164v416q0 32 -23.5 48t-85.5 18v12h327v-12q-61 -2 -81 -17t-20 -49v-404q0 -198 203 -198q82 0 128 46q56 56 56 162v306q0 74 -29.5 109
t-104.5 45v12h276v-12q-69 -12 -93 -45t-24 -109v-314q0 -109 -64 -171.5t-193 -62.5z" />
    <glyph glyph-name="Ucircumflex" unicode="&#xdb;" horiz-adv-x="790" 
d="M293 768l136 192h13l127 -192h-16l-121 93l-123 -93h-16zM403 -17q-131 0 -201.5 56t-70.5 164v416q0 32 -23.5 48t-85.5 18v12h327v-12q-61 -2 -81 -17t-20 -49v-404q0 -198 203 -198q82 0 128 46q56 56 56 162v306q0 74 -29.5 109t-104.5 45v12h276v-12
q-69 -12 -93 -45t-24 -109v-314q0 -109 -64 -171.5t-193 -62.5z" />
    <glyph glyph-name="Udieresis" unicode="&#xdc;" horiz-adv-x="790" 
d="M509 773q-27 0 -44.5 18t-17.5 45t17.5 46t44.5 19t44.5 -19t17.5 -46t-17.5 -45t-44.5 -18zM324 773q-27 0 -44.5 18t-17.5 45t17.5 46t44.5 19t44 -19t17 -46t-17 -45t-44 -18zM403 -17q-131 0 -201.5 56t-70.5 164v416q0 32 -23.5 48t-85.5 18v12h327v-12
q-61 -2 -81 -17t-20 -49v-404q0 -198 203 -198q82 0 128 46q56 56 56 162v306q0 74 -29.5 109t-104.5 45v12h276v-12q-69 -12 -93 -45t-24 -109v-314q0 -109 -64 -171.5t-193 -62.5z" />
    <glyph glyph-name="Yacute" unicode="&#xdd;" horiz-adv-x="677" 
d="M386 333l130 228q37 60 27.5 85.5t-77.5 38.5v12h231v-12q-52 -9 -85 -37t-76 -102l-137 -235v-232q0 -33 23.5 -48.5t88.5 -17.5v-13h-340v13q66 2 89 17.5t23 48.5v212l-176 311q-23 39 -46 56t-68 27v12h322v-12q-71 -4 -86 -25.5t11 -61.5zM356 768l47 127
q15 46 28 64t35 18q20 0 33.5 -12.5t13.5 -31.5q0 -24 -52 -76l-92 -89h-13z" />
    <glyph glyph-name="Thorn" unicode="&#xde;" horiz-adv-x="656" 
d="M33 0v13q62 2 85.5 17.5t23.5 48.5v540q0 33 -23.5 48.5t-85.5 17.5v12h342v-12q-68 -2 -92 -17t-24 -50v-66h71q289 0 289 -192q0 -85 -70 -141.5t-224 -56.5h-66v-83q0 -34 24 -49t92 -17v-13h-342zM259 181h67q97 0 131.5 42.5t34.5 135.5q0 83 -35.5 128.5
t-126.5 45.5h-71v-352z" />
    <glyph glyph-name="germandbls" unicode="&#xdf;" horiz-adv-x="591" 
d="M412 -8q-59 0 -101.5 26t-42.5 69q0 23 14 39t38 16q23 0 36 -15t13 -36q0 -29 -34 -50q22 -31 81 -31q39 0 60.5 22.5t21.5 59.5q0 35 -24.5 60.5t-74.5 51.5q-58 31 -84.5 59.5t-26.5 71.5q0 25 14.5 47.5t47.5 54.5q34 31 45 59.5t11 81.5q0 127 -102 127
q-52 0 -74.5 -32.5t-22.5 -112.5v-560h-176v12q43 1 57 8.5t14 29.5v375h-86v13l86 22v40q0 108 53.5 165.5t157.5 57.5q93 0 144 -37t51 -96q0 -36 -23.5 -65t-81.5 -72q-28 -19 -38 -34t-10 -35q0 -15 6.5 -27.5t25 -26.5t27 -19.5t37.5 -22.5q39 -22 61 -37.5t41 -44.5
t19 -64q0 -59 -43.5 -104.5t-116.5 -45.5z" />
    <glyph glyph-name="agrave" unicode="&#xe0;" horiz-adv-x="491" 
d="M168 -6q-63 0 -95.5 32.5t-32.5 78.5q0 68 60 101q44 24 127.5 40.5t86.5 17.5v72q0 57 -19 84t-62 27q-54 0 -83 -29q27 -25 27 -54q0 -27 -15.5 -43t-44.5 -16q-26 0 -42 17t-16 42q0 45 51 73.5t135 28.5q173 0 173 -147v-233q0 -39 16 -50.5t60 4.5l4 -10
q-54 -34 -96 -34q-41 0 -59.5 18t-23.5 59h-4q-68 -79 -147 -79zM226 40q48 0 88 56v149q-97 -19 -129.5 -45t-32.5 -78q0 -38 18.5 -60t55.5 -22zM261 528l-93 89q-51 51 -51 76q0 19 13.5 31.5t33.5 12.5q22 0 35 -18t28 -64l47 -127h-13z" />
    <glyph glyph-name="aacute" unicode="&#xe1;" horiz-adv-x="491" 
d="M168 -6q-63 0 -95.5 32.5t-32.5 78.5q0 68 60 101q44 24 127.5 40.5t86.5 17.5v72q0 57 -19 84t-62 27q-54 0 -83 -29q27 -25 27 -54q0 -27 -15.5 -43t-44.5 -16q-26 0 -42 17t-16 42q0 45 51 73.5t135 28.5q173 0 173 -147v-233q0 -39 16 -50.5t60 4.5l4 -10
q-54 -34 -96 -34q-41 0 -59.5 18t-23.5 59h-4q-68 -79 -147 -79zM226 40q48 0 88 56v149q-97 -19 -129.5 -45t-32.5 -78q0 -38 18.5 -60t55.5 -22zM218 528l47 127q15 46 28 64t35 18q20 0 33.5 -12.5t13.5 -31.5q0 -24 -52 -76l-92 -89h-13z" />
    <glyph glyph-name="acircumflex" unicode="&#xe2;" horiz-adv-x="491" 
d="M168 -6q-63 0 -95.5 32.5t-32.5 78.5q0 68 60 101q44 24 127.5 40.5t86.5 17.5v72q0 57 -19 84t-62 27q-54 0 -83 -29q27 -25 27 -54q0 -27 -15.5 -43t-44.5 -16q-26 0 -42 17t-16 42q0 45 51 73.5t135 28.5q173 0 173 -147v-233q0 -39 16 -50.5t60 4.5l4 -10
q-54 -34 -96 -34q-41 0 -59.5 18t-23.5 59h-4q-68 -79 -147 -79zM226 40q48 0 88 56v149q-97 -19 -129.5 -45t-32.5 -78q0 -38 18.5 -60t55.5 -22zM112 528l136 192h13l127 -192h-16l-121 93l-123 -93h-16z" />
    <glyph glyph-name="atilde" unicode="&#xe3;" horiz-adv-x="491" 
d="M168 -6q-63 0 -95.5 32.5t-32.5 78.5q0 68 60 101q44 24 127.5 40.5t86.5 17.5v72q0 57 -19 84t-62 27q-54 0 -83 -29q27 -25 27 -54q0 -27 -15.5 -43t-44.5 -16q-26 0 -42 17t-16 42q0 45 51 73.5t135 28.5q173 0 173 -147v-233q0 -39 16 -50.5t60 4.5l4 -10
q-54 -34 -96 -34q-41 0 -59.5 18t-23.5 59h-4q-68 -79 -147 -79zM226 40q48 0 88 56v149q-97 -19 -129.5 -45t-32.5 -78q0 -38 18.5 -60t55.5 -22zM95 526q8 67 31 98t65 31q25 0 81 -25t73 -25q34 0 50 60h16q-9 -66 -32 -97.5t-64 -31.5q-25 0 -81 25t-73 25
q-34 0 -50 -60h-16z" />
    <glyph glyph-name="adieresis" unicode="&#xe4;" horiz-adv-x="491" 
d="M168 -6q-63 0 -95.5 32.5t-32.5 78.5q0 68 60 101q44 24 127.5 40.5t86.5 17.5v72q0 57 -19 84t-62 27q-54 0 -83 -29q27 -25 27 -54q0 -27 -15.5 -43t-44.5 -16q-26 0 -42 17t-16 42q0 45 51 73.5t135 28.5q173 0 173 -147v-233q0 -39 16 -50.5t60 4.5l4 -10
q-54 -34 -96 -34q-41 0 -59.5 18t-23.5 59h-4q-68 -79 -147 -79zM226 40q48 0 88 56v149q-97 -19 -129.5 -45t-32.5 -78q0 -38 18.5 -60t55.5 -22zM344 533q-27 0 -44.5 18t-17.5 45t17.5 46t44.5 19t44.5 -19t17.5 -46t-17.5 -45t-44.5 -18zM159 533q-27 0 -44.5 18
t-17.5 45t17.5 46t44.5 19t44 -19t17 -46t-17 -45t-44 -18z" />
    <glyph glyph-name="aring" unicode="&#xe5;" horiz-adv-x="491" 
d="M168 -6q-63 0 -95.5 32.5t-32.5 78.5q0 68 60 101q44 24 127.5 40.5t86.5 17.5v72q0 57 -19 84t-62 27q-54 0 -83 -29q27 -25 27 -54q0 -27 -15.5 -43t-44.5 -16q-26 0 -42 17t-16 42q0 45 51 73.5t135 28.5q173 0 173 -147v-233q0 -39 16 -50.5t60 4.5l4 -10
q-54 -34 -96 -34q-41 0 -59.5 18t-23.5 59h-4q-68 -79 -147 -79zM226 40q48 0 88 56v149q-97 -19 -129.5 -45t-32.5 -78q0 -38 18.5 -60t55.5 -22zM250 533q-51 0 -82 30t-31 75q0 44 31 74t82 30t81.5 -29.5t30.5 -74.5t-30.5 -75t-81.5 -30zM250 550q55 0 55 88
q0 87 -56 87q-55 0 -55 -87q0 -42 14.5 -65t41.5 -23z" />
    <glyph glyph-name="ae" unicode="&#xe6;" horiz-adv-x="766" 
d="M540 469q98 0 149.5 -60.5t45.5 -152.5h-307v-23v-2q0 -90 40.5 -144.5t116.5 -54.5q44 0 75.5 20.5t65.5 64.5l11 -8q-72 -117 -197 -117q-66 0 -115.5 29t-73.5 82h-4q-27 -47 -75.5 -78t-104.5 -31q-62 0 -94.5 32.5t-32.5 78.5q0 68 60 101q43 24 132 40.5t92 17.5
v72q0 111 -91 111q-54 0 -83 -29q27 -25 27 -54q0 -27 -15.5 -43t-44.5 -16q-26 0 -42 17t-16 42q0 45 51 73.5t135 28.5q107 0 146 -61q62 64 149 64zM533 450q-93 0 -104 -176h194q16 176 -90 176zM226 40q27 0 56 18t42 44v142q-100 -19 -136 -45t-36 -77q0 -38 18.5 -60
t55.5 -22z" />
    <glyph glyph-name="ccedilla" unicode="&#xe7;" horiz-adv-x="464" 
d="M235 -251q-61 0 -103 30l10 16q38 -24 78 -24q57 0 57 55q0 26 -21 41t-55 15q-19 0 -37 -5l-6 9l118 107q-4 0 -12.5 -0.5t-12.5 -0.5q-99 0 -159 64t-60 166q0 109 69 178t172 69q80 0 124.5 -34t44.5 -74q0 -28 -15.5 -46t-41.5 -18q-30 0 -47 16.5t-17 42.5
q0 42 32 59q-28 36 -77 36q-57 0 -93.5 -57t-36.5 -154q0 -91 39.5 -149.5t114.5 -58.5q76 0 140 79l11 -8q-61 -88 -147 -106h2l-72 -68l2 -3q57 -1 86 -26t29 -61q0 -39 -32.5 -64.5t-83.5 -25.5z" />
    <glyph glyph-name="egrave" unicode="&#xe8;" horiz-adv-x="484" 
d="M258 -8q-100 0 -163 64.5t-63 168.5q0 105 66.5 174.5t159.5 69.5q98 0 149.5 -60.5t45.5 -152.5h-307v-23v-2q0 -90 40.5 -144.5t116.5 -54.5q44 0 75.5 20.5t65.5 64.5l11 -8q-72 -117 -197 -117zM251 450q-93 0 -104 -176h194q16 176 -90 176zM271 528l-93 89
q-51 51 -51 76q0 19 13.5 31.5t33.5 12.5q22 0 35 -18t28 -64l47 -127h-13z" />
    <glyph glyph-name="eacute" unicode="&#xe9;" horiz-adv-x="484" 
d="M258 -8q-100 0 -163 64.5t-63 168.5q0 105 66.5 174.5t159.5 69.5q98 0 149.5 -60.5t45.5 -152.5h-307v-23v-2q0 -90 40.5 -144.5t116.5 -54.5q44 0 75.5 20.5t65.5 64.5l11 -8q-72 -117 -197 -117zM251 450q-93 0 -104 -176h194q16 176 -90 176zM225 528l47 127
q15 46 28 64t35 18q20 0 33.5 -12.5t13.5 -31.5q0 -24 -52 -76l-92 -89h-13z" />
    <glyph glyph-name="ecircumflex" unicode="&#xea;" horiz-adv-x="484" 
d="M258 -8q-100 0 -163 64.5t-63 168.5q0 105 66.5 174.5t159.5 69.5q98 0 149.5 -60.5t45.5 -152.5h-307v-23v-2q0 -90 40.5 -144.5t116.5 -54.5q44 0 75.5 20.5t65.5 64.5l11 -8q-72 -117 -197 -117zM251 450q-93 0 -104 -176h194q16 176 -90 176zM117 528l136 192h13
l127 -192h-16l-121 93l-123 -93h-16z" />
    <glyph glyph-name="edieresis" unicode="&#xeb;" horiz-adv-x="484" 
d="M258 -8q-100 0 -163 64.5t-63 168.5q0 105 66.5 174.5t159.5 69.5q98 0 149.5 -60.5t45.5 -152.5h-307v-23v-2q0 -90 40.5 -144.5t116.5 -54.5q44 0 75.5 20.5t65.5 64.5l11 -8q-72 -117 -197 -117zM251 450q-93 0 -104 -176h194q16 176 -90 176zM348 533q-27 0 -44.5 18
t-17.5 45t17.5 46t44.5 19t44.5 -19t17.5 -46t-17.5 -45t-44.5 -18zM163 533q-27 0 -44.5 18t-17.5 45t17.5 46t44.5 19t44 -19t17 -46t-17 -45t-44 -18z" />
    <glyph glyph-name="igrave" unicode="&#xec;" horiz-adv-x="292" 
d="M24 0v12q44 1 58.5 8.5t14.5 29.5v344q0 24 -16 36.5t-57 13.5v12l178 7v-413q0 -23 14 -30t59 -8v-12h-251zM154 528l-93 89q-51 51 -51 76q0 19 13.5 31.5t33.5 12.5q22 0 35 -18t28 -64l47 -127h-13z" />
    <glyph glyph-name="iacute" unicode="&#xed;" horiz-adv-x="292" 
d="M101 528l47 127q15 46 28 64t35 18q20 0 33.5 -12.5t13.5 -31.5q0 -24 -52 -76l-92 -89h-13zM24 0v12q44 1 58.5 8.5t14.5 29.5v344q0 24 -16 36.5t-57 13.5v12l178 7v-413q0 -23 14 -30t59 -8v-12h-251z" />
    <glyph glyph-name="icircumflex" unicode="&#xee;" horiz-adv-x="292" 
d="M-4 528l136 192h13l127 -192h-16l-121 93l-123 -93h-16zM24 0v12q44 1 58.5 8.5t14.5 29.5v344q0 24 -16 36.5t-57 13.5v12l178 7v-413q0 -23 14 -30t59 -8v-12h-251z" />
    <glyph glyph-name="idieresis" unicode="&#xef;" horiz-adv-x="292" 
d="M230 533q-27 0 -44.5 18t-17.5 45t17.5 46t44.5 19t44.5 -19t17.5 -46t-17.5 -45t-44.5 -18zM45 533q-27 0 -44.5 18t-17.5 45t17.5 46t44.5 19t44 -19t17 -46t-17 -45t-44 -18zM24 0v12q44 1 58.5 8.5t14.5 29.5v344q0 24 -16 36.5t-57 13.5v12l178 7v-413q0 -23 14 -30
t59 -8v-12h-251z" />
    <glyph glyph-name="eth" unicode="&#xf0;" horiz-adv-x="534" 
d="M442 659l-87 -42q143 -118 143 -307q0 -149 -63.5 -233.5t-177.5 -84.5q-89 0 -155 66.5t-66 166.5q0 102 68.5 172.5t153.5 70.5q78 0 114 -61l4 2q-13 104 -78 181l-122 -59l-8 18l117 56q-57 61 -144 100l6 14q112 -30 190 -89l97 47zM274 11q107 0 107 238
q0 201 -109 201q-55 0 -87 -55.5t-32 -165.5q0 -102 31 -160t90 -58z" />
    <glyph glyph-name="ntilde" unicode="&#xf1;" horiz-adv-x="567" 
d="M21 0v12q43 1 57 8.5t14 29.5v344q0 24 -15.5 36.5t-55.5 13.5v12l174 7v-108q70 111 173 111q60 0 91.5 -35.5t31.5 -104.5v-276q0 -23 14 -30t57 -8v-12h-236v12q35 1 47.5 8.5t12.5 29.5v257q0 56 -18.5 82t-62.5 26q-64 0 -108 -84v-281q0 -22 12.5 -29.5t46.5 -8.5
v-12h-235zM125 526q8 67 31 98t65 31q25 0 81 -25t73 -25q34 0 50 60h16q-9 -66 -32 -97.5t-64 -31.5q-25 0 -81 25t-73 25q-34 0 -50 -60h-16z" />
    <glyph glyph-name="ograve" unicode="&#xf2;" horiz-adv-x="531" 
d="M266 -8q-102 0 -168 65.5t-66 171.5q0 105 68 172.5t166 67.5q100 0 166.5 -65.5t66.5 -170.5t-68 -173t-165 -68zM270 11q57 0 84.5 52.5t27.5 167.5q0 219 -121 219q-57 0 -85 -52t-28 -167q0 -220 122 -220zM278 528l-93 89q-51 51 -51 76q0 19 13.5 31.5t33.5 12.5
q22 0 35 -18t28 -64l47 -127h-13z" />
    <glyph glyph-name="oacute" unicode="&#xf3;" horiz-adv-x="531" 
d="M237 528l47 127q15 46 28 64t35 18q20 0 33.5 -12.5t13.5 -31.5q0 -24 -52 -76l-92 -89h-13zM266 -8q-102 0 -168 65.5t-66 171.5q0 105 68 172.5t166 67.5q100 0 166.5 -65.5t66.5 -170.5t-68 -173t-165 -68zM270 11q57 0 84.5 52.5t27.5 167.5q0 219 -121 219
q-57 0 -85 -52t-28 -167q0 -220 122 -220z" />
    <glyph glyph-name="ocircumflex" unicode="&#xf4;" horiz-adv-x="531" 
d="M129 528l136 192h13l127 -192h-16l-121 93l-123 -93h-16zM266 -8q-102 0 -168 65.5t-66 171.5q0 105 68 172.5t166 67.5q100 0 166.5 -65.5t66.5 -170.5t-68 -173t-165 -68zM270 11q57 0 84.5 52.5t27.5 167.5q0 219 -121 219q-57 0 -85 -52t-28 -167q0 -220 122 -220z
" />
    <glyph glyph-name="otilde" unicode="&#xf5;" horiz-adv-x="531" 
d="M266 -8q-102 0 -168 65.5t-66 171.5q0 105 68 172.5t166 67.5q100 0 166.5 -65.5t66.5 -170.5t-68 -173t-165 -68zM270 11q57 0 84.5 52.5t27.5 167.5q0 219 -121 219q-57 0 -85 -52t-28 -167q0 -220 122 -220zM107 526q8 67 31 98t65 31q25 0 81 -25t73 -25q34 0 50 60
h16q-9 -66 -32 -97.5t-64 -31.5q-25 0 -81 25t-73 25q-34 0 -50 -60h-16z" />
    <glyph glyph-name="odieresis" unicode="&#xf6;" horiz-adv-x="531" 
d="M357 533q-27 0 -44.5 18t-17.5 45t17.5 46t44.5 19t44.5 -19t17.5 -46t-17.5 -45t-44.5 -18zM172 533q-27 0 -44.5 18t-17.5 45t17.5 46t44.5 19t44 -19t17 -46t-17 -45t-44 -18zM266 -8q-102 0 -168 65.5t-66 171.5q0 105 68 172.5t166 67.5q100 0 166.5 -65.5
t66.5 -170.5t-68 -173t-165 -68zM270 11q57 0 84.5 52.5t27.5 167.5q0 219 -121 219q-57 0 -85 -52t-28 -167q0 -220 122 -220z" />
    <glyph glyph-name="divide" unicode="&#xf7;" horiz-adv-x="576" 
d="M54 315v22h468v-22h-468zM289 413q-25 0 -42 17t-17 41t17 41t42 17q24 0 41 -17t17 -41t-17 -41t-41 -17zM289 123q-25 0 -42 17t-17 41t17 41t42 17q24 0 41 -17t17 -41t-17 -41t-41 -17z" />
    <glyph glyph-name="oslash" unicode="&#xf8;" horiz-adv-x="531" 
d="M73 -25h-29l61 75q-73 67 -73 179q0 105 68 172.5t166 67.5q81 0 142 -45l50 62h29l-62 -76q74 -66 74 -177q0 -105 -68 -173t-165 -68q-84 0 -143 44zM148 231q0 -65 11 -114l204 253q-29 80 -102 80q-57 0 -85 -52t-28 -167zM270 11q57 0 84.5 52.5t27.5 167.5
q0 64 -11 111l-204 -251q29 -80 103 -80z" />
    <glyph glyph-name="ugrave" unicode="&#xf9;" 
d="M209 -7q-60 0 -93.5 35.5t-33.5 104.5v265q0 24 -16 36t-57 13v12l178 4v-308q0 -56 18.5 -83.5t62.5 -27.5q63 0 105 82v272q0 24 -15.5 35.5t-56.5 12.5v12l177 5v-414q0 -20 15 -28.5t57 -9.5v-11h-175v102q-65 -109 -166 -109zM295 528l-93 89q-51 51 -51 76
q0 19 13.5 31.5t33.5 12.5q22 0 35 -18t28 -64l47 -127h-13z" />
    <glyph glyph-name="uacute" unicode="&#xfa;" 
d="M222 528l47 127q15 46 28 64t35 18q20 0 33.5 -12.5t13.5 -31.5q0 -24 -52 -76l-92 -89h-13zM209 -7q-60 0 -93.5 35.5t-33.5 104.5v265q0 24 -16 36t-57 13v12l178 4v-308q0 -56 18.5 -83.5t62.5 -27.5q63 0 105 82v272q0 24 -15.5 35.5t-56.5 12.5v12l177 5v-414
q0 -20 15 -28.5t57 -9.5v-11h-175v102q-65 -109 -166 -109z" />
    <glyph glyph-name="ucircumflex" unicode="&#xfb;" 
d="M127 528l136 192h13l127 -192h-16l-121 93l-123 -93h-16zM209 -7q-60 0 -93.5 35.5t-33.5 104.5v265q0 24 -16 36t-57 13v12l178 4v-308q0 -56 18.5 -83.5t62.5 -27.5q63 0 105 82v272q0 24 -15.5 35.5t-56.5 12.5v12l177 5v-414q0 -20 15 -28.5t57 -9.5v-11h-175v102
q-65 -109 -166 -109z" />
    <glyph glyph-name="udieresis" unicode="&#xfc;" 
d="M357 533q-27 0 -44.5 18t-17.5 45t17.5 46t44.5 19t44.5 -19t17.5 -46t-17.5 -45t-44.5 -18zM172 533q-27 0 -44.5 18t-17.5 45t17.5 46t44.5 19t44 -19t17 -46t-17 -45t-44 -18zM209 -7q-60 0 -93.5 35.5t-33.5 104.5v265q0 24 -16 36t-57 13v12l178 4v-308
q0 -56 18.5 -83.5t62.5 -27.5q63 0 105 82v272q0 24 -15.5 35.5t-56.5 12.5v12l177 5v-414q0 -20 15 -28.5t57 -9.5v-11h-175v102q-65 -109 -166 -109z" />
    <glyph glyph-name="yacute" unicode="&#xfd;" horiz-adv-x="492" 
d="M248 -11l-175 385q-18 40 -36 55.5t-54 19.5v12h248v-12q-43 -4 -54 -19.5t3 -43.5l118 -279l89 228q23 60 11.5 83t-66.5 31v12h181v-12q-55 -8 -89 -86l-164 -400q-38 -92 -75.5 -128t-82.5 -36q-35 0 -56.5 20.5t-21.5 50.5q0 25 15 43t42 18q23 0 39.5 -17.5
t16.5 -42.5q0 -31 -22 -50q34 4 63.5 37t63.5 117zM263 528l47 127q15 46 28 64t35 18q20 0 33.5 -12.5t13.5 -31.5q0 -24 -52 -76l-92 -89h-13z" />
    <glyph glyph-name="thorn" unicode="&#xfe;" horiz-adv-x="540" 
d="M172 717v-319q69 71 150 71q85 0 133.5 -64.5t48.5 -167.5q0 -106 -58 -175.5t-154 -69.5q-65 0 -120 29v-162q0 -23 18.5 -30t76.5 -8v-12h-271v12q44 1 57.5 8t13.5 30v789q0 27 -15 38.5t-65 12.5v12zM275 11q116 0 116 220q0 85 -31 141t-88 56q-52 0 -100 -50v-291
q29 -76 103 -76z" />
    <glyph glyph-name="ydieresis" unicode="&#xff;" horiz-adv-x="492" 
d="M248 -11l-175 385q-18 40 -36 55.5t-54 19.5v12h248v-12q-43 -4 -54 -19.5t3 -43.5l118 -279l89 228q23 60 11.5 83t-66.5 31v12h181v-12q-55 -8 -89 -86l-164 -400q-38 -92 -75.5 -128t-82.5 -36q-35 0 -56.5 20.5t-21.5 50.5q0 25 15 43t42 18q23 0 39.5 -17.5
t16.5 -42.5q0 -31 -22 -50q34 4 63.5 37t63.5 117zM370 533q-27 0 -44.5 18t-17.5 45t17.5 46t44.5 19t44.5 -19t17.5 -46t-17.5 -45t-44.5 -18zM185 533q-27 0 -44.5 18t-17.5 45t17.5 46t44.5 19t44 -19t17 -46t-17 -45t-44 -18z" />
    <glyph glyph-name="Amacron" unicode="&#x100;" horiz-adv-x="686" 
d="M471 95l-60 172h-236l-34 -87q-33 -89 -19.5 -122.5t82.5 -44.5v-13h-234v13q50 14 81.5 49.5t62.5 115.5l213 539h42l224 -608q19 -53 40 -70.5t77 -25.5v-13h-328v13q69 4 86.5 21.5t2.5 60.5zM182 287h222l-104 295h-4zM202 798v43h285v-43h-285z" />
    <glyph glyph-name="amacron" unicode="&#x101;" horiz-adv-x="491" 
d="M168 -6q-63 0 -95.5 32.5t-32.5 78.5q0 68 60 101q44 24 127.5 40.5t86.5 17.5v72q0 57 -19 84t-62 27q-54 0 -83 -29q27 -25 27 -54q0 -27 -15.5 -43t-44.5 -16q-26 0 -42 17t-16 42q0 45 51 73.5t135 28.5q173 0 173 -147v-233q0 -39 16 -50.5t60 4.5l4 -10
q-54 -34 -96 -34q-41 0 -59.5 18t-23.5 59h-4q-68 -79 -147 -79zM226 40q48 0 88 56v149q-97 -19 -129.5 -45t-32.5 -78q0 -38 18.5 -60t55.5 -22zM107 558v43h285v-43h-285z" />
    <glyph glyph-name="Abreve" unicode="&#x102;" horiz-adv-x="686" 
d="M471 95l-60 172h-236l-34 -87q-33 -89 -19.5 -122.5t82.5 -44.5v-13h-234v13q50 14 81.5 49.5t62.5 115.5l213 539h42l224 -608q19 -53 40 -70.5t77 -25.5v-13h-328v13q69 4 86.5 21.5t2.5 60.5zM182 287h222l-104 295h-4zM345 773q-56 0 -93.5 44t-43.5 115h15
q27 -88 121 -88t121 88h15q-5 -71 -42 -115t-93 -44z" />
    <glyph glyph-name="abreve" unicode="&#x103;" horiz-adv-x="491" 
d="M168 -6q-63 0 -95.5 32.5t-32.5 78.5q0 68 60 101q44 24 127.5 40.5t86.5 17.5v72q0 57 -19 84t-62 27q-54 0 -83 -29q27 -25 27 -54q0 -27 -15.5 -43t-44.5 -16q-26 0 -42 17t-16 42q0 45 51 73.5t135 28.5q173 0 173 -147v-233q0 -39 16 -50.5t60 4.5l4 -10
q-54 -34 -96 -34q-41 0 -59.5 18t-23.5 59h-4q-68 -79 -147 -79zM226 40q48 0 88 56v149q-97 -19 -129.5 -45t-32.5 -78q0 -38 18.5 -60t55.5 -22zM249 533q-56 0 -93.5 44t-43.5 115h15q27 -88 121 -88t121 88h15q-5 -71 -42 -115t-93 -44z" />
    <glyph glyph-name="Aogonek" unicode="&#x104;" horiz-adv-x="686" 
d="M540 -244q-43 0 -70 22t-27 60q0 36 22.5 65t75.5 72l34 25h-193v13q69 4 86.5 21.5t2.5 60.5l-60 172h-236l-34 -87q-33 -89 -19.5 -122.5t82.5 -44.5v-13h-234v13q50 14 81.5 49.5t62.5 115.5l213 539h42l224 -608q19 -53 40 -70.5t77 -25.5v-13h-112l-23 -25
q-53 -61 -53 -121q0 -32 16 -48.5t43 -16.5q31 0 64 17l6 -13q-51 -37 -111 -37zM182 287h222l-104 295h-4z" />
    <glyph glyph-name="aogonek" unicode="&#x105;" horiz-adv-x="491" 
d="M498 30q-30 -24 -66 -60q-64 -61 -64 -118q0 -30 15.5 -46.5t42.5 -16.5q32 0 65 17l7 -13q-51 -37 -111 -37q-42 0 -69.5 22t-27.5 58q0 37 27.5 68.5t89.5 73.5l34 23q-20 -5 -39 -5q-41 0 -59.5 18t-23.5 59h-4q-68 -79 -147 -79q-63 0 -95.5 32.5t-32.5 78.5
q0 68 60 101q44 24 127.5 40.5t86.5 17.5v72q0 57 -19 84t-62 27q-54 0 -83 -29q27 -25 27 -54q0 -27 -15.5 -43t-44.5 -16q-26 0 -42 17t-16 42q0 45 51 73.5t135 28.5q173 0 173 -147v-233q0 -39 16 -50.5t60 4.5zM226 40q48 0 88 56v149q-97 -19 -129.5 -45t-32.5 -78
q0 -38 18.5 -60t55.5 -22z" />
    <glyph glyph-name="Cacute" unicode="&#x106;" horiz-adv-x="712" 
d="M350 768l47 127q15 46 28 64t35 18q20 0 33.5 -12.5t13.5 -31.5q0 -24 -52 -76l-92 -89h-13zM386 -17q-154 0 -248 97t-94 258q0 164 105.5 270t259.5 106q100 0 180 -41l44 47h10v-243h-13q-42 109 -99 163.5t-135 54.5q-96 0 -158 -88t-62 -258q0 -163 72.5 -245.5
t173.5 -82.5q82 0 143 45.5t96 122.5l17 -9q-37 -85 -109 -141t-183 -56z" />
    <glyph glyph-name="cacute" unicode="&#x107;" horiz-adv-x="464" 
d="M212 528l47 127q15 46 28 64t35 18q20 0 33.5 -12.5t13.5 -31.5q0 -24 -52 -76l-92 -89h-13zM251 -8q-99 0 -159 64t-60 166q0 109 69 178t172 69q80 0 124.5 -34t44.5 -74q0 -28 -15.5 -46t-41.5 -18q-30 0 -47 16.5t-17 42.5q0 42 32 59q-28 36 -77 36q-57 0 -93.5 -57
t-36.5 -154q0 -91 39.5 -149.5t114.5 -58.5q76 0 140 79l11 -8q-76 -111 -200 -111z" />
    <glyph glyph-name="Cdotaccent" unicode="&#x10a;" horiz-adv-x="712" 
d="M386 -17q-154 0 -248 97t-94 258q0 164 105.5 270t259.5 106q100 0 180 -41l44 47h10v-243h-13q-42 109 -99 163.5t-135 54.5q-96 0 -158 -88t-62 -258q0 -163 72.5 -245.5t173.5 -82.5q82 0 143 45.5t96 122.5l17 -9q-37 -85 -109 -141t-183 -56zM389 766q-30 0 -48 18
t-18 48q0 29 18.5 48.5t47.5 19.5q30 0 47.5 -18.5t17.5 -48.5q0 -29 -18.5 -48t-46.5 -19z" />
    <glyph glyph-name="cdotaccent" unicode="&#x10b;" horiz-adv-x="464" 
d="M251 -8q-99 0 -159 64t-60 166q0 109 69 178t172 69q80 0 124.5 -34t44.5 -74q0 -28 -15.5 -46t-41.5 -18q-30 0 -47 16.5t-17 42.5q0 42 32 59q-28 36 -77 36q-57 0 -93.5 -57t-36.5 -154q0 -91 39.5 -149.5t114.5 -58.5q76 0 140 79l11 -8q-76 -111 -200 -111zM260 533
q-30 0 -48 18t-18 48q0 29 18.5 48.5t47.5 19.5q30 0 47.5 -18.5t17.5 -48.5q0 -29 -18.5 -48t-46.5 -19z" />
    <glyph glyph-name="Ccaron" unicode="&#x10c;" horiz-adv-x="712" 
d="M380 761l-127 192h16l121 -93l122 93h16l-135 -192h-13zM386 -17q-154 0 -248 97t-94 258q0 164 105.5 270t259.5 106q100 0 180 -41l44 47h10v-243h-13q-42 109 -99 163.5t-135 54.5q-96 0 -158 -88t-62 -258q0 -163 72.5 -245.5t173.5 -82.5q82 0 143 45.5t96 122.5
l17 -9q-37 -85 -109 -141t-183 -56z" />
    <glyph glyph-name="ccaron" unicode="&#x10d;" horiz-adv-x="464" 
d="M250 528l-127 192h16l121 -93l122 93h16l-135 -192h-13zM251 -8q-99 0 -159 64t-60 166q0 109 69 178t172 69q80 0 124.5 -34t44.5 -74q0 -28 -15.5 -46t-41.5 -18q-30 0 -47 16.5t-17 42.5q0 42 32 59q-28 36 -77 36q-57 0 -93.5 -57t-36.5 -154q0 -91 39.5 -149.5
t114.5 -58.5q76 0 140 79l11 -8q-76 -111 -200 -111z" />
    <glyph glyph-name="Dcaron" unicode="&#x10e;" horiz-adv-x="767" 
d="M369 768l-127 192h16l121 -93l122 93h16l-135 -192h-13zM33 0v13q62 2 85.5 17.5t23.5 48.5v540q0 32 -23.5 48t-85.5 18v12h313q180 0 278.5 -93.5t98.5 -242.5q0 -71 -21.5 -134.5t-64.5 -115t-115 -81.5t-164 -30h-325zM259 19h67q151 0 208 71t57 263q0 97 -16 160.5
t-50 99.5t-80.5 50.5t-115.5 14.5h-70v-659z" />
    <glyph glyph-name="dcaron" unicode="&#x10f;" horiz-adv-x="545" 
d="M564 533l-6 119q-2 36 -2 56q0 30 14 43t32 13t30 -11t12 -31q0 -22 -15 -59l-53 -130h-12zM230 -8q-91 0 -144.5 65.5t-53.5 166.5q0 104 64.5 174.5t165.5 70.5q56 0 102 -24v203q0 27 -15 38.5t-65 12.5v12l185 6v-666q0 -20 15.5 -30t56.5 -11v-10l-175 -4v55
q-57 -59 -136 -59zM279 34q50 0 85 38v327q-36 51 -96 51q-57 0 -89.5 -60t-32.5 -161q0 -86 35 -140.5t98 -54.5z" />
    <glyph glyph-name="Dcroat" unicode="&#x110;" horiz-adv-x="767" 
d="M33 0v13q62 2 85.5 17.5t23.5 48.5v271h-103v26h103v243q0 32 -23.5 48t-85.5 18v12h313q180 0 278.5 -93.5t98.5 -242.5q0 -71 -21.5 -134.5t-64.5 -115t-115 -81.5t-164 -30h-325zM259 19h67q151 0 208 71t57 263q0 97 -16 160.5t-50 99.5t-80.5 50.5t-115.5 14.5h-70
v-302h137v-26h-137v-331z" />
    <glyph glyph-name="dcroat" unicode="&#x111;" horiz-adv-x="545" 
d="M230 -8q-91 0 -144.5 65.5t-53.5 166.5q0 104 64.5 174.5t165.5 70.5q56 0 102 -24v127h-132v22h132v54q0 27 -15 38.5t-65 12.5v12l185 6v-123h70v-22h-70v-521q0 -20 15.5 -30t56.5 -11v-10l-175 -4v55q-57 -59 -136 -59zM279 34q50 0 85 38v327q-36 51 -96 51
q-57 0 -89.5 -60t-32.5 -161q0 -86 35 -140.5t98 -54.5z" />
    <glyph glyph-name="Emacron" unicode="&#x112;" horiz-adv-x="696" 
d="M33 0v13q62 2 85.5 17.5t23.5 48.5v540q0 32 -23.5 48t-85.5 18v12h580l3 -225l-14 -2q-47 115 -92.5 161.5t-130.5 46.5h-120v-307h54q64 0 99 30t55 107h13v-293h-13q-20 77 -55 107t-99 30h-54v-333h118q100 0 152.5 49t101.5 171l14 -1l-5 -238h-607zM214 798v43h285
v-43h-285z" />
    <glyph glyph-name="emacron" unicode="&#x113;" horiz-adv-x="484" 
d="M258 -8q-100 0 -163 64.5t-63 168.5q0 105 66.5 174.5t159.5 69.5q98 0 149.5 -60.5t45.5 -152.5h-307v-23v-2q0 -90 40.5 -144.5t116.5 -54.5q44 0 75.5 20.5t65.5 64.5l11 -8q-72 -117 -197 -117zM251 450q-93 0 -104 -176h194q16 176 -90 176zM115 558v43h285v-43
h-285z" />
    <glyph glyph-name="Ebreve" unicode="&#x114;" horiz-adv-x="696" 
d="M33 0v13q62 2 85.5 17.5t23.5 48.5v540q0 32 -23.5 48t-85.5 18v12h580l3 -225l-14 -2q-47 115 -92.5 161.5t-130.5 46.5h-120v-307h54q64 0 99 30t55 107h13v-293h-13q-20 77 -55 107t-99 30h-54v-333h118q100 0 152.5 49t101.5 171l14 -1l-5 -238h-607zM357 773
q-56 0 -93.5 44t-43.5 115h15q27 -88 121 -88t121 88h15q-5 -71 -42 -115t-93 -44z" />
    <glyph glyph-name="ebreve" unicode="&#x115;" horiz-adv-x="484" 
d="M258 -8q-100 0 -163 64.5t-63 168.5q0 105 66.5 174.5t159.5 69.5q98 0 149.5 -60.5t45.5 -152.5h-307v-23v-2q0 -90 40.5 -144.5t116.5 -54.5q44 0 75.5 20.5t65.5 64.5l11 -8q-72 -117 -197 -117zM251 450q-93 0 -104 -176h194q16 176 -90 176zM255 533q-56 0 -93.5 44
t-43.5 115h15q27 -88 121 -88t121 88h15q-5 -71 -42 -115t-93 -44z" />
    <glyph glyph-name="Edotaccent" unicode="&#x116;" horiz-adv-x="696" 
d="M33 0v13q62 2 85.5 17.5t23.5 48.5v540q0 32 -23.5 48t-85.5 18v12h580l3 -225l-14 -2q-47 115 -92.5 161.5t-130.5 46.5h-120v-307h54q64 0 99 30t55 107h13v-293h-13q-20 77 -55 107t-99 30h-54v-333h118q100 0 152.5 49t101.5 171l14 -1l-5 -238h-607zM356 773
q-30 0 -48 18t-18 48q0 29 18.5 48.5t47.5 19.5q30 0 47.5 -18.5t17.5 -48.5q0 -29 -18.5 -48t-46.5 -19z" />
    <glyph glyph-name="edotaccent" unicode="&#x117;" horiz-adv-x="484" 
d="M258 -8q-100 0 -163 64.5t-63 168.5q0 105 66.5 174.5t159.5 69.5q98 0 149.5 -60.5t45.5 -152.5h-307v-23v-2q0 -90 40.5 -144.5t116.5 -54.5q44 0 75.5 20.5t65.5 64.5l11 -8q-72 -117 -197 -117zM251 450q-93 0 -104 -176h194q16 176 -90 176zM255 533q-30 0 -48 18
t-18 48q0 29 18.5 48.5t47.5 19.5q30 0 47.5 -18.5t17.5 -48.5q0 -29 -18.5 -48t-46.5 -19z" />
    <glyph glyph-name="Eogonek" unicode="&#x118;" horiz-adv-x="696" 
d="M33 0v13q62 2 85.5 17.5t23.5 48.5v540q0 32 -23.5 48t-85.5 18v12h580l3 -225l-14 -2q-47 115 -92.5 161.5t-130.5 46.5h-120v-307h54q64 0 99 30t55 107h13v-293h-13q-20 77 -55 107t-99 30h-54v-333h118q100 0 152.5 49t101.5 171l14 -1l-5 -238h-65l-23 -25
q-53 -61 -53 -121q0 -32 16 -48.5t43 -16.5q31 0 64 17l6 -13q-51 -37 -111 -37q-43 0 -70 22t-27 60q0 36 22.5 65t75.5 72l34 25h-519z" />
    <glyph glyph-name="eogonek" unicode="&#x119;" horiz-adv-x="484" 
d="M444 117l11 -8q-20 -31 -48 -61q-5 -5 -35 -37t-34 -36q-54 -60 -54 -121q0 -32 16 -48.5t43 -16.5q31 0 64 17l7 -13q-51 -37 -111 -37q-43 0 -70 22t-27 60q0 36 22.5 65t75.5 72l46 36q-43 -19 -92 -19q-100 0 -163 64.5t-63 168.5q0 105 66.5 174.5t159.5 69.5
q98 0 149.5 -60.5t45.5 -152.5h-307v-23v-2q0 -90 40.5 -144.5t116.5 -54.5q44 0 75.5 20.5t65.5 64.5zM251 450q-93 0 -104 -176h194q16 176 -90 176z" />
    <glyph glyph-name="Ecaron" unicode="&#x11a;" horiz-adv-x="696" 
d="M346 768l-127 192h16l121 -93l122 93h16l-135 -192h-13zM33 0v13q62 2 85.5 17.5t23.5 48.5v540q0 32 -23.5 48t-85.5 18v12h580l3 -225l-14 -2q-47 115 -92.5 161.5t-130.5 46.5h-120v-307h54q64 0 99 30t55 107h13v-293h-13q-20 77 -55 107t-99 30h-54v-333h118
q100 0 152.5 49t101.5 171l14 -1l-5 -238h-607z" />
    <glyph glyph-name="ecaron" unicode="&#x11b;" horiz-adv-x="484" 
d="M258 -8q-100 0 -163 64.5t-63 168.5q0 105 66.5 174.5t159.5 69.5q98 0 149.5 -60.5t45.5 -152.5h-307v-23v-2q0 -90 40.5 -144.5t116.5 -54.5q44 0 75.5 20.5t65.5 64.5l11 -8q-72 -117 -197 -117zM251 450q-93 0 -104 -176h194q16 176 -90 176zM246 528l-127 192h16
l121 -93l122 93h16l-135 -192h-13z" />
    <glyph glyph-name="Gbreve" unicode="&#x11e;" horiz-adv-x="751" 
d="M407 -17q-97 0 -178 40.5t-133 125t-52 198.5q0 159 108.5 263t255.5 104q101 0 181 -41l45 47h11v-231h-14q-85 206 -232 206q-94 0 -158 -85t-64 -261q0 -175 67 -261t163 -86q86 0 136 42v189q0 33 -24.5 51t-86.5 20v13h303v-13q-47 -2 -62.5 -17t-15.5 -54v-184
q-104 -66 -250 -66zM387 773q-56 0 -93.5 44t-43.5 115h15q27 -88 121 -88t121 88h15q-5 -71 -42 -115t-93 -44z" />
    <glyph glyph-name="gbreve" unicode="&#x11f;" horiz-adv-x="470" 
d="M248 -184q65 0 109 30t44 78q0 66 -131 66h-102q-71 -22 -71 -77q0 -44 37.5 -70.5t113.5 -26.5zM239 175q42 0 60 33t18 104q0 64 -22 100t-65 36q-42 0 -60 -32.5t-18 -103.5q0 -137 87 -137zM235 466q47 0 91 -19q41 82 101 82q27 0 42.5 -14.5t15.5 -36.5
q0 -18 -12 -30.5t-31 -12.5q-18 0 -31.5 14t-13.5 37q-32 -6 -55 -47q82 -43 82 -125q0 -70 -56 -113t-133 -43q-32 0 -66 8q-58 -19 -58 -48q0 -36 96 -36h78q92 0 137.5 -29t45.5 -93q0 -66 -66 -113.5t-180 -47.5q-92 0 -147.5 28.5t-55.5 72.5q0 35 31.5 60.5t88.5 33.5
v2q-87 23 -87 87q0 25 24 50t68 41q-99 40 -99 136q0 69 56.5 112.5t133.5 43.5zM241 533q-56 0 -93.5 44t-43.5 115h15q27 -88 121 -88t121 88h15q-5 -71 -42 -115t-93 -44z" />
    <glyph glyph-name="Gdotaccent" unicode="&#x120;" horiz-adv-x="751" 
d="M407 -17q-97 0 -178 40.5t-133 125t-52 198.5q0 159 108.5 263t255.5 104q101 0 181 -41l45 47h11v-231h-14q-85 206 -232 206q-94 0 -158 -85t-64 -261q0 -175 67 -261t163 -86q86 0 136 42v189q0 33 -24.5 51t-86.5 20v13h303v-13q-47 -2 -62.5 -17t-15.5 -54v-184
q-104 -66 -250 -66zM390 773q-30 0 -48 18t-18 48q0 29 18.5 48.5t47.5 19.5q30 0 47.5 -18.5t17.5 -48.5q0 -29 -18.5 -48t-46.5 -19z" />
    <glyph glyph-name="gdotaccent" unicode="&#x121;" horiz-adv-x="470" 
d="M248 -184q65 0 109 30t44 78q0 66 -131 66h-102q-71 -22 -71 -77q0 -44 37.5 -70.5t113.5 -26.5zM239 175q42 0 60 33t18 104q0 64 -22 100t-65 36q-42 0 -60 -32.5t-18 -103.5q0 -137 87 -137zM235 466q47 0 91 -19q41 82 101 82q27 0 42.5 -14.5t15.5 -36.5
q0 -18 -12 -30.5t-31 -12.5q-18 0 -31.5 14t-13.5 37q-32 -6 -55 -47q82 -43 82 -125q0 -70 -56 -113t-133 -43q-32 0 -66 8q-58 -19 -58 -48q0 -36 96 -36h78q92 0 137.5 -29t45.5 -93q0 -66 -66 -113.5t-180 -47.5q-92 0 -147.5 28.5t-55.5 72.5q0 35 31.5 60.5t88.5 33.5
v2q-87 23 -87 87q0 25 24 50t68 41q-99 40 -99 136q0 69 56.5 112.5t133.5 43.5zM241 533q-30 0 -48 18t-18 48q0 29 18.5 48.5t47.5 19.5q30 0 47.5 -18.5t17.5 -48.5q0 -29 -18.5 -48t-46.5 -19z" />
    <glyph glyph-name="Gcommaaccent" unicode="&#x122;" horiz-adv-x="751" 
d="M326 -292l-7 12q81 50 86 112l-4 1q-12 -7 -26 -7q-22 0 -37.5 15.5t-15.5 38.5q0 25 16.5 42.5t41.5 17.5q32 0 50.5 -21.5t18.5 -58.5q0 -46 -32.5 -86t-90.5 -66zM407 -17q-97 0 -178 40.5t-133 125t-52 198.5q0 159 108.5 263t255.5 104q101 0 181 -41l45 47h11v-231
h-14q-85 206 -232 206q-94 0 -158 -85t-64 -261q0 -175 67 -261t163 -86q86 0 136 42v189q0 33 -24.5 51t-86.5 20v13h303v-13q-47 -2 -62.5 -17t-15.5 -54v-184q-104 -66 -250 -66z" />
    <glyph glyph-name="gcommaaccent" unicode="&#x123;" horiz-adv-x="470" 
d="M297 773l7 -12q-81 -50 -86 -112l4 -1q12 7 26 7q22 0 37.5 -15.5t15.5 -38.5q0 -25 -16.5 -42.5t-41.5 -17.5q-32 0 -50.5 21.5t-18.5 58.5q0 46 32.5 86t90.5 66zM248 -184q65 0 109 30t44 78q0 66 -131 66h-102q-71 -22 -71 -77q0 -44 37.5 -70.5t113.5 -26.5z
M239 175q42 0 60 33t18 104q0 64 -22 100t-65 36q-42 0 -60 -32.5t-18 -103.5q0 -137 87 -137zM235 466q47 0 91 -19q41 82 101 82q27 0 42.5 -14.5t15.5 -36.5q0 -18 -12 -30.5t-31 -12.5q-18 0 -31.5 14t-13.5 37q-32 -6 -55 -47q82 -43 82 -125q0 -70 -56 -113t-133 -43
q-32 0 -66 8q-58 -19 -58 -48q0 -36 96 -36h78q92 0 137.5 -29t45.5 -93q0 -66 -66 -113.5t-180 -47.5q-92 0 -147.5 28.5t-55.5 72.5q0 35 31.5 60.5t88.5 33.5v2q-87 23 -87 87q0 25 24 50t68 41q-99 40 -99 136q0 69 56.5 112.5t133.5 43.5z" />
    <glyph glyph-name="Hbar" unicode="&#x126;" horiz-adv-x="830" 
d="M33 0v13q63 2 86 17.5t23 47.5v433h-102v24h102v84q0 33 -23.5 48.5t-85.5 17.5v12h328v-12q-61 -2 -81.5 -17t-20.5 -49v-84h311v84q0 34 -20 49t-80 17v12h326v-12q-62 -2 -85.5 -17.5t-23.5 -48.5v-84h102v-24h-102v-433q0 -32 23 -47.5t86 -17.5v-13h-326v13
q60 2 80 16.5t20 48.5v273h-311v-273q0 -34 20 -48.5t82 -16.5v-13h-328zM259 372h311v139h-311v-139z" />
    <glyph glyph-name="hbar" unicode="&#x127;" 
d="M10 0v12q43 1 57 8t14 30v522h-69v22h69v54q0 27 -15 38.5t-65 12.5v12l185 6v-123h133v-22h-133v-217q70 111 172 111q60 0 91.5 -35.5t31.5 -104.5v-276q0 -23 14 -30t58 -8v-12h-237v12q36 1 48 8.5t12 29.5v255q0 56 -19 83t-63 27q-62 0 -108 -84v-281
q0 -22 12.5 -29.5t47.5 -8.5v-12h-236z" />
    <glyph glyph-name="Imacron" unicode="&#x12a;" horiz-adv-x="420" 
d="M40 0v13q65 2 88.5 17.5t23.5 48.5v540q0 32 -23.5 48t-88.5 18v12h340v-12q-65 -2 -88.5 -18t-23.5 -48v-540q0 -33 23.5 -48.5t88.5 -17.5v-13h-340zM67 798v43h285v-43h-285z" />
    <glyph glyph-name="imacron" unicode="&#x12b;" horiz-adv-x="292" 
d="M18 565v43h254v-43h-254zM24 0v12q44 1 58.5 8.5t14.5 29.5v344q0 24 -16 36.5t-57 13.5v12l178 7v-413q0 -23 14 -30t59 -8v-12h-251z" />
    <glyph glyph-name="Ibreve" unicode="&#x12c;" horiz-adv-x="420" 
d="M40 0v13q65 2 88.5 17.5t23.5 48.5v540q0 32 -23.5 48t-88.5 18v12h340v-12q-65 -2 -88.5 -18t-23.5 -48v-540q0 -33 23.5 -48.5t88.5 -17.5v-13h-340zM210 773q-56 0 -93.5 44t-43.5 115h15q27 -88 121 -88t121 88h15q-5 -71 -42 -115t-93 -44z" />
    <glyph glyph-name="ibreve" unicode="&#x12d;" horiz-adv-x="292" 
d="M24 0v12q44 1 58.5 8.5t14.5 29.5v344q0 24 -16 36.5t-57 13.5v12l178 7v-413q0 -23 14 -30t59 -8v-12h-251zM147 533q-56 0 -93.5 44t-43.5 115h15q27 -88 121 -88t121 88h15q-5 -71 -42 -115t-93 -44z" />
    <glyph glyph-name="Iogonek" unicode="&#x12e;" horiz-adv-x="420" 
d="M40 0v13q65 2 88.5 17.5t23.5 48.5v540q0 32 -23.5 48t-88.5 18v12h340v-12q-65 -2 -88.5 -18t-23.5 -48v-540q0 -33 23.5 -48.5t88.5 -17.5v-13h-137l-23 -25q-53 -61 -53 -121q0 -32 16 -48.5t43 -16.5q31 0 64 17l6 -13q-51 -37 -111 -37q-43 0 -70 22t-27 60
q0 36 22.5 65t75.5 72l34 25h-180z" />
    <glyph glyph-name="iogonek" unicode="&#x12f;" horiz-adv-x="292" 
d="M26 0v12q44 1 58.5 8.5t14.5 29.5v344q0 24 -16 36.5t-57 13.5v12l178 7v-413q0 -23 13.5 -30t59.5 -8v-12h-81l-23 -25q-53 -61 -53 -121q0 -32 16 -48.5t43 -16.5q31 0 64 17l6 -13q-51 -37 -111 -37q-43 0 -70 22t-27 60q0 36 22.5 65t75.5 72l34 25h-147zM146 549
q-29 0 -47 17.5t-18 47.5q0 31 18 50t47 19q30 0 48 -18t18 -48t-18 -49t-48 -19z" />
    <glyph glyph-name="Idotaccent" unicode="&#x130;" horiz-adv-x="420" 
d="M40 0v13q65 2 88.5 17.5t23.5 48.5v540q0 32 -23.5 48t-88.5 18v12h340v-12q-65 -2 -88.5 -18t-23.5 -48v-540q0 -33 23.5 -48.5t88.5 -17.5v-13h-340zM210 773q-30 0 -48 18t-18 48q0 29 18.5 48.5t47.5 19.5q30 0 47.5 -18.5t17.5 -48.5q0 -29 -18.5 -48t-46.5 -19z
" />
    <glyph glyph-name="dotlessi" unicode="&#x131;" horiz-adv-x="292" 
d="M24 0v12q44 1 58.5 8.5t14.5 29.5v344q0 24 -16 36.5t-57 13.5v12l178 7v-413q0 -23 14 -30t59 -8v-12h-251z" />
    <glyph glyph-name="Kcommaaccent" unicode="&#x136;" horiz-adv-x="756" 
d="M322 -292l-7 12q81 50 86 112l-4 1q-12 -7 -26 -7q-22 0 -37.5 15.5t-15.5 38.5q0 25 16.5 42.5t41.5 17.5q32 0 50.5 -21.5t18.5 -58.5q0 -46 -32.5 -86t-90.5 -66zM256 316l237 241q31 32 41 58t-8 45t-67 25v12h275v-12q-61 -12 -108.5 -43.5t-126.5 -111.5l-102 -100
l213 -296q53 -71 78.5 -92t76.5 -29v-13h-312v13q56 5 65 24.5t-22 65.5l-175 248l-65 -64v-209q0 -34 19 -48.5t77 -16.5v-13h-322v13q63 2 86 17.5t23 47.5v541q0 33 -23.5 48.5t-85.5 17.5v12h328v-12q-61 -2 -81.5 -17t-20.5 -49v-303z" />
    <glyph glyph-name="kcommaaccent" unicode="&#x137;" horiz-adv-x="528" 
d="M205 -292l-7 12q81 50 86 112l-4 1q-12 -7 -26 -7q-22 0 -37.5 15.5t-15.5 38.5q0 25 16.5 42.5t41.5 17.5q32 0 50.5 -21.5t18.5 -58.5q0 -46 -32.5 -86t-90.5 -66zM186 186v-136q0 -22 11.5 -29.5t41.5 -8.5v-12h-229v12q43 1 57 8t14 30v598q0 27 -15 38.5t-65 12.5
v12l185 6v-506l147 151q65 69 -34 87v12h212v-12q-43 -9 -76 -29.5t-82 -67.5l-54 -54l150 -212q32 -46 48.5 -58t50.5 -16v-12h-237v12q38 4 44 18t-13 40l-111 161z" />
    <glyph glyph-name="Lacute" unicode="&#x139;" horiz-adv-x="633" 
d="M201 768l47 127q15 46 28 64t35 18q20 0 33.5 -12.5t13.5 -31.5q0 -24 -52 -76l-92 -89h-13zM30 0v13q62 2 85.5 17.5t23.5 48.5v540q0 32 -23.5 48t-85.5 18v12h329v-12q-64 -2 -83.5 -17t-19.5 -49v-600h78q104 0 158.5 44.5t105.5 171.5l14 -1l-10 -234h-572z" />
    <glyph glyph-name="lacute" unicode="&#x13a;" horiz-adv-x="291" 
d="M111 761l47 127q15 46 28 64t35 18q20 0 33.5 -12.5t13.5 -31.5q0 -24 -52 -76l-92 -89h-13zM23 0v12q44 1 58 8.5t14 29.5v598q0 27 -15 38.5t-65 12.5v12l185 6v-667q0 -23 14 -30t57 -8v-12h-248z" />
    <glyph glyph-name="Lcommaaccent" unicode="&#x13b;" horiz-adv-x="633" 
d="M275 -292l-7 12q81 50 86 112l-4 1q-12 -7 -26 -7q-22 0 -37.5 15.5t-15.5 38.5q0 25 16.5 42.5t41.5 17.5q32 0 50.5 -21.5t18.5 -58.5q0 -46 -32.5 -86t-90.5 -66zM30 0v13q62 2 85.5 17.5t23.5 48.5v540q0 32 -23.5 48t-85.5 18v12h329v-12q-64 -2 -83.5 -17
t-19.5 -49v-600h78q104 0 158.5 44.5t105.5 171.5l14 -1l-10 -234h-572z" />
    <glyph glyph-name="lcommaaccent" unicode="&#x13c;" horiz-adv-x="291" 
d="M86 -292l-7 12q81 50 86 112l-4 1q-12 -7 -26 -7q-22 0 -37.5 15.5t-15.5 38.5q0 25 16.5 42.5t41.5 17.5q32 0 50.5 -21.5t18.5 -58.5q0 -46 -32.5 -86t-90.5 -66zM23 0v12q44 1 58 8.5t14 29.5v598q0 27 -15 38.5t-65 12.5v12l185 6v-667q0 -23 14 -30t57 -8v-12h-248z
" />
    <glyph glyph-name="Lcaron" unicode="&#x13d;" horiz-adv-x="633" 
d="M439 513l-6 119q-2 36 -2 56q0 30 14 43t32 13t30 -11t12 -31q0 -22 -15 -59l-53 -130h-12zM30 0v13q62 2 85.5 17.5t23.5 48.5v540q0 32 -23.5 48t-85.5 18v12h329v-12q-64 -2 -83.5 -17t-19.5 -49v-600h78q104 0 158.5 44.5t105.5 171.5l14 -1l-10 -234h-572z" />
    <glyph glyph-name="lcaron" unicode="&#x13e;" horiz-adv-x="291" 
d="M294 533l-6 119q-2 36 -2 56q0 30 14 43t32 13t30 -11t12 -31q0 -22 -15 -59l-53 -130h-12zM23 0v12q44 1 58 8.5t14 29.5v598q0 27 -15 38.5t-65 12.5v12l185 6v-667q0 -23 14 -30t57 -8v-12h-248z" />
    <glyph glyph-name="Ldot" unicode="&#x13f;" horiz-adv-x="633" 
d="M30 0v13q62 2 85.5 17.5t23.5 48.5v540q0 32 -23.5 48t-85.5 18v12h329v-12q-64 -2 -83.5 -17t-19.5 -49v-600h78q104 0 158.5 43.5t105.5 166.5l14 -1l-10 -228h-572zM503 311q-30 0 -48 18t-18 48q0 29 18.5 48.5t47.5 19.5q30 0 47.5 -18.5t17.5 -48.5
q0 -29 -18.5 -48t-46.5 -19z" />
    <glyph glyph-name="ldot" unicode="&#x140;" horiz-adv-x="375" 
d="M335 271q-30 0 -47 17.5t-17 47.5q0 29 18 48t46 19q29 0 46.5 -18.5t17.5 -47.5t-18 -47.5t-46 -18.5zM23 0v12q44 1 58 8.5t14 29.5v598q0 27 -15 38.5t-65 12.5v12l185 6v-667q0 -23 14 -30t57 -8v-12h-248z" />
    <glyph glyph-name="Lslash" unicode="&#x141;" horiz-adv-x="633" 
d="M30 0v13q62 2 85.5 17.5t23.5 48.5v237l-89 -23l-7 25l96 25v276q0 32 -23.5 48t-85.5 18v12h329v-12q-64 -2 -83.5 -17t-19.5 -49v-246l136 36l6 -24l-142 -38v-328h78q104 0 158.5 44.5t105.5 171.5l14 -1l-10 -234h-572z" />
    <glyph glyph-name="lslash" unicode="&#x142;" horiz-adv-x="321" 
d="M46 0v12q44 1 58 8.5t14 29.5v275l-84 -23l-6 22l90 24v300q0 27 -15 38.5t-65 12.5v12l185 6v-340l89 24l6 -22l-95 -26v-303q0 -23 14 -30t57 -8v-12h-248z" />
    <glyph glyph-name="Nacute" unicode="&#x143;" horiz-adv-x="795" 
d="M388 758l47 127q15 46 28 64t35 18q20 0 33.5 -12.5t13.5 -31.5q0 -24 -52 -76l-92 -89h-13zM635 -15l-455 599h-1v-417q0 -76 26.5 -110t101.5 -44v-13h-274v13q69 11 95.5 45t26.5 109v402q0 50 -30.5 81.5t-91.5 34.5v12h213l397 -528h1v362q0 74 -30 109t-104 45v12
h275v-12q-69 -12 -93 -45t-24 -109v-546h-33z" />
    <glyph glyph-name="nacute" unicode="&#x144;" horiz-adv-x="567" 
d="M255 528l47 127q15 46 28 64t35 18q20 0 33.5 -12.5t13.5 -31.5q0 -24 -52 -76l-92 -89h-13zM21 0v12q43 1 57 8.5t14 29.5v344q0 24 -15.5 36.5t-55.5 13.5v12l174 7v-108q70 111 173 111q60 0 91.5 -35.5t31.5 -104.5v-276q0 -23 14 -30t57 -8v-12h-236v12
q35 1 47.5 8.5t12.5 29.5v257q0 56 -18.5 82t-62.5 26q-64 0 -108 -84v-281q0 -22 12.5 -29.5t46.5 -8.5v-12h-235z" />
    <glyph glyph-name="Ncommaaccent" unicode="&#x145;" horiz-adv-x="795" 
d="M341 -292l-7 12q81 50 86 112l-4 1q-12 -7 -26 -7q-22 0 -37.5 15.5t-15.5 38.5q0 25 16.5 42.5t41.5 17.5q32 0 50.5 -21.5t18.5 -58.5q0 -46 -32.5 -86t-90.5 -66zM635 -15l-455 599h-1v-417q0 -76 26.5 -110t101.5 -44v-13h-274v13q69 11 95.5 45t26.5 109v402
q0 50 -30.5 81.5t-91.5 34.5v12h213l397 -528h1v362q0 74 -30 109t-104 45v12h275v-12q-69 -12 -93 -45t-24 -109v-546h-33z" />
    <glyph glyph-name="ncommaaccent" unicode="&#x146;" horiz-adv-x="567" 
d="M226 -292l-7 12q81 50 86 112l-4 1q-12 -7 -26 -7q-22 0 -37.5 15.5t-15.5 38.5q0 25 16.5 42.5t41.5 17.5q32 0 50.5 -21.5t18.5 -58.5q0 -46 -32.5 -86t-90.5 -66zM21 0v12q43 1 57 8.5t14 29.5v344q0 24 -15.5 36.5t-55.5 13.5v12l174 7v-108q70 111 173 111
q60 0 91.5 -35.5t31.5 -104.5v-276q0 -23 14 -30t57 -8v-12h-236v12q35 1 47.5 8.5t12.5 29.5v257q0 56 -18.5 82t-62.5 26q-64 0 -108 -84v-281q0 -22 12.5 -29.5t46.5 -8.5v-12h-235z" />
    <glyph glyph-name="Ncaron" unicode="&#x147;" horiz-adv-x="795" 
d="M398 758l-127 192h16l121 -93l122 93h16l-135 -192h-13zM635 -15l-455 599h-1v-417q0 -76 26.5 -110t101.5 -44v-13h-274v13q69 11 95.5 45t26.5 109v402q0 50 -30.5 81.5t-91.5 34.5v12h213l397 -528h1v362q0 74 -30 109t-104 45v12h275v-12q-69 -12 -93 -45t-24 -109
v-546h-33z" />
    <glyph glyph-name="ncaron" unicode="&#x148;" horiz-adv-x="567" 
d="M277 528l-127 192h16l121 -93l122 93h16l-135 -192h-13zM21 0v12q43 1 57 8.5t14 29.5v344q0 24 -15.5 36.5t-55.5 13.5v12l174 7v-108q70 111 173 111q60 0 91.5 -35.5t31.5 -104.5v-276q0 -23 14 -30t57 -8v-12h-236v12q35 1 47.5 8.5t12.5 29.5v257q0 56 -18.5 82
t-62.5 26q-64 0 -108 -84v-281q0 -22 12.5 -29.5t46.5 -8.5v-12h-235z" />
    <glyph glyph-name="Omacron" unicode="&#x14c;" horiz-adv-x="766" 
d="M239 798v43h285v-43h-285zM383 -17q-143 0 -241 101t-98 263q0 161 100 264t239 103q142 0 240 -101t98 -263q0 -161 -100 -264t-238 -103zM387 2q99 0 150.5 80t51.5 266t-55 266.5t-156 80.5q-98 0 -149.5 -79.5t-51.5 -266.5t55 -267t155 -80z" />
    <glyph glyph-name="omacron" unicode="&#x14d;" horiz-adv-x="531" 
d="M122 558v43h285v-43h-285zM266 -8q-102 0 -168 65.5t-66 171.5q0 105 68 172.5t166 67.5q100 0 166.5 -65.5t66.5 -170.5t-68 -173t-165 -68zM270 11q57 0 84.5 52.5t27.5 167.5q0 219 -121 219q-57 0 -85 -52t-28 -167q0 -220 122 -220z" />
    <glyph glyph-name="Obreve" unicode="&#x14e;" horiz-adv-x="766" 
d="M383 -17q-143 0 -241 101t-98 263q0 161 100 264t239 103q142 0 240 -101t98 -263q0 -161 -100 -264t-238 -103zM387 2q99 0 150.5 80t51.5 266t-55 266.5t-156 80.5q-98 0 -149.5 -79.5t-51.5 -266.5t55 -267t155 -80zM383 773q-56 0 -93.5 44t-43.5 115h15
q27 -88 121 -88t121 88h15q-5 -71 -42 -115t-93 -44z" />
    <glyph glyph-name="obreve" unicode="&#x14f;" horiz-adv-x="531" 
d="M266 -8q-102 0 -168 65.5t-66 171.5q0 105 68 172.5t166 67.5q100 0 166.5 -65.5t66.5 -170.5t-68 -173t-165 -68zM270 11q57 0 84.5 52.5t27.5 167.5q0 219 -121 219q-57 0 -85 -52t-28 -167q0 -220 122 -220zM265 533q-56 0 -93.5 44t-43.5 115h15q27 -88 121 -88
t121 88h15q-5 -71 -42 -115t-93 -44z" />
    <glyph glyph-name="Ohungarumlaut" unicode="&#x150;" horiz-adv-x="766" 
d="M438 768l56 128q19 45 33.5 63t35.5 18q18 0 29 -11.5t11 -29.5q0 -27 -56 -79l-98 -89h-11zM283 768l55 128q19 45 33.5 63t35.5 18q19 0 30 -11.5t11 -29.5q0 -27 -56 -79l-98 -89h-11zM383 -17q-143 0 -241 101t-98 263q0 161 100 264t239 103q142 0 240 -101t98 -263
q0 -161 -100 -264t-238 -103zM387 2q99 0 150.5 80t51.5 266t-55 266.5t-156 80.5q-98 0 -149.5 -79.5t-51.5 -266.5t55 -267t155 -80z" />
    <glyph glyph-name="ohungarumlaut" unicode="&#x151;" horiz-adv-x="531" 
d="M316 528l56 128q19 45 33.5 63t35.5 18q18 0 29 -11.5t11 -29.5q0 -27 -56 -79l-98 -89h-11zM161 528l55 128q19 45 33.5 63t35.5 18q19 0 30 -11.5t11 -29.5q0 -27 -56 -79l-98 -89h-11zM266 -8q-102 0 -168 65.5t-66 171.5q0 105 68 172.5t166 67.5q100 0 166.5 -65.5
t66.5 -170.5t-68 -173t-165 -68zM270 11q57 0 84.5 52.5t27.5 167.5q0 219 -121 219q-57 0 -85 -52t-28 -167q0 -220 122 -220z" />
    <glyph glyph-name="OE" unicode="&#x152;" horiz-adv-x="1065" 
d="M425 0q-180 0 -278.5 93.5t-98.5 242.5q0 72 22 135t65.5 114.5t116.5 81.5t168 30h562l3 -225l-14 -2q-47 115 -92.5 161.5t-129.5 46.5h-120v-307h54q63 0 98 30t55 107h13v-293h-13q-20 77 -55 107t-98 30h-54v-333h117q100 0 153 49t102 171l14 -1l-5 -238h-585z
M419 20q93 0 93 62v534q0 62 -90 62q-128 0 -185.5 -72.5t-57.5 -260.5q0 -97 17.5 -162.5t51 -100t74.5 -48.5t97 -14z" />
    <glyph glyph-name="oe" unicode="&#x153;" horiz-adv-x="833" 
d="M608 -8q-107 0 -169 80q-67 -80 -173 -80q-102 0 -168 65.5t-66 171.5q0 105 68 172.5t166 67.5q111 0 176 -83q65 83 165 83q98 0 150 -60t46 -153h-307v-23v-2q0 -90 40 -144.5t116 -54.5q45 0 76.5 20.5t64.5 64.5l11 -8q-72 -117 -196 -117zM382 231q0 219 -121 219
q-57 0 -85 -52t-28 -167q0 -220 122 -220q57 0 84.5 52.5t27.5 167.5zM601 450q-46 0 -73 -45t-31 -131h194q16 176 -90 176z" />
    <glyph glyph-name="Racute" unicode="&#x154;" horiz-adv-x="714" 
d="M329 768l47 127q15 46 28 64t35 18q20 0 33.5 -12.5t13.5 -31.5q0 -24 -52 -76l-92 -89h-13zM259 360h84q95 0 128.5 38.5t33.5 124.5q0 76 -39.5 115.5t-135.5 39.5h-71v-318zM259 341v-262q0 -34 22 -49t83 -17v-13h-331v13q62 2 85.5 17.5t23.5 48.5v540
q0 32 -23.5 48t-85.5 18v12h315q146 0 215 -46.5t69 -122.5q0 -144 -212 -176v-3q103 -3 144 -45t53 -127l7 -57q10 -66 30.5 -83.5t85.5 -18.5v-12q-47 -11 -103 -11q-77 0 -103.5 27.5t-34.5 99.5l-10 92q-8 77 -38 102t-116 25h-76z" />
    <glyph glyph-name="racute" unicode="&#x155;" horiz-adv-x="414" 
d="M171 528l47 127q15 46 28 64t35 18q20 0 33.5 -12.5t13.5 -31.5q0 -24 -52 -76l-92 -89h-13zM21 0v12q43 1 57 8.5t14 29.5v344q0 24 -15.5 36.5t-55.5 13.5v12l174 7v-101q57 105 135 105q39 0 59.5 -21t20.5 -52q0 -29 -17 -47t-44 -18q-28 0 -45.5 17.5t-17.5 44.5
q0 15 6 31q-50 -6 -95 -83v-289q0 -22 17.5 -29t69.5 -9v-12h-263z" />
    <glyph glyph-name="Rcommaaccent" unicode="&#x156;" horiz-adv-x="714" 
d="M310 -292l-7 12q81 50 86 112l-4 1q-12 -7 -26 -7q-22 0 -37.5 15.5t-15.5 38.5q0 25 16.5 42.5t41.5 17.5q32 0 50.5 -21.5t18.5 -58.5q0 -46 -32.5 -86t-90.5 -66zM259 360h84q95 0 128.5 38.5t33.5 124.5q0 76 -39.5 115.5t-135.5 39.5h-71v-318zM259 341v-262
q0 -34 22 -49t83 -17v-13h-331v13q62 2 85.5 17.5t23.5 48.5v540q0 32 -23.5 48t-85.5 18v12h315q146 0 215 -46.5t69 -122.5q0 -144 -212 -176v-3q103 -3 144 -45t53 -127l7 -57q10 -66 30.5 -83.5t85.5 -18.5v-12q-47 -11 -103 -11q-77 0 -103.5 27.5t-34.5 99.5l-10 92
q-8 77 -38 102t-116 25h-76z" />
    <glyph glyph-name="rcommaaccent" unicode="&#x157;" horiz-adv-x="414" 
d="M87 -292l-7 12q81 50 86 112l-4 1q-12 -7 -26 -7q-22 0 -37.5 15.5t-15.5 38.5q0 25 16.5 42.5t41.5 17.5q32 0 50.5 -21.5t18.5 -58.5q0 -46 -32.5 -86t-90.5 -66zM21 0v12q43 1 57 8.5t14 29.5v344q0 24 -15.5 36.5t-55.5 13.5v12l174 7v-101q57 105 135 105
q39 0 59.5 -21t20.5 -52q0 -29 -17 -47t-44 -18q-28 0 -45.5 17.5t-17.5 44.5q0 15 6 31q-50 -6 -95 -83v-289q0 -22 17.5 -29t69.5 -9v-12h-263z" />
    <glyph glyph-name="Rcaron" unicode="&#x158;" horiz-adv-x="714" 
d="M348 768l-127 192h16l121 -93l122 93h16l-135 -192h-13zM259 360h84q95 0 128.5 38.5t33.5 124.5q0 76 -39.5 115.5t-135.5 39.5h-71v-318zM259 341v-262q0 -34 22 -49t83 -17v-13h-331v13q62 2 85.5 17.5t23.5 48.5v540q0 32 -23.5 48t-85.5 18v12h315q146 0 215 -46.5
t69 -122.5q0 -144 -212 -176v-3q103 -3 144 -45t53 -127l7 -57q10 -66 30.5 -83.5t85.5 -18.5v-12q-47 -11 -103 -11q-77 0 -103.5 27.5t-34.5 99.5l-10 92q-8 77 -38 102t-116 25h-76z" />
    <glyph glyph-name="rcaron" unicode="&#x159;" horiz-adv-x="414" 
d="M211 528l-127 192h16l121 -93l122 93h16l-135 -192h-13zM21 0v12q43 1 57 8.5t14 29.5v344q0 24 -15.5 36.5t-55.5 13.5v12l174 7v-101q57 105 135 105q39 0 59.5 -21t20.5 -52q0 -29 -17 -47t-44 -18q-28 0 -45.5 17.5t-17.5 44.5q0 15 6 31q-50 -6 -95 -83v-289
q0 -22 17.5 -29t69.5 -9v-12h-263z" />
    <glyph glyph-name="Sacute" unicode="&#x15a;" horiz-adv-x="580" 
d="M265 768l47 127q15 46 28 64t35 18q20 0 33.5 -12.5t13.5 -31.5q0 -24 -52 -76l-92 -89h-13zM55 -18v250h14q49 -109 106 -167.5t132 -58.5q69 0 108 38.5t39 90.5q0 62 -41.5 96.5t-142.5 69.5l-43.5 15.5t-39.5 16t-40.5 20t-30.5 23.5t-28 32t-15 39t-7 50
q0 97 66.5 155.5t169.5 58.5q78 0 150 -34l36 40h12v-223h-14q-82 198 -200 198q-54 0 -92 -33t-38 -90q0 -60 42 -92t138 -64q38 -13 58 -20.5t51 -25t47 -35.5t28.5 -48.5t12.5 -67.5q0 -43 -13.5 -82.5t-40.5 -73.5t-74.5 -54t-109.5 -20q-89 0 -168 45l-60 -49h-12z" />
    <glyph glyph-name="sacute" unicode="&#x15b;" horiz-adv-x="417" 
d="M172 528l47 127q15 46 28 64t35 18q20 0 33.5 -12.5t13.5 -31.5q0 -24 -52 -76l-92 -89h-13zM38 -8v166h14q49 -85 85 -116t89 -31q40 0 63 23t23 54q0 35 -27 56.5t-100 42.5q-79 22 -112 51.5t-33 83.5q0 65 46 106t123 41q61 0 113 -31l25 31h11v-149h-14
q-47 76 -76 103t-72 27q-35 0 -58 -21.5t-23 -55.5q0 -31 28 -50t89 -35q80 -22 115.5 -53.5t35.5 -88.5q0 -66 -45 -110t-124 -44q-29 0 -69.5 10.5t-62.5 25.5l-33 -36h-11z" />
    <glyph glyph-name="Scedilla" unicode="&#x15e;" horiz-adv-x="580" 
d="M260 -251q-61 0 -103 30l10 16q38 -24 78 -24q57 0 57 55q0 26 -21 41t-55 15q-20 0 -37 -5l-6 9l110 100q-91 2 -166 45l-60 -49h-12v250h14q49 -109 106 -167.5t132 -58.5q69 0 108 38.5t39 90.5q0 62 -41.5 96.5t-142.5 69.5l-43.5 15.5t-39.5 16t-40.5 20t-30.5 23.5
t-28 32t-15 39t-7 50q0 97 66.5 155.5t169.5 58.5q78 0 150 -34l36 40h12v-223h-14q-82 198 -200 198q-54 0 -92 -33t-38 -90q0 -60 42 -92t138 -64q38 -13 58 -20.5t51 -25t47 -35.5t28.5 -48.5t12.5 -67.5q0 -88 -53 -154.5t-160 -74.5l-61 -58l2 -3q57 -1 86 -26t29 -61
q0 -39 -32.5 -64.5t-83.5 -25.5z" />
    <glyph glyph-name="scedilla" unicode="&#x15f;" horiz-adv-x="417" 
d="M180 -251q-61 0 -103 30l10 16q38 -24 78 -24q57 0 57 55q0 26 -21 41t-55 15q-19 0 -37 -5l-6 9l116 106h-5q-29 0 -69.5 10.5t-62.5 25.5l-33 -36h-11v166h14q49 -85 85 -116t89 -31q40 0 63 23t23 54q0 35 -27 56.5t-100 42.5q-79 22 -112 51.5t-33 83.5q0 65 46 106
t123 41q61 0 113 -31l25 31h11v-149h-14q-47 76 -76 103t-72 27q-35 0 -58 -21.5t-23 -55.5q0 -31 28 -50t89 -35q80 -22 115.5 -53.5t35.5 -88.5q0 -58 -35.5 -100t-99.5 -51l-69 -66l2 -3q57 -1 86 -26t29 -61q0 -39 -32.5 -64.5t-83.5 -25.5z" />
    <glyph glyph-name="Scaron" unicode="&#x160;" horiz-adv-x="580" 
d="M296 768l-127 192h16l121 -93l122 93h16l-135 -192h-13zM55 -18v250h14q49 -109 106 -167.5t132 -58.5q69 0 108 38.5t39 90.5q0 62 -41.5 96.5t-142.5 69.5l-43.5 15.5t-39.5 16t-40.5 20t-30.5 23.5t-28 32t-15 39t-7 50q0 97 66.5 155.5t169.5 58.5q78 0 150 -34
l36 40h12v-223h-14q-82 198 -200 198q-54 0 -92 -33t-38 -90q0 -60 42 -92t138 -64q38 -13 58 -20.5t51 -25t47 -35.5t28.5 -48.5t12.5 -67.5q0 -43 -13.5 -82.5t-40.5 -73.5t-74.5 -54t-109.5 -20q-89 0 -168 45l-60 -49h-12z" />
    <glyph glyph-name="scaron" unicode="&#x161;" horiz-adv-x="417" 
d="M213 528l-127 192h16l121 -93l122 93h16l-135 -192h-13zM38 -8v166h14q49 -85 85 -116t89 -31q40 0 63 23t23 54q0 35 -27 56.5t-100 42.5q-79 22 -112 51.5t-33 83.5q0 65 46 106t123 41q61 0 113 -31l25 31h11v-149h-14q-47 76 -76 103t-72 27q-35 0 -58 -21.5
t-23 -55.5q0 -31 28 -50t89 -35q80 -22 115.5 -53.5t35.5 -88.5q0 -66 -45 -110t-124 -44q-29 0 -69.5 10.5t-62.5 25.5l-33 -36h-11z" />
    <glyph glyph-name="Tcommaaccent" unicode="&#x162;" horiz-adv-x="700" 
d="M292 -292l-7 12q81 50 86 112l-4 1q-12 -7 -26 -7q-22 0 -37.5 15.5t-15.5 38.5q0 25 16.5 42.5t41.5 17.5q32 0 50.5 -21.5t18.5 -58.5q0 -46 -32.5 -86t-90.5 -66zM174 0v13q65 2 92 18t27 48v599h-39q-105 0 -201 -199l-14 1l6 217h613l6 -217l-14 -1
q-98 199 -202 199h-39v-599q0 -32 27 -48t92 -18v-13h-354z" />
    <glyph glyph-name="tcommaaccent" unicode="&#x163;" horiz-adv-x="351" 
d="M133 -292l-7 12q81 50 86 112l-4 1q-12 -7 -26 -7q-22 0 -37.5 15.5t-15.5 38.5q0 25 16.5 42.5t41.5 17.5q32 0 50.5 -21.5t18.5 -58.5q0 -46 -32.5 -86t-90.5 -66zM216 -10q-120 0 -120 133v302h-93v13l93 22v127l105 38v-168h142v-31h-142v-312q0 -45 13.5 -64
t44.5 -19q47 0 84 67l12 -8q-49 -100 -139 -100z" />
    <glyph glyph-name="Tcaron" unicode="&#x164;" horiz-adv-x="700" 
d="M340 768l-127 192h16l121 -93l122 93h16l-135 -192h-13zM174 0v13q65 2 92 18t27 48v599h-39q-105 0 -201 -199l-14 1l6 217h613l6 -217l-14 -1q-98 199 -202 199h-39v-599q0 -32 27 -48t92 -18v-13h-354z" />
    <glyph glyph-name="tcaron" unicode="&#x165;" horiz-adv-x="351" 
d="M289 533l-6 119q-2 36 -2 56q0 30 14 43t32 13t30 -11t12 -31q0 -22 -15 -59l-53 -130h-12zM216 -10q-120 0 -120 133v302h-93v13l93 22v127l105 38v-168h142v-31h-142v-312q0 -45 13.5 -64t44.5 -19q47 0 84 67l12 -8q-49 -100 -139 -100z" />
    <glyph glyph-name="Umacron" unicode="&#x16a;" horiz-adv-x="790" 
d="M403 -17q-131 0 -201.5 56t-70.5 164v416q0 32 -23.5 48t-85.5 18v12h327v-12q-61 -2 -81 -17t-20 -49v-404q0 -198 203 -198q82 0 128 46q56 56 56 162v306q0 74 -29.5 109t-104.5 45v12h276v-12q-69 -12 -93 -45t-24 -109v-314q0 -109 -64 -171.5t-193 -62.5zM269 798
v43h285v-43h-285z" />
    <glyph glyph-name="umacron" unicode="&#x16b;" 
d="M209 -7q-60 0 -93.5 35.5t-33.5 104.5v265q0 24 -16 36t-57 13v12l178 4v-308q0 -56 18.5 -83.5t62.5 -27.5q63 0 105 82v272q0 24 -15.5 35.5t-56.5 12.5v12l177 5v-414q0 -20 15 -28.5t57 -9.5v-11h-175v102q-65 -109 -166 -109zM138 558v43h285v-43h-285z" />
    <glyph glyph-name="Ubreve" unicode="&#x16c;" horiz-adv-x="790" 
d="M403 -17q-131 0 -201.5 56t-70.5 164v416q0 32 -23.5 48t-85.5 18v12h327v-12q-61 -2 -81 -17t-20 -49v-404q0 -198 203 -198q82 0 128 46q56 56 56 162v306q0 74 -29.5 109t-104.5 45v12h276v-12q-69 -12 -93 -45t-24 -109v-314q0 -109 -64 -171.5t-193 -62.5zM415 773
q-56 0 -93.5 44t-43.5 115h15q27 -88 121 -88t121 88h15q-5 -71 -42 -115t-93 -44z" />
    <glyph glyph-name="ubreve" unicode="&#x16d;" 
d="M209 -7q-60 0 -93.5 35.5t-33.5 104.5v265q0 24 -16 36t-57 13v12l178 4v-308q0 -56 18.5 -83.5t62.5 -27.5q63 0 105 82v272q0 24 -15.5 35.5t-56.5 12.5v12l177 5v-414q0 -20 15 -28.5t57 -9.5v-11h-175v102q-65 -109 -166 -109zM279 533q-56 0 -93.5 44t-43.5 115h15
q27 -88 121 -88t121 88h15q-5 -71 -42 -115t-93 -44z" />
    <glyph glyph-name="Uring" unicode="&#x16e;" horiz-adv-x="790" 
d="M416 773q-51 0 -82 30t-31 75q0 44 31 74t82 30t81.5 -29.5t30.5 -74.5t-30.5 -75t-81.5 -30zM416 790q55 0 55 88q0 87 -56 87q-55 0 -55 -87q0 -42 14.5 -65t41.5 -23zM403 -17q-131 0 -201.5 56t-70.5 164v416q0 32 -23.5 48t-85.5 18v12h327v-12q-61 -2 -81 -17
t-20 -49v-404q0 -198 203 -198q82 0 128 46q56 56 56 162v306q0 74 -29.5 109t-104.5 45v12h276v-12q-69 -12 -93 -45t-24 -109v-314q0 -109 -64 -171.5t-193 -62.5z" />
    <glyph glyph-name="uring" unicode="&#x16f;" 
d="M279 533q-51 0 -82 30t-31 75q0 44 31 74t82 30t81.5 -29.5t30.5 -74.5t-30.5 -75t-81.5 -30zM279 550q55 0 55 88q0 87 -56 87q-55 0 -55 -87q0 -42 14.5 -65t41.5 -23zM209 -7q-60 0 -93.5 35.5t-33.5 104.5v265q0 24 -16 36t-57 13v12l178 4v-308q0 -56 18.5 -83.5
t62.5 -27.5q63 0 105 82v272q0 24 -15.5 35.5t-56.5 12.5v12l177 5v-414q0 -20 15 -28.5t57 -9.5v-11h-175v102q-65 -109 -166 -109z" />
    <glyph glyph-name="Uhungarumlaut" unicode="&#x170;" horiz-adv-x="790" 
d="M403 -17q-131 0 -201.5 56t-70.5 164v416q0 32 -23.5 48t-85.5 18v12h327v-12q-61 -2 -81 -17t-20 -49v-404q0 -198 203 -198q82 0 128 46q56 56 56 162v306q0 74 -29.5 109t-104.5 45v12h276v-12q-69 -12 -93 -45t-24 -109v-314q0 -109 -64 -171.5t-193 -62.5zM460 768
l56 128q19 45 33.5 63t35.5 18q18 0 29 -11.5t11 -29.5q0 -27 -56 -79l-98 -89h-11zM305 768l55 128q19 45 33.5 63t35.5 18q19 0 30 -11.5t11 -29.5q0 -27 -56 -79l-98 -89h-11z" />
    <glyph glyph-name="uhungarumlaut" unicode="&#x171;" 
d="M209 -7q-60 0 -93.5 35.5t-33.5 104.5v265q0 24 -16 36t-57 13v12l178 4v-308q0 -56 18.5 -83.5t62.5 -27.5q63 0 105 82v272q0 24 -15.5 35.5t-56.5 12.5v12l177 5v-414q0 -20 15 -28.5t57 -9.5v-11h-175v102q-65 -109 -166 -109zM325 528l56 128q19 45 33.5 63t35.5 18
q18 0 29 -11.5t11 -29.5q0 -27 -56 -79l-98 -89h-11zM170 528l55 128q19 45 33.5 63t35.5 18q19 0 30 -11.5t11 -29.5q0 -27 -56 -79l-98 -89h-11z" />
    <glyph glyph-name="Uogonek" unicode="&#x172;" horiz-adv-x="790" 
d="M403 -17q-131 0 -201.5 56t-70.5 164v416q0 32 -23.5 48t-85.5 18v12h327v-12q-61 -2 -81 -17t-20 -49v-404q0 -198 203 -198q82 0 128 46q56 56 56 162v306q0 74 -29.5 109t-104.5 45v12h276v-12q-69 -12 -93 -45t-24 -109v-314q0 -99 -53 -160t-159 -71l-9 -11
q-53 -61 -53 -121q0 -32 16 -48.5t43 -16.5q31 0 64 17l6 -13q-51 -37 -111 -37q-43 0 -70 22t-27 60q0 36 22.5 65t75.5 72l11 8h-13z" />
    <glyph glyph-name="uogonek" unicode="&#x173;" 
d="M209 -7q-60 0 -93.5 35.5t-33.5 104.5v265q0 24 -16 36t-57 13v12l178 4v-308q0 -56 18.5 -83.5t62.5 -27.5q63 0 105 82v272q0 24 -15.5 35.5t-56.5 12.5v12l177 5v-414q0 -20 15 -28.5t57 -9.5v-11h-54l-23 -25q-53 -61 -53 -121q0 -32 16 -48.5t43 -16.5q31 0 64 17
l7 -13q-53 -37 -112 -37q-43 0 -70 22t-27 60q0 36 22.5 65t75.5 72l33 25h-97v102q-65 -109 -166 -109z" />
    <glyph glyph-name="Wcircumflex" unicode="&#x174;" horiz-adv-x="1030" 
d="M395 768l136 192h13l127 -192h-16l-121 93l-123 -93h-16zM513 518l-21 65q-19 59 -40 78t-72 24v12h305v-12q-62 -4 -77.5 -21t0.5 -63l146 -449h4l123 390q22 71 5.5 101t-80.5 42v12h237v-12q-55 -10 -85 -45t-57 -118l-172 -540h-35l-169 504l-182 -504h-35l-194 601
q-17 54 -39 73.5t-78 28.5v12h310v-12q-58 -4 -73 -24t0 -60l137 -451h4z" />
    <glyph glyph-name="wcircumflex" unicode="&#x175;" horiz-adv-x="743" 
d="M259 528l136 192h13l127 -192h-16l-121 93l-123 -93h-16zM376 327l-17 47q-14 39 -31 55t-49 20v12h239v-12q-62 -6 -62 -41q0 -8 5 -23l94 -276h4l73 223q16 48 16 65q0 24 -16 35.5t-51 16.5v12h182v-12q-67 -9 -94 -86l-131 -370h-41l-111 305l-125 -305h-39l-148 381
q-15 39 -33 55t-54 20v12h245v-12q-61 -6 -61 -40q0 -9 5 -24l104 -278h4z" />
    <glyph glyph-name="Ycircumflex" unicode="&#x176;" horiz-adv-x="677" 
d="M386 333l130 228q37 60 27.5 85.5t-77.5 38.5v12h231v-12q-52 -9 -85 -37t-76 -102l-137 -235v-232q0 -33 23.5 -48.5t88.5 -17.5v-13h-340v13q66 2 89 17.5t23 48.5v212l-176 311q-23 39 -46 56t-68 27v12h322v-12q-71 -4 -86 -25.5t11 -61.5zM217 768l136 192h13
l127 -192h-16l-121 93l-123 -93h-16z" />
    <glyph glyph-name="ycircumflex" unicode="&#x177;" horiz-adv-x="492" 
d="M248 -11l-175 385q-18 40 -36 55.5t-54 19.5v12h248v-12q-43 -4 -54 -19.5t3 -43.5l118 -279l89 228q23 60 11.5 83t-66.5 31v12h181v-12q-55 -8 -89 -86l-164 -400q-38 -92 -75.5 -128t-82.5 -36q-35 0 -56.5 20.5t-21.5 50.5q0 25 15 43t42 18q23 0 39.5 -17.5
t16.5 -42.5q0 -31 -22 -50q34 4 63.5 37t63.5 117zM127 528l136 192h13l127 -192h-16l-121 93l-123 -93h-16z" />
    <glyph glyph-name="Ydieresis" unicode="&#x178;" horiz-adv-x="677" 
d="M386 333l130 228q37 60 27.5 85.5t-77.5 38.5v12h231v-12q-52 -9 -85 -37t-76 -102l-137 -235v-232q0 -33 23.5 -48.5t88.5 -17.5v-13h-340v13q66 2 89 17.5t23 48.5v212l-176 311q-23 39 -46 56t-68 27v12h322v-12q-71 -4 -86 -25.5t11 -61.5zM482 773q-27 0 -44.5 18
t-17.5 45t17.5 46t44.5 19t44.5 -19t17.5 -46t-17.5 -45t-44.5 -18zM297 773q-27 0 -44.5 18t-17.5 45t17.5 46t44.5 19t44 -19t17 -46t-17 -45t-44 -18z" />
    <glyph glyph-name="Zacute" unicode="&#x179;" horiz-adv-x="650" 
d="M291 768l47 127q15 46 28 64t35 18q20 0 33.5 -12.5t13.5 -31.5q0 -24 -52 -76l-92 -89h-13zM35 0l-1 11l435 666h-184q-54 0 -102.5 -45.5t-108.5 -152.5l-13 2l17 216h533l1 -11l-435 -666h213q56 0 98.5 44.5t111.5 162.5l14 -2l-14 -225h-565z" />
    <glyph glyph-name="zacute" unicode="&#x17a;" horiz-adv-x="470" 
d="M211 528l47 127q15 46 28 64t35 18q20 0 33.5 -12.5t13.5 -31.5q0 -24 -52 -76l-92 -89h-13zM31 0l-2 13l297 428h-102q-42 0 -76 -30t-82 -113l-15 2l14 161h378l2 -14l-296 -427h113q44 0 78.5 32.5t84.5 117.5l14 -2l-14 -168h-394z" />
    <glyph glyph-name="Zdotaccent" unicode="&#x17b;" horiz-adv-x="650" 
d="M35 0l-1 11l435 666h-184q-54 0 -102.5 -45.5t-108.5 -152.5l-13 2l17 216h533l1 -11l-435 -666h213q56 0 98.5 44.5t111.5 162.5l14 -2l-14 -225h-565zM332 773q-30 0 -48 18t-18 48q0 29 18.5 48.5t47.5 19.5q30 0 47.5 -18.5t17.5 -48.5q0 -29 -18.5 -48t-46.5 -19z
" />
    <glyph glyph-name="zdotaccent" unicode="&#x17c;" horiz-adv-x="470" 
d="M31 0l-2 13l297 428h-102q-42 0 -76 -30t-82 -113l-15 2l14 161h378l2 -14l-296 -427h113q44 0 78.5 32.5t84.5 117.5l14 -2l-14 -168h-394zM248 533q-30 0 -48 18t-18 48q0 29 18.5 48.5t47.5 19.5q30 0 47.5 -18.5t17.5 -48.5q0 -29 -18.5 -48t-46.5 -19z" />
    <glyph glyph-name="Zcaron" unicode="&#x17d;" horiz-adv-x="650" 
d="M328 768l-127 192h16l121 -93l122 93h16l-135 -192h-13zM35 0l-1 11l435 666h-184q-54 0 -102.5 -45.5t-108.5 -152.5l-13 2l17 216h533l1 -11l-435 -666h213q56 0 98.5 44.5t111.5 162.5l14 -2l-14 -225h-565z" />
    <glyph glyph-name="zcaron" unicode="&#x17e;" horiz-adv-x="470" 
d="M239 528l-127 192h16l121 -93l122 93h16l-135 -192h-13zM31 0l-2 13l297 428h-102q-42 0 -76 -30t-82 -113l-15 2l14 161h378l2 -14l-296 -427h113q44 0 78.5 32.5t84.5 117.5l14 -2l-14 -168h-394z" />
    <glyph glyph-name="Aringacute" unicode="&#x1fa;" horiz-adv-x="686" 
d="M304 924l47 127q15 46 28 64t35 18q20 0 33.5 -12.5t13.5 -31.5q0 -24 -52 -76l-92 -89h-13zM346 713q55 0 55 89q0 88 -56 88q-55 0 -55 -88q0 -42 14.5 -65.5t41.5 -23.5zM175 267l-34 -87q-33 -89 -19.5 -122.5t82.5 -44.5v-13h-234v13q50 14 81.5 49.5t62.5 115.5
l206 522q-40 7 -63.5 35t-23.5 67q0 44 31 74t82 30t81.5 -29.5t30.5 -74.5q0 -37 -22.5 -65.5t-60.5 -35.5l218 -592q19 -53 40 -70.5t77 -25.5v-13h-328v13q69 4 86.5 21.5t2.5 60.5l-60 172h-236zM404 287l-104 295h-4l-114 -295h222z" />
    <glyph glyph-name="aringacute" unicode="&#x1fb;" horiz-adv-x="491" 
d="M168 -6q-63 0 -95.5 32.5t-32.5 78.5q0 68 60 101q44 24 127.5 40.5t86.5 17.5v72q0 57 -19 84t-62 27q-54 0 -83 -29q27 -25 27 -54q0 -27 -15.5 -43t-44.5 -16q-26 0 -42 17t-16 42q0 45 51 73.5t135 28.5q173 0 173 -147v-233q0 -39 16 -50.5t60 4.5l4 -10
q-54 -34 -96 -34q-41 0 -59.5 18t-23.5 59h-4q-68 -79 -147 -79zM226 40q48 0 88 56v149q-97 -19 -129.5 -45t-32.5 -78q0 -38 18.5 -60t55.5 -22zM216 776l47 127q15 46 28 64t35 18q20 0 33.5 -12.5t13.5 -31.5q0 -24 -52 -76l-92 -89h-13zM250 533q-51 0 -82 30t-31 75
q0 44 31 74t82 30t81.5 -29.5t30.5 -74.5t-30.5 -75t-81.5 -30zM250 550q55 0 55 88q0 87 -56 87q-55 0 -55 -87q0 -42 14.5 -65t41.5 -23z" />
    <glyph glyph-name="AEacute" unicode="&#x1fc;" horiz-adv-x="1038" 
d="M554 768l47 127q15 46 28 64t35 18q20 0 33.5 -12.5t13.5 -31.5q0 -24 -52 -76l-92 -89h-13zM240 280l-77 -121q-39 -61 -39 -93q0 -40 66 -53v-13h-232v13q95 23 186 164l272 422q14 23 14 38q0 35 -109 48v12h634l3 -225l-14 -2q-47 115 -92.5 161.5t-130.5 46.5h-120
v-307h54q64 0 98.5 29.5t54.5 107.5h13v-293h-13q-20 78 -54.5 107.5t-98.5 29.5h-54v-333h118q100 0 152.5 49t101.5 171l14 -1l-5 -238h-607v13q62 2 85.5 17.5t23.5 48.5v201h-244zM484 300v360h-4l-228 -360h232z" />
    <glyph glyph-name="aeacute" unicode="&#x1fd;" horiz-adv-x="766" 
d="M540 469q98 0 149.5 -60.5t45.5 -152.5h-307v-23v-2q0 -90 40.5 -144.5t116.5 -54.5q44 0 75.5 20.5t65.5 64.5l11 -8q-72 -117 -197 -117q-66 0 -115.5 29t-73.5 82h-4q-27 -47 -75.5 -78t-104.5 -31q-62 0 -94.5 32.5t-32.5 78.5q0 68 60 101q43 24 132 40.5t92 17.5
v72q0 111 -91 111q-54 0 -83 -29q27 -25 27 -54q0 -27 -15.5 -43t-44.5 -16q-26 0 -42 17t-16 42q0 45 51 73.5t135 28.5q107 0 146 -61q62 64 149 64zM533 450q-93 0 -104 -176h194q16 176 -90 176zM226 40q27 0 56 18t42 44v142q-100 -19 -136 -45t-36 -77q0 -38 18.5 -60
t55.5 -22zM372 528l47 127q15 46 28 64t35 18q20 0 33.5 -12.5t13.5 -31.5q0 -24 -52 -76l-92 -89h-13z" />
    <glyph glyph-name="Oslashacute" unicode="&#x1fe;" horiz-adv-x="766" 
d="M383 -17q138 0 238 103t100 264q0 164 -103 267l94 116h-34l-79 -97q-92 78 -216 78q-139 0 -239 -103t-100 -264q0 -167 103 -268l-93 -115h34l78 97q90 -78 217 -78zM387 2q-124 0 -174 116l350 433q26 -78 26 -203q0 -186 -51.5 -266t-150.5 -80zM378 695
q124 0 174 -117l-350 -432q-25 80 -25 203q0 187 51.5 266.5t149.5 79.5zM348 768l47 127q15 46 28 64t35 18q20 0 33.5 -12.5t13.5 -31.5q0 -24 -52 -76l-92 -89h-13z" />
    <glyph glyph-name="oslashacute" unicode="&#x1ff;" horiz-adv-x="531" 
d="M73 -25h-29l61 75q-73 67 -73 179q0 105 68 172.5t166 67.5q81 0 142 -45l50 62h29l-62 -76q74 -66 74 -177q0 -105 -68 -173t-165 -68q-84 0 -143 44zM148 231q0 -65 11 -114l204 253q-29 80 -102 80q-57 0 -85 -52t-28 -167zM270 11q57 0 84.5 52.5t27.5 167.5
q0 64 -11 111l-204 -251q29 -80 103 -80zM237 528l47 127q15 46 28 64t35 18q20 0 33.5 -12.5t13.5 -31.5q0 -24 -52 -76l-92 -89h-13z" />
    <glyph glyph-name="Scommaaccent" unicode="&#x218;" horiz-adv-x="580" 
d="M232 -292l-7 12q81 50 86 112l-4 1q-12 -7 -26 -7q-22 0 -37.5 15.5t-15.5 38.5q0 25 16.5 42.5t41.5 17.5q32 0 50.5 -21.5t18.5 -58.5q0 -46 -32.5 -86t-90.5 -66zM55 -18v250h14q49 -109 106 -167.5t132 -58.5q69 0 108 38.5t39 90.5q0 62 -41.5 96.5t-142.5 69.5
l-43.5 15.5t-39.5 16t-40.5 20t-30.5 23.5t-28 32t-15 39t-7 50q0 97 66.5 155.5t169.5 58.5q78 0 150 -34l36 40h12v-223h-14q-82 198 -200 198q-54 0 -92 -33t-38 -90q0 -60 42 -92t138 -64q38 -13 58 -20.5t51 -25t47 -35.5t28.5 -48.5t12.5 -67.5q0 -43 -13.5 -82.5
t-40.5 -73.5t-74.5 -54t-109.5 -20q-89 0 -168 45l-60 -49h-12z" />
    <glyph glyph-name="scommaaccent" unicode="&#x219;" horiz-adv-x="417" 
d="M149 -292l-7 12q81 50 86 112l-4 1q-12 -7 -26 -7q-22 0 -37.5 15.5t-15.5 38.5q0 25 16.5 42.5t41.5 17.5q32 0 50.5 -21.5t18.5 -58.5q0 -46 -32.5 -86t-90.5 -66zM38 -8v166h14q49 -85 85 -116t89 -31q40 0 63 23t23 54q0 35 -27 56.5t-100 42.5q-79 22 -112 51.5
t-33 83.5q0 65 46 106t123 41q61 0 113 -31l25 31h11v-149h-14q-47 76 -76 103t-72 27q-35 0 -58 -21.5t-23 -55.5q0 -31 28 -50t89 -35q80 -22 115.5 -53.5t35.5 -88.5q0 -66 -45 -110t-124 -44q-29 0 -69.5 10.5t-62.5 25.5l-33 -36h-11z" />
    <glyph glyph-name="schwa" unicode="&#x259;" horiz-adv-x="484" 
d="M225 468q100 0 163 -64.5t63 -168.5q0 -105 -66.5 -174.5t-159.5 -69.5q-98 0 -149.5 60.5t-45.5 152.5h306q0 3 0.5 11t0.5 12v2q0 90 -40.5 144.5t-116.5 54.5q-44 0 -75.5 -20.5t-65.5 -64.5l-11 8q72 117 197 117zM232 10q93 0 104 176h-194q-16 -176 90 -176z" />
    <glyph glyph-name="circumflex" unicode="&#x2c6;" horiz-adv-x="308" 
d="M16 528l136 192h13l127 -192h-16l-121 93l-123 -93h-16z" />
    <glyph glyph-name="caron" unicode="&#x2c7;" horiz-adv-x="308" 
d="M144 528l-127 192h16l121 -93l122 93h16l-135 -192h-13z" />
    <glyph glyph-name="breve" unicode="&#x2d8;" horiz-adv-x="336" 
d="M169 533q-56 0 -93.5 44t-43.5 115h15q27 -88 121 -88t121 88h15q-5 -71 -42 -115t-93 -44z" />
    <glyph glyph-name="dotaccent" unicode="&#x2d9;" horiz-adv-x="209" 
d="M105 533q-30 0 -48 18t-18 48q0 29 18.5 48.5t47.5 19.5q30 0 47.5 -18.5t17.5 -48.5q0 -29 -18.5 -48t-46.5 -19z" />
    <glyph glyph-name="ring" unicode="&#x2da;" horiz-adv-x="265" 
d="M133 533q-51 0 -82 30t-31 75q0 44 31 74t82 30t81.5 -29.5t30.5 -74.5t-30.5 -75t-81.5 -30zM133 550q55 0 55 88q0 87 -56 87q-55 0 -55 -87q0 -42 14.5 -65t41.5 -23z" />
    <glyph glyph-name="ogonek" unicode="&#x2db;" horiz-adv-x="269" 
d="M119 -244q-43 0 -70 22t-27 60q0 36 22.5 65t75.5 72l49 36h18l-33 -36q-53 -61 -53 -121q0 -32 16 -48.5t43 -16.5q31 0 64 17l6 -13q-51 -37 -111 -37z" />
    <glyph glyph-name="tilde" unicode="&#x2dc;" horiz-adv-x="342" 
d="M13 526q8 67 31 98t65 31q25 0 81 -25t73 -25q34 0 50 60h16q-9 -66 -32 -97.5t-64 -31.5q-25 0 -81 25t-73 25q-34 0 -50 -60h-16z" />
    <glyph glyph-name="hungarumlaut" unicode="&#x2dd;" horiz-adv-x="300" 
d="M143 528l56 128q19 45 33.5 63t35.5 18q18 0 29 -11.5t11 -29.5q0 -27 -56 -79l-98 -89h-11zM-12 528l55 128q19 45 33.5 63t35.5 18q19 0 30 -11.5t11 -29.5q0 -27 -56 -79l-98 -89h-11z" />
    <glyph glyph-name="commaaccent" unicode="&#x326;" horiz-adv-x="233" 
d="M58 -292l-7 12q81 50 86 112l-4 1q-12 -7 -26 -7q-22 0 -37.5 15.5t-15.5 38.5q0 25 16.5 42.5t41.5 17.5q32 0 50.5 -21.5t18.5 -58.5q0 -46 -32.5 -86t-90.5 -66z" />
    <glyph glyph-name="Wgrave" unicode="&#x1e80;" horiz-adv-x="1030" 
d="M513 518l-21 65q-19 59 -40 78t-72 24v12h305v-12q-62 -4 -77.5 -21t0.5 -63l146 -449h4l123 390q22 71 5.5 101t-80.5 42v12h237v-12q-55 -10 -85 -45t-57 -118l-172 -540h-35l-169 504l-182 -504h-35l-194 601q-17 54 -39 73.5t-78 28.5v12h310v-12q-58 -4 -73 -24
t0 -60l137 -451h4zM540 768l-93 89q-51 51 -51 76q0 19 13.5 31.5t33.5 12.5q22 0 35 -18t28 -64l47 -127h-13z" />
    <glyph glyph-name="wgrave" unicode="&#x1e81;" horiz-adv-x="743" 
d="M376 327l-17 47q-14 39 -31 55t-49 20v12h239v-12q-62 -6 -62 -41q0 -8 5 -23l94 -276h4l73 223q16 48 16 65q0 24 -16 35.5t-51 16.5v12h182v-12q-67 -9 -94 -86l-131 -370h-41l-111 305l-125 -305h-39l-148 381q-15 39 -33 55t-54 20v12h245v-12q-61 -6 -61 -40
q0 -9 5 -24l104 -278h4zM391 528l-93 89q-51 51 -51 76q0 19 13.5 31.5t33.5 12.5q22 0 35 -18t28 -64l47 -127h-13z" />
    <glyph glyph-name="Wacute" unicode="&#x1e82;" horiz-adv-x="1030" 
d="M511 768l47 127q15 46 28 64t35 18q20 0 33.5 -12.5t13.5 -31.5q0 -24 -52 -76l-92 -89h-13zM513 518l-21 65q-19 59 -40 78t-72 24v12h305v-12q-62 -4 -77.5 -21t0.5 -63l146 -449h4l123 390q22 71 5.5 101t-80.5 42v12h237v-12q-55 -10 -85 -45t-57 -118l-172 -540h-35
l-169 504l-182 -504h-35l-194 601q-17 54 -39 73.5t-78 28.5v12h310v-12q-58 -4 -73 -24t0 -60l137 -451h4z" />
    <glyph glyph-name="wacute" unicode="&#x1e83;" horiz-adv-x="743" 
d="M383 528l47 127q15 46 28 64t35 18q20 0 33.5 -12.5t13.5 -31.5q0 -24 -52 -76l-92 -89h-13zM376 327l-17 47q-14 39 -31 55t-49 20v12h239v-12q-62 -6 -62 -41q0 -8 5 -23l94 -276h4l73 223q16 48 16 65q0 24 -16 35.5t-51 16.5v12h182v-12q-67 -9 -94 -86l-131 -370
h-41l-111 305l-125 -305h-39l-148 381q-15 39 -33 55t-54 20v12h245v-12q-61 -6 -61 -40q0 -9 5 -24l104 -278h4z" />
    <glyph glyph-name="Wdieresis" unicode="&#x1e84;" horiz-adv-x="1030" 
d="M625 773q-27 0 -44.5 18t-17.5 45t17.5 46t44.5 19t44.5 -19t17.5 -46t-17.5 -45t-44.5 -18zM440 773q-27 0 -44.5 18t-17.5 45t17.5 46t44.5 19t44 -19t17 -46t-17 -45t-44 -18zM513 518l-21 65q-19 59 -40 78t-72 24v12h305v-12q-62 -4 -77.5 -21t0.5 -63l146 -449h4
l123 390q22 71 5.5 101t-80.5 42v12h237v-12q-55 -10 -85 -45t-57 -118l-172 -540h-35l-169 504l-182 -504h-35l-194 601q-17 54 -39 73.5t-78 28.5v12h310v-12q-58 -4 -73 -24t0 -60l137 -451h4z" />
    <glyph glyph-name="wdieresis" unicode="&#x1e85;" horiz-adv-x="743" 
d="M490 533q-27 0 -44.5 18t-17.5 45t17.5 46t44.5 19t44.5 -19t17.5 -46t-17.5 -45t-44.5 -18zM305 533q-27 0 -44.5 18t-17.5 45t17.5 46t44.5 19t44 -19t17 -46t-17 -45t-44 -18zM376 327l-17 47q-14 39 -31 55t-49 20v12h239v-12q-62 -6 -62 -41q0 -8 5 -23l94 -276h4
l73 223q16 48 16 65q0 24 -16 35.5t-51 16.5v12h182v-12q-67 -9 -94 -86l-131 -370h-41l-111 305l-125 -305h-39l-148 381q-15 39 -33 55t-54 20v12h245v-12q-61 -6 -61 -40q0 -9 5 -24l104 -278h4z" />
    <glyph glyph-name="Ygrave" unicode="&#x1ef2;" horiz-adv-x="677" 
d="M386 333l130 228q37 60 27.5 85.5t-77.5 38.5v12h231v-12q-52 -9 -85 -37t-76 -102l-137 -235v-232q0 -33 23.5 -48.5t88.5 -17.5v-13h-340v13q66 2 89 17.5t23 48.5v212l-176 311q-23 39 -46 56t-68 27v12h322v-12q-71 -4 -86 -25.5t11 -61.5zM365 768l-93 89
q-51 51 -51 76q0 19 13.5 31.5t33.5 12.5q22 0 35 -18t28 -64l47 -127h-13z" />
    <glyph glyph-name="ygrave" unicode="&#x1ef3;" horiz-adv-x="492" 
d="M248 -11l-175 385q-18 40 -36 55.5t-54 19.5v12h248v-12q-43 -4 -54 -19.5t3 -43.5l118 -279l89 228q23 60 11.5 83t-66.5 31v12h181v-12q-55 -8 -89 -86l-164 -400q-38 -92 -75.5 -128t-82.5 -36q-35 0 -56.5 20.5t-21.5 50.5q0 25 15 43t42 18q23 0 39.5 -17.5
t16.5 -42.5q0 -31 -22 -50q34 4 63.5 37t63.5 117zM262 528l-93 89q-51 51 -51 76q0 19 13.5 31.5t33.5 12.5q22 0 35 -18t28 -64l47 -127h-13z" />
    <glyph glyph-name="enspace" unicode="&#x2002;" horiz-adv-x="500" 
 />
    <glyph glyph-name="emspace" unicode="&#x2003;" horiz-adv-x="1000" 
 />
    <glyph glyph-name="threeperemspace" unicode="&#x2004;" horiz-adv-x="333" 
 />
    <glyph glyph-name="fourperemspace" unicode="&#x2005;" horiz-adv-x="250" 
 />
    <glyph glyph-name="thinspace" unicode="&#x2009;" horiz-adv-x="133" 
 />
    <glyph glyph-name="hairspace" unicode="&#x200a;" horiz-adv-x="75" 
 />
    <glyph glyph-name="endash" unicode="&#x2013;" horiz-adv-x="540" 
d="M55 252v22h430v-22h-430z" />
    <glyph glyph-name="emdash" unicode="&#x2014;" horiz-adv-x="790" 
d="M55 252v22h680v-22h-680z" />
    <glyph glyph-name="quoteleft" unicode="&#x2018;" horiz-adv-x="233" 
d="M120 444q-35 0 -56 23.5t-21 62.5q0 58 41 105.5t119 77.5l7 -12q-51 -25 -82 -63.5t-35 -72.5l4 -2q13 8 28 8q25 0 42 -17t17 -43q0 -28 -18 -47.5t-46 -19.5z" />
    <glyph glyph-name="quoteright" unicode="&#x2019;" horiz-adv-x="233" 
d="M29 442l-7 12q51 26 82 64t35 72l-4 2q-12 -9 -29 -9q-24 0 -41.5 17t-17.5 43q0 27 18.5 47t45.5 20q36 0 56.5 -23.5t20.5 -62.5q0 -121 -159 -182z" />
    <glyph glyph-name="quotesinglbase" unicode="&#x201a;" horiz-adv-x="233" 
d="M29 -151l-7 12q51 26 82 64t35 72l-4 2q-12 -9 -29 -9q-24 0 -41.5 17t-17.5 43q0 27 18.5 47t45.5 20q36 0 56.5 -23.5t20.5 -62.5q0 -121 -159 -182z" />
    <glyph glyph-name="quotedblleft" unicode="&#x201c;" horiz-adv-x="420" 
d="M308 444q-36 0 -56.5 23.5t-20.5 62.5q0 58 40.5 105.5t118.5 77.5l7 -12q-51 -25 -82 -63.5t-35 -72.5l4 -2q13 8 28 8q25 0 42 -17t17 -43q0 -28 -18 -47.5t-45 -19.5zM120 444q-35 0 -56 23.5t-21 62.5q0 58 41 105.5t119 77.5l7 -12q-51 -25 -82 -63.5t-35 -72.5
l4 -2q13 8 28 8q25 0 42 -17t17 -43q0 -28 -18 -47.5t-46 -19.5z" />
    <glyph glyph-name="quotedblright" unicode="&#x201d;" horiz-adv-x="420" 
d="M216 442l-7 12q52 25 82.5 63.5t34.5 72.5l-4 2q-12 -9 -28 -9q-25 0 -42 17t-17 43q0 28 18 47.5t46 19.5q35 0 56 -23.5t21 -62.5q0 -58 -41 -105t-119 -77zM29 442l-7 12q51 26 82 64t35 72l-4 2q-12 -9 -29 -9q-24 0 -41.5 17t-17.5 43q0 27 18.5 47t45.5 20
q36 0 56.5 -23.5t20.5 -62.5q0 -121 -159 -182z" />
    <glyph glyph-name="quotedblbase" unicode="&#x201e;" horiz-adv-x="420" 
d="M216 -151l-7 12q52 25 82.5 63.5t34.5 72.5l-4 2q-12 -9 -28 -9q-25 0 -42 17t-17 43q0 28 18 47.5t46 19.5q35 0 56 -23.5t21 -62.5q0 -58 -41 -105t-119 -77zM29 -151l-7 12q51 26 82 64t35 72l-4 2q-12 -9 -29 -9q-24 0 -41.5 17t-17.5 43q0 27 18.5 47t45.5 20
q36 0 56.5 -23.5t20.5 -62.5q0 -121 -159 -182z" />
    <glyph glyph-name="dagger" unicode="&#x2020;" horiz-adv-x="560" 
d="M273 -107q-6 124 -24 251.5t-32 166.5l41 63q12 16 12 36q0 25 -14.5 39.5t-40.5 14.5q-28 0 -72 -20.5t-61 -20.5q-22 0 -37.5 11t-15.5 32q0 23 23 37.5t60 14.5q54 0 158 -57l3 3l-22 103q-20 85 -20 116q0 29 13 47.5t36 18.5t36 -18.5t13 -47.5q0 -22 -20 -116
l-22 -103l3 -3q104 57 158 57q37 0 60 -14.5t23 -37.5q0 -21 -15.5 -32t-37.5 -11q-17 0 -61 20.5t-72 20.5q-26 0 -40.5 -14.5t-14.5 -39.5q0 -20 12 -36l41 -63q-14 -38 -31.5 -165t-24.5 -253h-14z" />
    <glyph glyph-name="daggerdbl" unicode="&#x2021;" horiz-adv-x="566" 
d="M283 -109q-23 0 -36 16.5t-13 45.5q0 15 20 107l22 102l-3 3q-103 -58 -158 -58q-37 0 -60 14.5t-23 38.5q0 20 15.5 31t37.5 11q17 0 61 -20.5t72 -20.5q54 0 54 46q0 25 -12 46l-31 67l31 66q12 21 12 44q0 48 -54 48q-28 0 -72 -20.5t-61 -20.5q-22 0 -37.5 11
t-15.5 32q0 23 23 37.5t60 14.5q53 0 158 -57l3 3l-22 101q-20 92 -20 108q0 29 13 45.5t36 16.5t36 -16.5t13 -45.5q0 -16 -20 -108l-22 -101l3 -3q104 57 158 57q37 0 60 -14.5t23 -37.5q0 -21 -15.5 -32t-37.5 -11q-17 0 -61 20.5t-72 20.5q-54 0 -54 -45q0 -26 12 -47
l31 -66l-31 -67q-12 -21 -12 -46q0 -46 54 -46q28 0 72 20.5t61 20.5q22 0 37.5 -11t15.5 -31q0 -23 -23.5 -38t-59.5 -15q-55 0 -158 58l-3 -3l22 -102q20 -92 20 -107q0 -29 -13 -45.5t-36 -16.5z" />
    <glyph glyph-name="bullet" unicode="&#x2022;" horiz-adv-x="473" 
d="M237 198q-55 0 -93.5 38.5t-38.5 92.5t38.5 93t93.5 39q54 0 92.5 -39t38.5 -93t-38 -92.5t-93 -38.5z" />
    <glyph glyph-name="ellipsis" unicode="&#x2026;" horiz-adv-x="685" 
d="M568 -16q-29 0 -48.5 19.5t-19.5 46.5q0 28 20 47.5t49 19.5q28 0 47.5 -19.5t19.5 -46.5q0 -28 -20 -47.5t-48 -19.5zM342 -16q-28 0 -48 19.5t-20 46.5q0 28 20 47.5t49 19.5q28 0 47.5 -19.5t19.5 -46.5q0 -28 -20 -47.5t-48 -19.5zM117 -16q-29 0 -49 19.5t-20 46.5
q0 28 20 47.5t49 19.5q28 0 47.5 -19.5t19.5 -46.5q0 -28 -19.5 -47.5t-47.5 -19.5z" />
    <glyph glyph-name="guilsinglleft" unicode="&#x2039;" horiz-adv-x="303" 
d="M244 28l-187 170q-21 19 -21 27q0 9 21 26l187 170l12 -9l-129 -187l129 -189z" />
    <glyph glyph-name="guilsinglright" unicode="&#x203a;" horiz-adv-x="303" 
d="M59 28l-12 9l129 187l-129 189l12 8l187 -170q21 -19 21 -27t-21 -26z" />
    <glyph glyph-name="fraction" unicode="&#x2044;" horiz-adv-x="607" 
d="M43 -31l246 355l243 355h32l-245 -355l-244 -355h-32z" />
    <glyph glyph-name="Euro" unicode="&#x20ac;" horiz-adv-x="683" 
d="M447 264h-212q16 -103 73 -160t141 -57q58 0 106 30.5t78 83.5l16 -9q-39 -77 -96 -123t-147 -46q-125 0 -201 79.5t-92 201.5h-84v21h81q-1 12 -1 37q0 36 5 62h-85v21h89q25 118 112 196t208 78q88 0 144.5 -40.5t56.5 -96.5q0 -32 -19 -53.5t-48 -21.5q-33 0 -53 19
t-20 53q0 26 14.5 45t34.5 28q-11 18 -43.5 33.5t-69.5 15.5q-85 0 -138.5 -63.5t-64.5 -192.5h215v-21h-216q-1 -13 -1 -41q0 -31 3 -58h214v-21z" />
    <glyph glyph-name="published" unicode="&#x2117;" horiz-adv-x="834" 
d="M417 -34q-162 0 -272.5 110t-110.5 273q0 161 110.5 271.5t272.5 110.5t272.5 -110.5t110.5 -271.5q0 -163 -110.5 -273t-272.5 -110zM417 -17q154 0 258.5 106.5t104.5 259.5t-104.5 259t-258.5 106t-258.5 -106t-104.5 -259t104.5 -259.5t258.5 -106.5zM251 157v12
q35 1 46.5 7t11.5 21v311q0 15 -11.5 21.5t-46.5 7.5v11h173q168 0 168 -112q0 -50 -42 -82t-129 -32h-35v-125q0 -15 12 -21.5t49 -7.5v-11h-196zM386 336h35q50 0 70.5 23t20.5 77q0 98 -89 98h-37v-198z" />
    <glyph glyph-name="servicemark" unicode="&#x2120;" horiz-adv-x="572" 
d="M51 549h11q34 -66 78 -66q22 0 34.5 12t12.5 27q0 16 -13.5 25.5t-47.5 20.5q-24 7 -35.5 12.5t-23.5 19t-12 34.5q0 32 23.5 51t58.5 19q25 0 51 -10l10 11h9v-71h-11q-26 57 -64 57q-18 0 -30 -10t-12 -26q0 -15 13 -23.5t46 -19.5q17 -6 25.5 -9.5t20.5 -11t17.5 -19
t5.5 -27.5q0 -30 -21 -52t-62 -22q-33 0 -58 11l-16 -12h-10v79zM242 475v9q22 2 28.5 11.5t6.5 33.5v130q0 29 -35 30v10h94l58 -157h4l56 157h91v-10q-21 -2 -28 -5t-7 -11v-172q0 -14 35 -15v-11h-113v11q18 1 24 4t6 11v166h-5l-67 -192h-19l-73 192h-5v-138
q0 -24 6.5 -33t29.5 -12v-9h-87z" />
    <glyph glyph-name="trademark" unicode="&#x2122;" horiz-adv-x="609" 
d="M279 475v9q22 2 28.5 11.5t6.5 33.5v130q0 29 -35 30v10h94l58 -157h4l56 157h91v-10q-21 -2 -28 -5t-7 -11v-172q0 -14 35 -15v-11h-113v11q18 1 24 4t6 11v166h-5l-67 -192h-19l-73 192h-5v-138q0 -24 6.5 -33t29.5 -12v-9h-87zM88 475v11q38 0 38 15v186h-8
q-34 0 -61 -67h-11l3 79h203l3 -79h-11q-13 34 -27.5 50.5t-35.5 16.5h-6v-186q0 -15 38 -15v-11h-125z" />
    <glyph glyph-name="minus" unicode="&#x2212;" horiz-adv-x="536" 
d="M54 315v22h428v-22h-428z" />
    <glyph glyph-name="registered.alt" horiz-adv-x="834" 
d="M417 -34q-162 0 -272.5 110t-110.5 273q0 161 110.5 271.5t272.5 110.5t272.5 -110.5t110.5 -271.5q0 -163 -110.5 -273t-272.5 -110zM417 -17q154 0 258.5 106.5t104.5 259.5t-104.5 259t-258.5 106t-258.5 -106t-104.5 -259t104.5 -259.5t258.5 -106.5zM372 361h38
q53 0 71 17.5t18 67.5q0 44 -19.5 66t-67.5 22h-40v-173zM372 348v-151q0 -15 12 -20.5t44 -7.5v-12h-191v12q34 1 46 7t12 21v311q0 15 -11.5 21.5t-46.5 7.5v11h188q82 0 119 -27t37 -69q0 -77 -110 -95v-3q53 -1 74 -21.5t27 -61.5l6 -52q5 -31 15 -40.5t41 -10.5v-11
q-13 -2 -38 -2q-57 0 -76.5 16t-22.5 55l-4 47q-4 43 -21 59t-65 16h-35z" />
    <glyph glyph-name="percent.alt" horiz-adv-x="856" 
d="M385 502q0 -76 -50 -126.5t-122 -50.5q-76 0 -125 48.5t-49 125.5q0 76 50.5 126.5t122.5 50.5q75 0 124 -48.5t49 -125.5zM154 -10l267 352l245 330h37l-266 -349l-246 -333h-37zM209 658q-41 0 -61 -36.5t-20 -120.5q0 -158 87 -158q41 0 61 36.5t20 120.5
q0 158 -87 158zM472 161q0 75 50 125.5t122 50.5q76 0 125 -48.5t49 -125.5q0 -76 -50 -126.5t-122 -50.5q-76 0 -125 48.5t-49 126.5zM648 4q41 0 61 37t20 120q0 158 -87 158q-41 0 -61 -36.5t-20 -119.5q0 -159 87 -159z" />
    <glyph glyph-name="NUL" horiz-adv-x="0" 
 />
    <glyph glyph-name="hfjslug" horiz-adv-x="694" 
d="M644 -200h-208l-8 14h-163l-8 -14h-207v303q14 0 23 9.5t9 22.5t-9.5 22.5t-22.5 9.5v554h100l30 79h334l29 -79h101v-921zM400 563v-172h15v78h38v14h-38v66h43v14h-58zM184 563v-172h15v79h47v-79h15v172h-15v-79h-47v79h-15zM460 394q10 -4 21 -4q31 0 31 36v137h-16
v-137q0 -22 -16 -22q-8 0 -20 5v-15zM371 465l-13 3q-4 -18 -8 -30h-1l-16 31q23 21 23 42q0 12 -7 21.5t-20 9.5q-12 0 -20 -9.5t-8 -21.5q0 -13 14 -39q-23 -18 -23 -47q0 -16 8 -26.5t21 -10.5q19 0 29 24h1l12 -24l12 6l-17 32q6 14 13 39zM523 323v-46h8v12l8 8l15 -20
h10l-20 26l18 20h-10l-20 -24h-1v24h-8zM488 292l10 -15h9l-12 17q10 4 10 14q0 15 -17 15h-20v-46h8v15h12zM426 276q10 0 17 7t7 17q0 9 -7 16.5t-17 7.5t-17 -7.5t-7 -16.5q0 -10 7 -17t17 -7zM370 301l-13 22h-9l18 -29v-17h8v17l18 29h-9zM193 323v-46h34v7h-26v13h23
v7h-23v12h26v7h-34zM132 323v-46h8v32l25 -32h7v46h-8v-32l-25 32h-7zM241 323l14 -47h8l11 34h1l11 -34h8l14 47h-8l-10 -35h-1l-11 35h-7l-11 -35h-1l-10 35h-8zM327 479q-12 22 -12 32q0 19 14 19q13 0 13 -19q0 -15 -15 -32zM342 423q-8 -21 -20 -21q-16 0 -16 25
q0 19 16 35zM487 299h-11v17h11q10 0 10 -8q0 -9 -10 -9zM426 283q-16 0 -16 17q0 6 4.5 11.5t11.5 5.5t11.5 -5.5t4.5 -11.5q0 -17 -16 -17z" />
    <glyph glyph-name="i.dot" horiz-adv-x="292" 
d="M146 549q-29 0 -47 17.5t-18 47.5q0 31 18 50t47 19q30 0 48 -18t18 -48t-18 -49t-48 -19zM26 0v12q44 1 58.5 8.5t14.5 29.5v344q0 24 -16 36.5t-57 13.5v12l178 7v-413q0 -23 13.5 -30t59.5 -8v-12h-251z" />
    <glyph glyph-name="caron.alt" horiz-adv-x="138" 
d="M40 533l-6 119q-2 36 -2 56q0 30 14 43t32 13t30 -11t12 -31q0 -22 -15 -59l-53 -130h-12z" />
    </font>
</defs>
</svg>
